<svg width="112" height="80" viewBox="0 0 112 80" fill="none" xmlns="http://www.w3.org/2000/svg">
<path fill-rule="evenodd" clip-rule="evenodd" d="M0 80H112V0H0V80Z" fill="#C0DF3D"/>
<path fill-rule="evenodd" clip-rule="evenodd" d="M85.8178 67.7137H83.4379V58.6642H85.8178V62.0986L88.8126 58.6642H91.7848L88.5377 62.169L91.9229 67.7137H89.0317L86.8019 63.8344L85.8178 64.857V67.7137ZM81.3036 67.7137H78.9251V62.2686L75.7098 67.7137H73.1599V58.6642H75.5398V64.108L78.7537 58.6642H81.3036V67.7137ZM71.0243 67.7137H68.6457V64.1425H65.2605V67.7137H62.8806V58.6642H65.2605V62.2354H68.6457V58.6642H71.0243V67.7137ZM56.5071 67.7137V60.57H53.8032V58.6642H61.595V60.57H58.8871V67.7137H56.5071ZM52.8961 64.4121C52.8682 64.7136 52.7899 65.0549 52.657 65.436C52.5269 65.8159 52.3078 66.1997 52.001 66.5875C51.6955 66.9753 51.2732 67.2993 50.7353 67.561C50.1961 67.8199 49.54 67.9514 48.7645 67.9514C47.9583 67.9514 47.2797 67.8133 46.7285 67.5397C46.1774 67.2648 45.7471 66.9075 45.435 66.464C45.1229 66.0217 44.9024 65.5383 44.7736 65.019C44.6421 64.4971 44.577 63.9738 44.577 63.4439C44.577 62.4412 44.7298 61.5647 45.0326 60.813C45.3367 60.0613 45.8108 59.4756 46.4589 59.0559C47.107 58.6363 47.9264 58.4278 48.9185 58.4278C49.4856 58.4278 50.0593 58.5287 50.6397 58.7319C51.2187 58.9364 51.7261 59.2963 52.159 59.8143C52.592 60.3309 52.8443 61.0255 52.9134 61.8954H50.5003C50.3249 60.9206 49.7977 60.4332 48.9185 60.4332C48.455 60.4332 48.0818 60.5646 47.7976 60.8276C47.5147 61.0906 47.3155 61.4199 47.2 61.8144C47.0858 62.2075 47.0273 62.6218 47.0273 63.0535C47.0273 63.5435 47.0605 63.9937 47.1269 64.4054C47.1947 64.8158 47.3633 65.185 47.6369 65.5091C47.9092 65.8318 48.3182 65.9938 48.8641 65.9938C49.2266 65.9938 49.5308 65.9009 49.7751 65.7109C50.0208 65.5237 50.2001 65.3045 50.313 65.0509C50.4272 64.7999 50.4843 64.5874 50.4843 64.4121H52.8961ZM40.707 63.3071C40.448 63.509 39.9075 63.6737 39.0868 63.8012C38.7481 63.8596 38.4626 63.9313 38.2328 64.0203C38.0031 64.1093 37.8184 64.2434 37.6803 64.4227C37.5409 64.602 37.4732 64.849 37.4732 65.1611C37.4732 65.5343 37.5874 65.8079 37.8171 65.9845C38.0469 66.1598 38.3019 66.2475 38.5821 66.2475C38.938 66.2475 39.2807 66.1744 39.6074 66.027C39.9341 65.8809 40.1984 65.6724 40.4029 65.4015C40.6061 65.1306 40.707 64.8171 40.707 64.4652V63.3071ZM43.0378 65.9434C43.0378 66.4361 43.0829 66.7787 43.1733 66.97C43.2622 67.1639 43.3937 67.2914 43.5664 67.3551V67.7137H40.9939C40.8837 67.3724 40.8093 67.0138 40.7747 66.6379C40.3896 67.035 39.9832 67.3538 39.5569 67.5915C39.1319 67.8305 38.5608 67.9514 37.8463 67.9514C37.3682 67.9514 36.918 67.8558 36.4983 67.6685C36.0787 67.4799 35.74 67.1878 35.481 66.792C35.2221 66.3962 35.0932 65.9035 35.0932 65.3138C35.0932 64.7468 35.2048 64.2567 35.4292 63.8476C35.6537 63.4373 35.9605 63.1172 36.3509 62.8861C36.7414 62.655 37.2022 62.501 37.7295 62.424L39.873 62.0999C40.4295 62.0255 40.707 61.7878 40.707 61.3867C40.707 60.9471 40.5583 60.6616 40.2595 60.5301C39.9606 60.3986 39.5874 60.3336 39.1412 60.3336C38.6153 60.3336 38.2527 60.4518 38.0522 60.6908C37.8517 60.9299 37.7255 61.2287 37.6763 61.5926H35.3828C35.4691 60.7214 35.7068 60.0547 36.0959 59.5925C36.4851 59.129 36.9552 58.8196 37.5077 58.6628C38.0602 58.5048 38.7003 58.4278 39.4281 58.4278C39.966 58.4278 40.5038 58.4982 41.0443 58.6389C41.5835 58.7797 42.051 59.0466 42.4468 59.4371C42.8412 59.8276 43.0378 60.3628 43.0378 61.0441V65.9434ZM33.0148 67.7137H30.6362V63.9858C30.3985 64.1239 30.0213 64.2979 29.5073 64.5064C28.9921 64.7149 28.4728 64.8185 27.9508 64.8185C26.9986 64.8185 26.2483 64.5675 25.6971 64.0641C25.1459 63.5595 24.871 62.7586 24.871 61.6563V58.6642H27.2509V61.5886C27.2509 62.404 27.7676 62.8131 28.7995 62.8131C29.1196 62.8131 29.4595 62.7427 29.8261 62.6032C30.1913 62.4638 30.4609 62.3469 30.6362 62.2526V58.6642H33.0148V67.7137ZM18.313 67.9009C17.5865 67.9009 17.0248 67.8385 16.6263 67.7137V65.537C16.9252 65.6738 17.2147 65.7415 17.4949 65.7415C18.0261 65.7415 18.4126 65.5091 18.653 65.0429L18.7035 64.9393L13.5983 55.4994H16.6423L19.9279 62.3217L22.4114 55.4994H25.3359L20.9293 65.6698C20.7235 66.1519 20.4565 66.5609 20.1258 66.8956C19.7938 67.2303 19.4618 67.4813 19.1284 67.6486C18.7951 67.8173 18.5228 67.9009 18.313 67.9009ZM32.6416 30.1172L23.7315 27.9497C22.2149 27.5965 19.8483 26.9895 19.8483 24.1236C19.8483 20.8485 23.3238 19.7396 26.2456 19.7396C32.8926 19.7396 33.4995 23.6202 33.6974 25.2803H37.938V32.0973C36.3828 31.1876 34.5461 30.5979 32.6416 30.1172ZM27.8034 51.9228C29.7159 51.9228 34.4212 51.5882 37.938 49.021V50.9693H45.0352L45.0432 42.4019L48.0048 39.334L54.4566 50.9693H62.9722L53.1976 34.3458L62.7172 23.8686H54.0011L45.0432 34.1492V14.4007H37.938V17.5257C35.7759 15.2029 32.2698 13.4471 26.8021 13.4471C14.9662 13.4471 12.7444 20.648 12.7444 24.6774C12.7444 30.2154 15.7219 33.2926 20.9081 34.5503L28.2603 36.3618C32.1383 37.318 34.9113 38.0245 34.9113 40.8932C34.9113 44.722 30.8779 45.6278 27.2509 45.6278C20.6039 45.6278 19.4963 41.7511 19.4963 39.686H12.1919C12.1919 44.22 14.5081 51.9228 27.8034 51.9228Z" fill="#656867"/>
</svg>
