<?xml version="1.0" encoding="utf-8"?><svg width="166" height="40" fill="none" xmlns="http://www.w3.org/2000/svg" viewBox="0 0 166 40"><mask id="ca" maskUnits="userSpaceOnUse" x="0" y="0" width="166" height="40"><path d="M0 0h166v40H0V0z" fill="#fff"/></mask><g mask="url(#ca)"><path fill-rule="evenodd" clip-rule="evenodd" d="M76.09 21.05v-5.772s-.088-.089-.355-.178c-1.068-.355-2.136-.533-3.203-.444-1.601.09-2.846.8-3.559 2.22-.533 1.065-.711 2.31-.8 3.464-.09 1.598 0 3.196.534 4.796.445 1.332 1.335 2.309 2.758 2.575 1.512.355 2.936 0 4.27-.711.267-.177.356-.266.356-.266V21.05zm5.871 10.568c-1.6.09-3.38.267-5.16.444-.087-.621-.265-1.154-.355-1.687-.889.356-1.69.799-2.491 1.155-2.4.887-4.803.8-7.028-.533-1.956-1.154-3.024-2.93-3.735-4.973-.89-3.02-.979-6.128 0-9.148 1.155-3.64 3.825-5.595 7.562-6.127a12.565 12.565 0 015.425.355V.447C78.047.27 79.826.181 81.606.003v25.044c-.09 2.664.178 4.529.356 6.571zm-30.156-3.73l.178-1.332c.088-.71.177-1.33.267-1.687.445-1.776 1.156-3.463 1.69-5.151.802-2.752 2.846-8.703 2.846-8.703h5.783c-.446 1.155-.8 2.22-1.246 3.286-2.224 5.684-6.85 17.407-6.85 17.407h-5.515S40.95 11.194 40.95 11.016c1.247-.089 6.05-.445 6.05-.445s2.046 6.749 3.025 9.858c.445 1.42.978 2.93 1.423 4.44.09.267.178.888.267 1.687l.09 1.332zM86.142.448C87.922.27 89.79.18 91.57.001V31.62h-5.427V.447zm19.571 10.479c-1.333 1.687-2.668 3.285-3.913 4.973-.802 1.066-1.691 2.131-2.491 3.196-.445.533-2.224 1.244-3.113 1.333.89 0 2.58.71 3.024 1.243 2.046 2.753 4.269 6.039 6.317 8.792v1.154h-5.605L92.638 20.34c2.223-2.931 4.802-6.482 6.938-9.413h6.137zm11.624 9.14V15.95h-2.638v4.119h-.815V15.24h4.27v4.828h-.817zm3.195-2.413c0 .948.442 1.83 1.516 1.83.969 0 1.487-.758 1.487-1.83 0-1.073-.518-1.828-1.487-1.828-1.074 0-1.516.88-1.516 1.829v-.001zm-.018-2.413v.517h.21c.269-.335.739-.642 1.507-.642 1.333 0 2.119 1.11 2.119 2.539 0 1.455-.786 2.537-2.119 2.537-.768 0-1.219-.297-1.478-.642h-.211v2.433h-.815V15.24h.787zm8.758 2.413c0-.948-.499-1.829-1.563-1.829-1.075 0-1.564.881-1.564 1.829s.489 1.83 1.564 1.83c1.064 0 1.563-.882 1.563-1.83zm.816 0c0 1.427-.873 2.538-2.379 2.538-1.516 0-2.38-1.11-2.38-2.538 0-1.427.864-2.538 2.38-2.538 1.506 0 2.379 1.11 2.379 2.539zm5.506-2.414v4.12h.883v2.078h-.787v-1.37h-4.327V15.24h.816v4.12h2.601v-4.12h.814zm2.494 1.725h2.792c-.047-.613-.518-1.14-1.333-1.14-.873 0-1.353.527-1.459 1.14zm3.637.68h-3.684c.028 1.149.546 1.838 1.544 1.838.681 0 1.084-.287 1.228-.747h.826c-.154.823-.855 1.456-2.054 1.456-1.506 0-2.35-1.101-2.35-2.585 0-1.486.863-2.491 2.331-2.491 1.439 0 2.129 1.064 2.159 2.251v.278zm5.353.966c-.182.949-.911 1.582-2.035 1.582-1.505 0-2.349-1.111-2.349-2.54 0-1.454.844-2.537 2.349-2.537 1.153 0 1.842.632 2.006 1.522h-.816c-.154-.488-.527-.813-1.19-.813-1.092 0-1.535.852-1.535 1.81 0 .967.452 1.85 1.535 1.85.692 0 1.095-.336 1.219-.874h.816zm5.305 0c-.182.949-.912 1.582-2.034 1.582-1.506 0-2.351-1.111-2.351-2.54 0-1.454.845-2.537 2.351-2.537 1.151 0 1.842.632 2.005 1.522h-.816c-.153-.488-.527-.813-1.189-.813-1.094 0-1.535.852-1.535 1.81 0 .967.449 1.85 1.535 1.85.691 0 1.094-.336 1.218-.874h.816zM158.35 20.068h.815V15.24h-.815v4.828zm-3.933-.709h1.218c.844 0 1.122-.345 1.122-.91 0-.576-.278-.91-1.122-.91h-1.218v1.82zm0-4.119v1.61h1.333c1.18 0 1.823.604 1.823 1.6 0 1.005-.643 1.618-1.823 1.618h-2.149V15.24h.816zm-40.533 16.32v-4.828h.797v3.736h.21l2.121-3.736h1.19v4.828h-.797v-3.735h-.211l-2.159 3.735h-1.151zm11.321-1.954v-.441h-1.449c-.797 0-1.161.345-1.161.92 0 .547.403.89 1.121.89.808 0 1.489-.603 1.489-1.37zm.028 1.445h-.211c-.297.375-.816.633-1.506.633-1.114 0-1.738-.746-1.738-1.57 0-.776.51-1.6 1.853-1.6h1.574v-.191c0-.585-.336-1.005-1.181-1.005-.72 0-1.084.277-1.122.698h-.816c.067-.891.834-1.408 1.919-1.408 1.219 0 1.995.585 1.995 1.666v3.285h-.767v-.508zm5.717.509v-4.118h-2.638v4.118h-.815v-4.828h4.268v4.828h-.815zm5.843 0v-4.118h-2.639v4.118h-.815v-4.828h4.269v4.828h-.815zm5.439-1.954v-.441h-1.449c-.796 0-1.161.345-1.161.92 0 .547.403.89 1.123.89.806 0 1.487-.603 1.487-1.37zm.029 1.445h-.211c-.297.375-.815.633-1.506.633-1.113 0-1.737-.746-1.737-1.57 0-.776.509-1.6 1.852-1.6h1.573v-.191c0-.585-.335-1.005-1.18-1.005-.719 0-1.084.277-1.122.698h-.816c.067-.891.834-1.408 1.919-1.408 1.218 0 1.995.585 1.995 1.666v3.285h-.767v-.508zm3.07-1.905c0 .948.441 1.829 1.516 1.829.969 0 1.486-.756 1.486-1.829s-.517-1.828-1.486-1.828c-1.075 0-1.516.88-1.516 1.828zm-.019-2.414v.518h.211c.268-.335.738-.642 1.506-.642 1.333 0 2.12 1.11 2.12 2.538 0 1.456-.787 2.538-2.12 2.538-.768 0-1.219-.297-1.477-.642h-.211v2.433h-.816v-6.743h.787zm8.163 2.874v-.441h-1.448c-.796 0-1.161.345-1.161.92 0 .547.403.89 1.122.89.807 0 1.488-.603 1.488-1.37h-.001zm.03 1.445h-.211c-.298.375-.817.633-1.506.633-1.114 0-1.738-.746-1.738-1.57 0-.776.509-1.6 1.852-1.6h1.573v-.191c0-.585-.335-1.005-1.18-1.005-.719 0-1.083.277-1.121.698h-.817c.067-.891.835-1.408 1.92-1.408 1.218 0 1.995.585 1.995 1.666v3.285h-.767v-.508zm1.707-4.319h4.163v.71h-1.669v4.118h-.816v-4.118h-1.678v-.71zm9.738 4.828h.814v-4.828h-.814v4.828zm-3.934-.709h1.218c.845 0 1.123-.344 1.123-.91 0-.575-.278-.91-1.123-.91h-1.218v1.82zm0-4.119v1.61h1.333c1.18 0 1.823.603 1.823 1.6 0 1.005-.643 1.618-1.823 1.618H160.2v-4.828h.816z" fill="#fff"/><mask id="cb" maskUnits="userSpaceOnUse" x="0" y="3" width="37" height="37"><path d="M.051 21.317c0 9.976 8.102 18.065 18.096 18.065s18.096-8.089 18.096-18.065c0-9.977-8.103-18.066-18.096-18.066C8.153 3.252.051 11.341.051 21.318v-.001zm10.347 0c0-4.271 3.47-7.735 7.749-7.735 4.28 0 7.748 3.464 7.748 7.736 0 4.271-3.469 7.734-7.748 7.734-4.28 0-7.749-3.463-7.749-7.734" fill="#fff"/></mask><g mask="url(#cb)"><path d="M18.473-8.028s-1.871 4.406-2.883 5.625c-.993 1.306-3.97 3.13-4.964 4.436-.837 1.18-1.473 4.138-2.31 5.318C7.546 8.427 5 9.704 4.228 10.78c-1.06 1.41-1.864 4.858-2.925 6.269-.82 1.27-3.591 2.776-4.496 4.064-.77 1.075-1.358 3.839-2.126 4.914-.615.952-3.323 3.172-3.323 3.172" stroke="#fff" stroke-width="1.5"/></g><mask id="cc" maskUnits="userSpaceOnUse" x="0" y="3" width="37" height="37"><path d="M.051 21.317c0 9.976 8.102 18.065 18.096 18.065s18.096-8.089 18.096-18.065c0-9.977-8.103-18.066-18.096-18.066C8.153 3.252.051 11.341.051 21.318v-.001zm10.347 0c0-4.271 3.47-7.735 7.749-7.735 4.28 0 7.748 3.464 7.748 7.736 0 4.271-3.469 7.734-7.748 7.734-4.28 0-7.749-3.463-7.749-7.734" fill="#fff"/></mask><g mask="url(#cc)"><path d="M20.987-6.078s-1.872 4.405-2.883 5.624c-.994 1.306-3.97 3.13-4.961 4.444-.839 1.181-1.474 4.137-2.312 5.32-.77 1.074-3.319 2.351-4.088 3.427-1.061 1.412-1.864 4.859-2.926 6.27-.829 1.262-3.599 2.777-4.506 4.057-.77 1.076-1.357 3.839-2.126 4.914-.614.952-3.323 3.173-3.323 3.173" stroke="#fff" stroke-width="1.5"/></g><mask id="cd" maskUnits="userSpaceOnUse" x="0" y="3" width="37" height="37"><path d="M.051 21.317c0 9.976 8.102 18.065 18.096 18.065s18.096-8.089 18.096-18.065c0-9.977-8.103-18.066-18.096-18.066C8.153 3.252.051 11.341.051 21.318v-.001zm10.347 0c0-4.271 3.47-7.735 7.749-7.735 4.28 0 7.748 3.464 7.748 7.736 0 4.271-3.469 7.734-7.748 7.734-4.28 0-7.749-3.463-7.749-7.734" fill="#fff"/></mask><g mask="url(#cd)"><path d="M23.5-4.129S21.63.277 20.618 1.496c-.993 1.306-3.97 3.13-4.96 4.451-.837 1.181-1.473 4.139-2.312 5.32-.768 1.074-3.317 2.352-4.087 3.428-1.06 1.411-1.864 4.858-2.926 6.27-.838 1.255-3.606 2.778-4.515 4.05-.77 1.076-1.358 3.839-2.126 4.914-.614.951-3.324 3.173-3.324 3.173" stroke="#fff" stroke-width="1.5"/></g><mask id="ce" maskUnits="userSpaceOnUse" x="0" y="3" width="37" height="37"><path d="M.051 21.317c0 9.976 8.102 18.065 18.096 18.065s18.096-8.089 18.096-18.065c0-9.977-8.103-18.066-18.096-18.066C8.153 3.252.051 11.341.051 21.318v-.001zm10.347 0c0-4.271 3.47-7.735 7.749-7.735 4.28 0 7.748 3.464 7.748 7.736 0 4.271-3.469 7.734-7.748 7.734-4.28 0-7.749-3.463-7.749-7.734" fill="#fff"/></mask><g mask="url(#ce)"><path d="M26.014-2.179s-1.871 4.405-2.883 5.625c-.994 1.305-3.97 3.13-4.959 4.458-.838 1.182-1.473 4.14-2.311 5.32-.77 1.076-3.318 2.352-4.087 3.428-1.06 1.412-1.865 4.859-2.926 6.27-.848 1.25-3.614 2.78-4.526 4.044-.769 1.075-1.355 3.84-2.126 4.915-.613.95-3.322 3.172-3.322 3.172" stroke="#fff" stroke-width="1.5"/><mask id="cf" maskUnits="userSpaceOnUse" x="0" y="3" width="37" height="37"><path d="M.051 21.317c0 9.976 8.102 18.065 18.096 18.065s18.096-8.089 18.096-18.065c0-9.977-8.103-18.066-18.096-18.066C8.153 3.252.051 11.341.051 21.318v-.001zm10.347 0c0-4.271 3.47-7.735 7.749-7.735 4.28 0 7.748 3.464 7.748 7.736 0 4.271-3.469 7.734-7.748 7.734-4.28 0-7.749-3.463-7.749-7.734" fill="#fff"/></mask><g mask="url(#cf)"><path d="M28.527-.23s-1.872 4.406-2.883 5.625c-.993 1.306-3.97 3.13-4.955 4.467-.839 1.181-1.475 4.138-2.312 5.32-.77 1.075-3.319 2.352-4.088 3.428-1.062 1.41-1.864 4.859-2.926 6.27-.858 1.242-3.622 2.781-4.535 4.037-.77 1.076-1.356 3.84-2.126 4.915-.614.95-3.323 3.172-3.323 3.172" stroke="#fff" stroke-width="1.5"/></g><mask id="cg" maskUnits="userSpaceOnUse" x="0" y="3" width="37" height="37"><path d="M.051 21.317c0 9.976 8.102 18.065 18.096 18.065s18.096-8.089 18.096-18.065c0-9.977-8.103-18.066-18.096-18.066C8.153 3.252.051 11.341.051 21.318v-.001zm10.347 0c0-4.271 3.47-7.735 7.749-7.735 4.28 0 7.748 3.464 7.748 7.736 0 4.271-3.469 7.734-7.748 7.734-4.28 0-7.749-3.463-7.749-7.734" fill="#fff"/></mask><g mask="url(#cg)"><path d="M31.041 1.72s-1.872 4.406-2.883 5.624c-.994 1.307-3.97 3.13-4.956 4.476-.836 1.18-1.472 4.138-2.31 5.319-.77 1.076-3.318 2.352-4.088 3.428-1.061 1.412-1.864 4.86-2.925 6.27-.867 1.236-3.631 2.784-4.545 4.03-.77 1.077-1.356 3.84-2.127 4.916-.614.95-3.322 3.173-3.322 3.173" stroke="#fff" stroke-width="1.5"/></g><mask id="ch" maskUnits="userSpaceOnUse" x="0" y="3" width="37" height="37"><path d="M.051 21.317c0 9.976 8.102 18.065 18.096 18.065s18.096-8.089 18.096-18.065c0-9.977-8.103-18.066-18.096-18.066C8.153 3.252.051 11.341.051 21.318v-.001zm10.347 0c0-4.271 3.47-7.735 7.749-7.735 4.28 0 7.748 3.464 7.748 7.736 0 4.271-3.469 7.734-7.748 7.734-4.28 0-7.749-3.463-7.749-7.734" fill="#fff"/></mask><g mask="url(#ch)"><path d="M33.555 3.67s-1.872 4.405-2.884 5.625c-.993 1.305-3.97 3.129-4.952 4.482-.839 1.181-1.474 4.139-2.312 5.32-.77 1.074-3.318 2.352-4.087 3.428-1.063 1.41-1.865 4.858-2.927 6.27-.875 1.23-3.638 2.785-4.555 4.024-.768 1.076-1.356 3.84-2.126 4.915-.613.952-3.322 3.173-3.322 3.173" stroke="#fff" stroke-width="1.5"/></g><mask id="ci" maskUnits="userSpaceOnUse" x="0" y="3" width="37" height="37"><path d="M.051 21.317c0 9.976 8.102 18.065 18.096 18.065s18.096-8.089 18.096-18.065c0-9.977-8.103-18.066-18.096-18.066C8.153 3.252.051 11.341.051 21.318v-.001zm10.347 0c0-4.271 3.47-7.735 7.749-7.735 4.28 0 7.748 3.464 7.748 7.736 0 4.271-3.469 7.734-7.748 7.734-4.28 0-7.749-3.463-7.749-7.734" fill="#fff"/></mask><g mask="url(#ci)"><path d="M36.068 5.62s-1.871 4.405-2.883 5.624c-.994 1.305-3.97 3.13-4.951 4.49-.839 1.182-1.474 4.139-2.312 5.32-.77 1.075-3.318 2.353-4.088 3.429-1.06 1.41-1.864 4.858-2.926 6.269-.886 1.224-3.645 2.788-4.563 4.019-.77 1.075-1.357 3.84-2.126 4.916-.614.95-3.322 3.171-3.322 3.171" stroke="#fff" stroke-width="1.5"/></g><mask id="cj" maskUnits="userSpaceOnUse" x="0" y="3" width="37" height="37"><path d="M.051 21.317c0 9.976 8.102 18.065 18.096 18.065s18.096-8.089 18.096-18.065c0-9.977-8.103-18.066-18.096-18.066C8.153 3.252.051 11.341.051 21.318v-.001zm10.347 0c0-4.271 3.47-7.735 7.749-7.735 4.28 0 7.748 3.464 7.748 7.736 0 4.271-3.469 7.734-7.748 7.734-4.28 0-7.749-3.463-7.749-7.734" fill="#fff"/></mask><g mask="url(#cj)"><path d="M38.582 7.569s-1.872 4.405-2.883 5.625c-.994 1.305-3.97 3.13-4.95 4.497-.838 1.183-1.473 4.14-2.311 5.32-.77 1.076-3.318 2.353-4.088 3.428-1.062 1.41-1.864 4.859-2.925 6.27-.898 1.22-3.656 2.79-4.575 4.013-.769 1.076-1.356 3.84-2.126 4.916-.613.95-3.322 3.171-3.322 3.171" stroke="#fff" stroke-width="1.5"/></g><mask id="ck" maskUnits="userSpaceOnUse" x="0" y="3" width="37" height="37"><path d="M.051 21.317c0 9.976 8.102 18.065 18.096 18.065s18.096-8.089 18.096-18.065c0-9.977-8.103-18.066-18.096-18.066C8.153 3.252.051 11.341.051 21.318v-.001zm10.347 0c0-4.271 3.47-7.735 7.749-7.735 4.28 0 7.748 3.464 7.748 7.736 0 4.271-3.469 7.734-7.748 7.734-4.28 0-7.749-3.463-7.749-7.734" fill="#fff"/></mask><g mask="url(#ck)"><path d="M41.095 9.518s-1.87 4.405-2.883 5.625c-.994 1.305-3.97 3.13-4.947 4.506-.838 1.181-1.474 4.138-2.312 5.32-.769 1.075-3.318 2.352-4.087 3.428-1.062 1.411-1.865 4.858-2.926 6.27-.907 1.212-3.663 2.791-4.583 4.006-.77 1.076-1.358 3.84-2.127 4.915-.614.952-3.323 3.173-3.323 3.173" stroke="#fff" stroke-width="1.5"/></g><mask id="cl" maskUnits="userSpaceOnUse" x="0" y="3" width="37" height="37"><path d="M.051 21.317c0 9.976 8.102 18.065 18.096 18.065s18.096-8.089 18.096-18.065c0-9.977-8.103-18.066-18.096-18.066C8.153 3.252.051 11.341.051 21.318v-.001zm10.347 0c0-4.271 3.47-7.735 7.749-7.735 4.28 0 7.748 3.464 7.748 7.736 0 4.271-3.469 7.734-7.748 7.734-4.28 0-7.749-3.463-7.749-7.734" fill="#fff"/></mask><g mask="url(#cl)"><path d="M43.608 11.467s-1.87 4.406-2.883 5.625c-.993 1.306-3.97 3.13-4.945 4.515-.838 1.18-1.475 4.138-2.312 5.319-.77 1.075-3.318 2.352-4.088 3.428-1.061 1.412-1.864 4.858-2.926 6.27-.915 1.206-3.67 2.791-4.593 4-.768 1.076-1.356 3.84-2.126 4.916-.613.95-3.322 3.173-3.322 3.173" stroke="#fff" stroke-width="1.5"/></g><mask id="cm" maskUnits="userSpaceOnUse" x="0" y="3" width="37" height="37"><path d="M.051 21.317c0 9.976 8.102 18.065 18.096 18.065s18.096-8.089 18.096-18.065c0-9.977-8.103-18.066-18.096-18.066C8.153 3.252.051 11.341.051 21.318v-.001zm10.347 0c0-4.271 3.47-7.735 7.749-7.735 4.28 0 7.748 3.464 7.748 7.736 0 4.271-3.469 7.734-7.748 7.734-4.28 0-7.749-3.463-7.749-7.734" fill="#fff"/></mask><g mask="url(#cm)"><path d="M46.122 13.418s-1.871 4.405-2.883 5.625c-.993 1.304-3.97 3.13-4.944 4.521-.838 1.181-1.474 4.139-2.312 5.32-.77 1.075-3.318 2.352-4.087 3.428-1.062 1.41-1.865 4.859-2.926 6.27-.924 1.2-3.678 2.794-4.602 3.994-.77 1.075-1.356 3.84-2.127 4.915-.614.952-3.322 3.173-3.322 3.173" stroke="#fff" stroke-width="1.5"/></g></g></g></svg>