<?xml version="1.0" encoding="utf-8"?><svg width="112" height="80" fill="none" xmlns="http://www.w3.org/2000/svg" viewBox="0 0 112 80"><path fill-rule="evenodd" clip-rule="evenodd" d="M0 80h112V0H0v80z" fill="#C0DF3D"/><path fill-rule="evenodd" clip-rule="evenodd" d="M85.818 67.714h-2.38v-9.05h2.38V62.1l2.995-3.435h2.972l-3.247 3.505 3.385 5.545h-2.891l-2.23-3.88-.984 1.023v2.857zm-4.514 0h-2.379v-5.445l-3.215 5.445h-2.55v-9.05h2.38v5.444l3.214-5.444h2.55v9.05zm-10.28 0h-2.378v-3.572H65.26v3.572h-2.38v-9.05h2.38v3.571h3.386v-3.57h2.378v9.049zm-14.517 0V60.57h-2.704v-1.906h7.792v1.906h-2.708v7.144h-2.38zm-3.61-3.302a4.372 4.372 0 01-.24 1.024c-.13.38-.35.764-.656 1.151-.305.388-.728.712-1.266.974-.539.259-1.195.39-1.97.39-.807 0-1.485-.138-2.037-.411-.55-.275-.98-.633-1.293-1.076a4.274 4.274 0 01-.661-1.445 6.412 6.412 0 01-.197-1.575c0-1.003.153-1.88.456-2.631.304-.752.778-1.337 1.426-1.757.648-.42 1.467-.628 2.46-.628.567 0 1.14.1 1.72.304.58.204 1.087.564 1.52 1.082.433.517.685 1.212.754 2.081H50.5c-.175-.974-.702-1.462-1.581-1.462-.464 0-.837.132-1.121.395a2.139 2.139 0 00-.598.986 4.427 4.427 0 00-.173 1.24c0 .49.033.94.1 1.351.068.41.236.78.51 1.104.272.323.681.485 1.227.485.363 0 .667-.093.911-.283.246-.187.425-.406.538-.66.114-.251.171-.464.171-.639h2.412zm-12.19-1.105c-.259.202-.8.367-1.62.494-.339.059-.624.13-.854.22a1.25 1.25 0 00-.553.402c-.14.179-.207.426-.207.738 0 .373.114.647.344.823.23.176.485.264.765.264.356 0 .699-.074 1.025-.221.327-.146.591-.355.796-.626a1.52 1.52 0 00.304-.936v-1.158zm2.33 2.636c0 .493.046.836.136 1.027.09.194.22.321.393.385v.359h-2.572c-.11-.342-.185-.7-.22-1.076a5.308 5.308 0 01-1.217.953c-.425.24-.996.36-1.71.36-.479 0-.929-.095-1.349-.282a2.345 2.345 0 01-1.017-.877c-.259-.396-.388-.889-.388-1.478 0-.567.112-1.057.336-1.466.225-.41.532-.73.922-.962.39-.231.851-.385 1.379-.462l2.143-.324c.556-.075.834-.312.834-.713 0-.44-.149-.725-.447-.857-.3-.131-.673-.196-1.119-.196-.526 0-.888.118-1.089.357-.2.239-.327.538-.376.902h-2.293c.086-.872.324-1.538.713-2 .39-.464.86-.773 1.412-.93.552-.158 1.192-.235 1.92-.235.538 0 1.076.07 1.616.21.54.142 1.007.409 1.403.8.394.39.59.925.59 1.606v4.9zm-10.022 1.77h-2.379v-3.727c-.238.138-.615.312-1.129.52a4.12 4.12 0 01-1.556.313c-.952 0-1.703-.252-2.254-.755-.551-.504-.826-1.305-.826-2.408v-2.992h2.38v2.925c0 .815.517 1.224 1.548 1.224.32 0 .66-.07 1.027-.21.365-.14.635-.256.81-.35v-3.589h2.379v9.05zm-14.702.188c-.726 0-1.288-.063-1.687-.187v-2.177c.3.137.589.204.869.204.531 0 .918-.232 1.158-.698l.05-.104-5.105-9.44h3.044l3.286 6.823 2.483-6.823h2.925l-4.407 10.17a3.897 3.897 0 01-.803 1.227 3.884 3.884 0 01-.998.753c-.333.168-.605.252-.815.252zm14.329-37.784l-8.91-2.167c-1.517-.354-3.884-.96-3.884-3.826 0-3.275 3.476-4.384 6.398-4.384 6.647 0 7.253 3.88 7.451 5.54h4.241v6.817c-1.555-.91-3.392-1.5-5.296-1.98zm-4.839 21.806c1.913 0 6.618-.335 10.135-2.902v1.948h7.097l.008-8.567 2.962-3.068 6.452 11.635h8.515l-9.774-16.623 9.52-10.477H54l-8.958 10.28V14.401h-7.105v3.125c-2.162-2.323-5.668-4.079-11.136-4.079-11.836 0-14.058 7.201-14.058 11.23 0 5.538 2.978 8.616 8.164 9.873l7.352 1.812c3.878.956 6.651 1.663 6.651 4.531 0 3.829-4.033 4.735-7.66 4.735-6.647 0-7.755-3.877-7.755-5.942h-7.304c0 4.534 2.316 12.237 15.611 12.237z" fill="#656867"/></svg>