<?xml version="1.0" encoding="utf-8"?><svg width="144" height="144" fill="none" xmlns="http://www.w3.org/2000/svg" viewBox="0 0 144 144"><path d="M61.478 82.138h5.066v.734h-2.106v4.7h-.868v-4.7h-2.092v-.734zM67.353 82.138h4.22v.778h-3.352v1.469h2.996v.734H68.22v1.704h3.462v.735h-4.33v-5.42zM75.043 84.275l1.458-2.123h1.02l-1.894 2.622 2.092 2.842h-1.05l-1.64-2.291-1.64 2.291h-.999l2.041-2.82-1.931-2.644h1.02l1.523 2.123zM83.338 82.138v5.464h-.867v-2.527h-3.069v2.527h-.838v-5.464h.867v2.137h3.07v-2.167l.837.03zM89.119 82.894a2.84 2.84 0 01.78 1.976 2.796 2.796 0 01-.824 2.034 2.904 2.904 0 01-2.04.8 2.846 2.846 0 01-2.064-.822 2.828 2.828 0 01-.816-2.012 2.765 2.765 0 01.867-2.057 2.984 2.984 0 014.09.074l.007.007zm-3.52 3.452a2.09 2.09 0 002.85 0 2.212 2.212 0 000-3.026 1.922 1.922 0 00-1.4-.536 1.875 1.875 0 00-1.458.587 2.03 2.03 0 00-.561 1.47 2.064 2.064 0 00.568 1.505zM91.685 87.602h-.868v-5.465h4.826v5.465h-.868v-4.686h-3.09v4.686zM101.452 82.894a2.84 2.84 0 01.78 1.976 2.794 2.794 0 01-.824 2.034 2.903 2.903 0 01-2.04.8 2.846 2.846 0 01-2.064-.822 2.827 2.827 0 01-.816-2.012 2.765 2.765 0 01.867-2.057 2.984 2.984 0 014.09.074l.007.007zm-3.52 3.452a2.09 2.09 0 002.849 0 2.21 2.21 0 00.597-1.513 2.21 2.21 0 00-.597-1.513 1.917 1.917 0 00-1.4-.536 1.875 1.875 0 00-1.457.587 2.03 2.03 0 00-.561 1.47 2.064 2.064 0 00.568 1.505zM108.035 82.138v5.464h-.868v-4.686h-2.186l-.496 3.533c-.023.34-.178.658-.432.883-.254.226-.586.341-.924.321a2.12 2.12 0 01-.816-.132l.182-.734c.146.045.299.068.452.066a.66.66 0 00.481-.155.849.849 0 00.226-.536l.561-4.054 3.82.03zM109.959 86.324l3.273-4.186h.816v5.464h-.824v-4.187l-3.287 4.187h-.816v-5.465h.838v4.187zM116.388 86.324a2.028 2.028 0 001.458.587 2.23 2.23 0 001.64-.646l.517.58a2.912 2.912 0 01-2.187.852 2.813 2.813 0 01-2.048-.822 2.85 2.85 0 010-4.025 2.864 2.864 0 012.085-.778 2.896 2.896 0 012.187.851l-.518.58a2.18 2.18 0 00-1.64-.646 1.902 1.902 0 00-1.451.569 1.926 1.926 0 00-.431.674 1.961 1.961 0 00-.123.792 2.074 2.074 0 00.511 1.432zM91.684 98.493a6.913 6.913 0 01-1.103 3.845 6.836 6.836 0 01-3.042 2.574 6.778 6.778 0 01-3.95.43 6.8 6.8 0 01-3.517-1.859 6.888 6.888 0 01-1.894-3.518 6.922 6.922 0 01.372-3.985 6.864 6.864 0 012.511-3.1 6.786 6.786 0 013.8-1.166 6.72 6.72 0 012.599.499 6.761 6.761 0 012.21 1.464 6.857 6.857 0 012.015 4.816zm-11.203 0c.021.867.296 1.707.79 2.417a4.35 4.35 0 006.713.55 4.437 4.437 0 00.9-4.788 4.399 4.399 0 00-1.612-1.96 4.35 4.35 0 00-5.55.594 4.41 4.41 0 00-1.241 3.187zM103.253 94.814a6.983 6.983 0 00-3.208-.837 4.468 4.468 0 00-3.052 1.384 4.535 4.535 0 00-1.25 3.129c0 1.166.448 2.287 1.25 3.128a4.47 4.47 0 003.052 1.385 6.604 6.604 0 003.302-.882l1.094 1.836a7.306 7.306 0 01-4.425 1.322 6.703 6.703 0 01-4.757-1.985 6.805 6.805 0 01-1.97-4.793c0-1.798.708-3.523 1.97-4.794a6.702 6.702 0 014.757-1.985 7.322 7.322 0 014.425 1.315l-1.188 1.777zM108.72 91.994l.095.095v4.67h.561l4.22-4.677.183-.096h2.383l.095.096-5.103 5.574 5.438 7.241-.095.096h-2.383l-.182-.088-4.585-5.978h-.562v5.978l-.094.095h-1.954l-.087-.088V92.089l.087-.095h1.983zM124.041 91.994c2.501 0 4.221 1.3 4.221 3.415a2.507 2.507 0 01-1.181 2.203 3.49 3.49 0 011.727 1.302c.424.607.646 1.334.635 2.076 0 2.38-1.844 3.995-4.301 3.995h-6.269l-.087-.088V92.089l.087-.095h5.168zm-3.112 5.016h3.112c1.232 0 1.786-.463 1.786-1.47 0-.888-.554-1.358-1.786-1.358h-3.112v2.828zm0 5.816h4.148c.252.036.509.014.752-.063a1.726 1.726 0 001.08-1.008c.095-.238.136-.494.121-.75a1.754 1.754 0 00-1.206-1.75 1.725 1.725 0 00-.747-.071h-4.148v3.642zM138.219 91.994l.095.095L144 104.905l-.095.095h-2.267l-.095-.088-1.202-2.82h-6.247l-1.276 2.82-.095.096h-2.259l-.095-.089 5.707-12.815.095-.096 2.048-.014zm-3.345 7.924h4.694l-2.384-5.009-2.31 5.009zM63.913 91.994l.182.095 4.935 5.273 4.913-5.273.19-.095h1.917l.094.095v12.816l-.094.095h-1.976l-.087-.088v-9.62l-4.898 5.14h-.183l-4.847-5.14v9.62l-.088.096h-1.96l-.088-.089v-12.83l.088-.095h1.902zM65.35 113.402a2.53 2.53 0 011.13.228c.29.141.54.353.728.616.189.275.32.584.386.911.076.365.113.737.11 1.109a6.763 6.763 0 01-.204 1.689c-.12.495-.326.964-.605 1.388a3.02 3.02 0 01-.977.918 2.631 2.631 0 01-1.356.346 3.026 3.026 0 01-1.122-.184 1.84 1.84 0 01-.73-.544 2.2 2.2 0 01-.422-.866 4.566 4.566 0 01-.131-1.153 7.9 7.9 0 01.167-1.631 4.56 4.56 0 01.554-1.468 3.11 3.11 0 01.999-1.029c.45-.246.96-.36 1.472-.33zm0 .477a2.097 2.097 0 00-1.276.375c-.342.25-.621.577-.817.955-.21.405-.355.841-.43 1.292-.08.458-.122.923-.124 1.388-.04.599.113 1.194.438 1.697a1.669 1.669 0 001.414.573c.414.012.822-.107 1.166-.338.327-.231.597-.535.787-.889.214-.39.366-.811.452-1.248.097-.467.146-.942.146-1.418 0-.298-.024-.595-.073-.889a2.215 2.215 0 00-.262-.734 1.468 1.468 0 00-.54-.536 1.73 1.73 0 00-.882-.235v.007zM70.312 120.173c.246.003.49-.024.73-.081.247-.067.49-.15.728-.249l.131.36a3.519 3.519 0 01-.78.301c-.299.081-.608.123-.918.125a2.11 2.11 0 01-.802-.133 1.28 1.28 0 01-.525-.382 1.57 1.57 0 01-.291-.587 2.884 2.884 0 01-.095-.734c.005-.338.037-.674.095-1.007.06-.379.18-.746.357-1.087.172-.344.422-.643.729-.874a2.108 2.108 0 011.275-.352c.47-.014.936.098 1.349.323l-.182.382a2.416 2.416 0 00-.73-.213 4.824 4.824 0 00-.51 0 1.454 1.454 0 00-.809.22c-.239.154-.44.36-.59.603a2.84 2.84 0 00-.357.896 4.88 4.88 0 00-.03 1.035c-.001.19.018.38.059.566.035.165.102.323.197.462.095.134.223.24.372.309.188.084.392.124.597.117zM75.167 115.443c.283-.01.565.045.824.162.212.104.397.258.539.448.143.19.244.407.299.639.057.241.086.487.087.734-.002.353-.039.705-.109 1.051a3.344 3.344 0 01-.379 1.028 2.328 2.328 0 01-.729.786 2.02 2.02 0 01-1.152.308 1.993 1.993 0 01-.845-.154 1.4 1.4 0 01-.532-.426 1.601 1.601 0 01-.285-.617 3.337 3.337 0 01-.08-.734c.003-.373.044-.745.124-1.109.076-.368.211-.72.401-1.043.183-.309.432-.573.729-.771.331-.21.717-.315 1.108-.302zm0 .478a1.33 1.33 0 00-.882.286 2.099 2.099 0 00-.554.735c-.138.29-.233.6-.284.918a5.656 5.656 0 00-.08.91c0 .183.02.365.058.544.035.166.102.323.197.463.095.139.226.25.379.323.19.085.397.125.605.117.318.014.631-.088.882-.286.231-.2.413-.452.532-.735.127-.28.215-.576.262-.881.045-.274.07-.552.073-.83 0-.194-.017-.389-.051-.58a1.382 1.382 0 00-.19-.499 1.08 1.08 0 00-.371-.353 1.142 1.142 0 00-.583-.14l.007.008zM80.372 115.524c.228-.007.455.038.663.133.178.084.333.21.452.367.126.173.215.371.263.58.059.24.088.487.087.734-.003.351-.04.7-.11 1.043a3.569 3.569 0 01-.386 1.065c-.18.327-.428.61-.728.83a1.902 1.902 0 01-1.152.338c-.282.01-.563-.04-.824-.147a1.412 1.412 0 01-.532-.397 1.472 1.472 0 01-.27-.543 2.777 2.777 0 01-.08-.676v-.58c0-.215.022-.443.066-.683 0-.235.058-.477.102-.734.044-.257.08-.463.124-.676.044-.213.145-.632.24-.925.088-.284.205-.557.35-.816a2.74 2.74 0 01.489-.639c.191-.182.42-.319.67-.403.133-.046.27-.078.408-.096l.503-.059.547-.058c.185 0 .364-.027.54-.081l.08.433c-.287.054-.53.091-.73.11l-.539.052a2.087 2.087 0 00-.772.183c-.219.108-.41.263-.562.456a2.653 2.653 0 00-.408.771 8.221 8.221 0 00-.299 1.145c.129-.106.265-.202.409-.286.15-.089.306-.17.466-.242.153-.069.312-.126.474-.169.151-.03.305-.04.459-.03zm-.102.456a1.544 1.544 0 00-.437.066c-.16.048-.317.109-.467.183a3.878 3.878 0 00-.867.581c0 .11-.044.257-.073.44-.03.184-.051.382-.073.58-.022.199-.037.39-.051.566-.015.176 0 .308 0 .397-.002.184.015.369.05.55.032.161.096.314.19.448a.89.89 0 00.387.301c.201.08.417.118.634.111.261-.001.516-.083.729-.235a1.93 1.93 0 00.546-.632c.153-.281.264-.583.329-.896.073-.345.11-.697.109-1.05 0-.183-.02-.365-.058-.544a1.338 1.338 0 00-.183-.448.887.887 0 00-.32-.301.93.93 0 00-.452-.117h.007zM85.022 115.466c.218 0 .435.022.649.066.214.045.424.109.627.191l.08-.25h.408c0 .117-.027.289-.08.514l-.102.779-.117.925-.116.94-.102.837c-.03.255-.051.458-.066.61h.627l.044.352a2.036 2.036 0 01-.43.14c-.105.009-.21.009-.314 0a.481.481 0 01-.335-.096.37.37 0 01-.102-.286v-.132a1.739 1.739 0 010-.235 4.004 4.004 0 01-.904.573 2.133 2.133 0 01-.868.198 1.26 1.26 0 01-.984-.441 1.941 1.941 0 01-.393-1.322c.002-.401.051-.8.146-1.189.088-.387.238-.757.444-1.095a2.47 2.47 0 01.773-.793 1.999 1.999 0 011.115-.286zm0 .477a1.446 1.446 0 00-.729.191 1.813 1.813 0 00-.59.558 3.029 3.029 0 00-.408.889 4.224 4.224 0 00-.154 1.182c-.034.38.067.76.285 1.072a.88.88 0 00.678.316c.3-.004.593-.084.853-.235.287-.158.558-.345.809-.558l.43-3.165a2.931 2.931 0 00-1.195-.257l.021.007zM88.689 118.124a1.11 1.11 0 01-.86-1.131c-.007-.238.04-.474.138-.69.092-.19.227-.356.394-.485.183-.136.39-.233.612-.287.255-.064.517-.096.78-.095h.386l.423.044.423.081c.133.029.264.066.393.11 0 .073 0 .242-.058.492l-.11.874c-.038.333-.082.688-.13 1.065-.049.377-.09.732-.124 1.065l-.11.874c0 .25-.05.418-.058.499h-.561l.54-4.516a1.5 1.5 0 00-.256-.067l-.299-.044H89.665a1.984 1.984 0 00-.466.059c-.149.035-.29.097-.416.184a1.01 1.01 0 00-.298.338c-.083.155-.123.33-.117.506a.82.82 0 00.102.426.817.817 0 00.292.287c.148.083.308.145.473.183.216.052.436.089.656.11l-.05.426a4.22 4.22 0 00-.504 0 1.114 1.114 0 00-.386.081.857.857 0 00-.299.221 1.552 1.552 0 00-.248.403l-.612 1.469h-.59l.729-1.652c.076-.177.18-.34.306-.485a.97.97 0 01.444-.279l.008-.066zM62.892 132.313a2.856 2.856 0 01-.78-.103 2.387 2.387 0 01-.605-.257l.175-.382c.208.094.426.166.649.213.194.039.392.059.59.059a1.615 1.615 0 001.305-.595c.16-.194.283-.415.365-.653.09-.267.152-.543.182-.823h-2.056l.051-.441 2.034.052a.653.653 0 000-.125v-.118a1.772 1.772 0 00-.335-1.16 1.248 1.248 0 00-1.013-.404 3.345 3.345 0 00-.59.059c-.25.049-.494.12-.73.213l-.146-.367c.252-.114.513-.205.78-.272.256-.064.517-.096.78-.096.272-.006.543.044.795.147.217.093.412.234.568.412.156.183.27.399.336.631.075.263.112.535.11.808a5.594 5.594 0 01-.11 1.065 3.24 3.24 0 01-.387 1.036c-.179.315-.428.584-.728.785a2.164 2.164 0 01-1.24.316zM66.683 127.209h.554c-.04.372-.083.734-.132 1.087-.048.352-.094.712-.138 1.079H68.3a.864.864 0 00.277-.08.835.835 0 00.27-.221c.1-.132.184-.278.247-.433l.11-.25.197-.455.196-.448.11-.257h.539l-.525 1.219c-.102.24-.219.473-.35.698a1.105 1.105 0 01-.54.477c.1.022.195.064.278.125a.727.727 0 01.182.213c.048.09.085.187.11.286 0 .111.05.221.08.346l.35 1.659h-.525c-.054-.259-.107-.521-.16-.786a24.363 24.363 0 01-.146-.785 1.09 1.09 0 00-.343-.691.95.95 0 00-.569-.176h-1.188l-.145 1.219c-.05.411-.1.818-.154 1.219h-.539l.62-5.045zM73.046 127.128c.283-.01.565.045.824.162.212.104.397.258.54.448.142.19.244.407.298.639.057.24.086.487.088.734-.003.353-.04.705-.11 1.05a3.35 3.35 0 01-.379 1.029 2.325 2.325 0 01-.729.785 2.012 2.012 0 01-1.151.309 1.993 1.993 0 01-.846-.154 1.402 1.402 0 01-.532-.426 1.607 1.607 0 01-.284-.617 3.346 3.346 0 01-.08-.735c.002-.373.043-.744.123-1.109.076-.367.211-.72.401-1.043.183-.308.432-.571.73-.771.33-.21.716-.314 1.107-.301zm0 .478a1.324 1.324 0 00-.882.286c-.236.2-.425.451-.554.734-.138.291-.233.6-.284.918a5.657 5.657 0 00-.08.911c0 .183.02.365.058.544.035.165.102.323.197.462.096.14.227.251.379.323.193.086.402.126.612.118.319.014.632-.087.882-.286.232-.2.414-.452.532-.735.128-.28.216-.577.263-.881.045-.275.07-.552.073-.83a3.27 3.27 0 00-.051-.58 1.389 1.389 0 00-.19-.5 1.067 1.067 0 00-.372-.352 1.128 1.128 0 00-.583-.132zM78.651 132.24l.307-2.453h-2.58l-.3 2.453h-.554l.605-5.009h.562l-.27 2.122h2.558l.27-2.122h.562l-.613 5.009h-.546zM82.836 127.128c.283-.011.565.045.823.162.213.104.398.258.54.448.143.189.244.407.299.638.057.241.086.488.087.735-.002.353-.039.704-.11 1.05a3.335 3.335 0 01-.378 1.028 2.318 2.318 0 01-.73.786 2.02 2.02 0 01-1.15.309c-.29.01-.579-.042-.846-.155a1.393 1.393 0 01-.54-.426 1.6 1.6 0 01-.284-.617 3.295 3.295 0 01-.08-.734c.002-.373.043-.745.124-1.109.076-.367.211-.72.4-1.043.183-.308.433-.572.73-.771a1.946 1.946 0 011.115-.301zm0 .477a1.33 1.33 0 00-.882.287 2.1 2.1 0 00-.554.734c-.139.291-.234.6-.284.918a5.59 5.59 0 00-.08.911c0 .183.019.365.058.543.034.166.1.324.197.463.095.14.226.251.379.323.19.085.397.125.605.118a1.33 1.33 0 00.882-.287c.231-.2.413-.451.532-.734.127-.28.215-.577.262-.881.045-.275.07-.552.073-.83a3.3 3.3 0 00-.051-.581 1.384 1.384 0 00-.19-.499 1.067 1.067 0 00-.371-.352 1.133 1.133 0 00-.576-.133zM86.539 127.973l-.182.955-.686 3.312h-.546l1.108-5.031h.612l.729 2.938.277 1.101h.044l.48-1.05 1.459-2.996h.626l-.043 5.03h-.51l.072-3.224v-1.05l-.48.97-1.459 2.856h-.56l-.73-2.864-.167-.947h-.044zM92.413 127.216l-.408 3.621a.62.62 0 000 .154v.154a.74.74 0 00.175.544c.163.129.37.19.576.169a2.91 2.91 0 001.771-.911l.438-3.731h.561c0 .157-.027.367-.08.632-.054.264-.09.556-.11.874-.038.318-.08.648-.123.991l-.117.999c-.039.318-.075.612-.11.881-.033.27-.058.483-.072.639h-.54l.102-.734c-.313.267-.661.49-1.035.661a2.226 2.226 0 01-.853.198 1.54 1.54 0 01-.546-.081.783.783 0 01-.518-.565 1.59 1.59 0 01-.05-.411v-.147-.147l.415-3.76.525-.03zM96.962 127.216l-.197 1.763c-.045.249-.012.505.095.734a.665.665 0 00.62.25 2.744 2.744 0 001.793-.734l.233-2.013h.554c0 .172-.027.392-.08.661-.054.269-.09.561-.11.874-.038.318-.075.644-.109.977-.034.333-.07.658-.11.977-.038.318-.075.609-.109.874l-.08.661h-.554c.054-.431.105-.857.153-1.278.049-.421.107-.833.175-1.234-.314.249-.67.44-1.05.565a3.059 3.059 0 01-.852.155 1.456 1.456 0 01-.664-.125.791.791 0 01-.342-.323 1.013 1.013 0 01-.11-.456 4.205 4.205 0 010-.536l.197-1.784.547-.008zM103.202 127.113c.203-.006.406.026.597.096.153.059.292.149.409.264.107.108.189.238.24.382a1.427 1.427 0 01-.182 1.278c-.196.24-.446.429-.729.551a4.051 4.051 0 01-1.042.323c-.422.075-.848.124-1.276.147a1.588 1.588 0 000 .169v.139c0 .163.017.326.051.485.032.16.093.312.182.448.095.14.223.253.372.331.19.094.401.14.612.132.246-.002.49-.031.729-.088.251-.064.495-.153.729-.265l.131.36a2.842 2.842 0 01-.78.309 3.98 3.98 0 01-.954.11 1.925 1.925 0 01-.824-.154 1.314 1.314 0 01-.51-.419 1.582 1.582 0 01-.263-.61 3.684 3.684 0 01-.073-.734c.003-.356.042-.71.117-1.058.077-.375.215-.735.408-1.065a2.49 2.49 0 01.773-.815 2.177 2.177 0 011.283-.316zm-.088.478a1.481 1.481 0 00-.729.169 1.722 1.722 0 00-.546.462c-.16.209-.286.442-.372.691a3.772 3.772 0 00-.197.859 5.395 5.395 0 001.983-.389 1.07 1.07 0 00.729-.999.818.818 0 00-.197-.58.855.855 0 00-.671-.199v-.014zM106.941 131.858c.245.002.49-.025.729-.081.248-.067.492-.15.729-.25l.131.36a3.422 3.422 0 01-.78.301 3.515 3.515 0 01-.918.125 2.133 2.133 0 01-.795-.132 1.293 1.293 0 01-.525-.382 1.575 1.575 0 01-.291-.588 2.881 2.881 0 01-.095-.734c.005-.337.037-.674.095-1.006.06-.379.181-.746.357-1.087.172-.344.422-.644.729-.874a2.109 2.109 0 011.275-.353 2.66 2.66 0 011.349.324l-.182.382a2.424 2.424 0 00-.729-.213c-.17-.01-.34-.01-.51 0a1.448 1.448 0 00-.81.22c-.239.154-.44.359-.59.602-.169.276-.29.579-.357.896-.08.359-.119.726-.117 1.094-.001.19.018.38.059.566.034.166.101.323.196.463a.958.958 0 00.372.308c.218.077.451.097.678.059zM109.995 127.209h.554c-.039.372-.08.734-.124 1.087l-.138 1.079h1.348a.864.864 0 00.277-.08.814.814 0 00.27-.221c.101-.132.185-.278.248-.433l.109-.25.197-.455.197-.448.109-.257h.51l-.525 1.219a6.4 6.4 0 01-.349.698 1.106 1.106 0 01-.54.477c.1.022.194.064.277.125a.716.716 0 01.182.213c.049.09.085.187.11.286 0 .111.058.221.08.346l.35 1.659h-.54l-.16-.786a26.786 26.786 0 01-.146-.785 1.088 1.088 0 00-.342-.691.951.951 0 00-.569-.176h-1.174c-.048.397-.097.803-.145 1.219-.049.416-.1.823-.153 1.219h-.54l.627-5.045zM116.468 127.15c.218 0 .436.022.649.066.214.045.424.109.627.191l.08-.25h.408c0 .118-.026.289-.08.515l-.102.778-.116.925-.117.94-.102.838c-.029.254-.051.457-.066.609h.627l.044.353a2.037 2.037 0 01-.43.139 1.83 1.83 0 01-.314 0 .476.476 0 01-.335-.095.368.368 0 01-.102-.287v-.132a1.843 1.843 0 010-.235 3.95 3.95 0 01-.904.573 2.117 2.117 0 01-.867.198 1.274 1.274 0 01-.984-.44 1.939 1.939 0 01-.394-1.322c.002-.401.051-.801.146-1.19.088-.387.239-.756.445-1.094.194-.32.458-.591.772-.793a2 2 0 011.115-.287zm0 .477a1.464 1.464 0 00-.728.191c-.237.139-.439.33-.591.559a3.022 3.022 0 00-.408.888 4.219 4.219 0 00-.153 1.183c-.035.38.066.76.284 1.072a.869.869 0 00.678.316c.3-.004.593-.085.853-.235.287-.159.558-.346.809-.558l.43-3.166a2.927 2.927 0 00-.62-.198 2.941 2.941 0 00-.554-.074v.022zM120.113 129.809a1.119 1.119 0 01-.86-1.131c-.007-.238.04-.474.138-.691.093-.19.227-.356.394-.484.183-.136.391-.234.612-.287.255-.064.517-.097.78-.095h.387l.422.044.423.081c.133.029.265.066.394.11 0 .073 0 .242-.058.492l-.11.874c-.039.333-.082.688-.131 1.065s-.09.732-.124 1.065l-.109.874c0 .249-.051.418-.059.499h-.554l.54-4.517a1.592 1.592 0 00-.255-.066l-.299-.044H121.097a1.977 1.977 0 00-.466.059c-.149.035-.29.097-.416.184a1.03 1.03 0 00-.299.337 1.006 1.006 0 00-.116.507.812.812 0 00.102.426.814.814 0 00.291.286c.149.084.308.146.474.184.216.052.435.088.656.11l-.051.426a4.22 4.22 0 00-.503 0 1.115 1.115 0 00-.386.081.846.846 0 00-.299.22 1.569 1.569 0 00-.248.404l-.612 1.469h-.569l.729-1.652c.077-.177.18-.34.306-.485a.976.976 0 01.423-.345zM63.038 143.998a4.694 4.694 0 01-.853-.081 3.019 3.019 0 01-.729-.235l.153-.389c.223.093.455.16.693.198.24.043.484.065.729.066.2.001.398-.026.59-.081.183-.051.355-.133.51-.242.15-.106.275-.244.365-.404.095-.173.143-.368.138-.565a.739.739 0 00-.364-.669c-.12-.07-.25-.12-.386-.147-.15-.03-.3-.045-.452-.044h-.627v-.198a1.392 1.392 0 010-.198h.532c.172 0 .344-.022.51-.066.154-.041.3-.108.43-.199a1.06 1.06 0 00.3-.308.74.74 0 00.109-.404.607.607 0 00-.321-.558 1.643 1.643 0 00-.817-.184 3.887 3.887 0 00-1.45.331c0-.066-.051-.133-.073-.199l-.058-.191a3.99 3.99 0 01.867-.308c.27-.065.546-.1.824-.103.396-.015.788.084 1.13.287a.924.924 0 01.444.844c0 .266-.087.524-.248.735-.183.24-.439.415-.729.499.256.059.49.192.671.382.18.201.273.464.262.734.009.256-.049.509-.167.735-.113.21-.27.393-.46.536a2.08 2.08 0 01-.677.338 3.01 3.01 0 01-.846.088zM68.41 138.805c.284-.01.565.045.824.162.212.105.397.258.54.448.142.19.244.407.298.639.057.241.087.487.088.734-.003.353-.04.705-.11 1.051a3.344 3.344 0 01-.379 1.028 2.328 2.328 0 01-.729.786 2.02 2.02 0 01-1.151.308 1.993 1.993 0 01-.846-.154 1.402 1.402 0 01-.532-.426 1.606 1.606 0 01-.284-.617 3.337 3.337 0 01-.08-.734c.002-.373.043-.745.123-1.109.076-.368.211-.72.401-1.043.184-.309.433-.572.73-.771.33-.21.716-.315 1.107-.302zm0 .478a1.33 1.33 0 00-.882.286 2.108 2.108 0 00-.554.735c-.138.29-.233.599-.284.918a5.633 5.633 0 00-.08.91c0 .183.02.365.058.544.035.166.102.323.197.463a.97.97 0 00.379.323c.192.085.402.126.612.117.319.014.632-.088.882-.286.232-.2.414-.452.532-.735.127-.28.216-.577.263-.881.045-.274.07-.552.073-.83 0-.194-.017-.389-.051-.58a1.382 1.382 0 00-.19-.499 1.08 1.08 0 00-.371-.353 1.138 1.138 0 00-.584-.132zM74.015 143.924l.306-2.453h-2.58l-.299 2.453h-.554l.605-5.008h.562l-.263 2.122h2.559l.27-2.122h.56l-.612 5.008h-.554zM78.308 138.827c.218 0 .436.022.65.067.213.045.423.108.626.19l.08-.249h.409c0 .117-.027.289-.08.514l-.103.778-.116.926-.117.94-.102.837c-.03.255-.051.458-.066.61h.627l.044.352a2.097 2.097 0 01-.43.14c-.104.009-.21.009-.314 0a.48.48 0 01-.335-.096.378.378 0 01-.102-.286v-.132a1.739 1.739 0 010-.235 3.968 3.968 0 01-.904.572 2.134 2.134 0 01-.867.199 1.275 1.275 0 01-.984-.441 1.941 1.941 0 01-.394-1.322c.003-.401.052-.8.146-1.19.088-.386.239-.756.445-1.094a2.47 2.47 0 01.772-.793 2 2 0 011.115-.287zm0 .478a1.446 1.446 0 00-.728.191 1.803 1.803 0 00-.59.558 3.026 3.026 0 00-.409.889 4.214 4.214 0 00-.153 1.182c-.035.38.066.76.284 1.072a.879.879 0 00.678.316c.3-.004.593-.085.853-.235.287-.159.558-.346.809-.558l.43-3.166a2.994 2.994 0 00-.62-.198 2.854 2.854 0 00-.568-.051h.014zM14.805 42.163a.246.246 0 01-.182-.11L6.167 28.65a.266.266 0 010-.125.258.258 0 010-.066v-.044L21.015 7.116a.218.218 0 01.175-.095L45.405 4.26h.11a.263.263 0 01.116.088.222.222 0 010 .169l-.044.08-30.615 37.42a.241.241 0 01-.167.146zM6.692 28.598l8.135 12.919L44.356 5.442 6.692 28.598zM21.35 7.425l-14.142 20.3L44.385 4.861 21.35 7.425z" fill="#fff"/><path d="M28.996 75.807a.239.239 0 01-.218-.147l-7.8-17.163-16.467-9.82a.242.242 0 01-.087-.33.24.24 0 01.328-.059l15.905 9.482-6.072-15.761a.236.236 0 01.058-.265.247.247 0 01.27 0l27.16 13.778a.242.242 0 01.124.257.243.243 0 01-.204.198L21.977 58.46l33.99 15.893a.242.242 0 01.054.398.232.232 0 01-.142.057l-26.883.999zm-7.384-16.995l7.552 16.503 25.746-.955-33.298-15.548zm-6.363-16.4l6.035 15.651 19.878-2.467-25.913-13.183z" fill="#fff"/><path d="M4.629 48.707a.252.252 0 01-.124 0 .241.241 0 01-.11-.228L6.13 28.496a.242.242 0 01.256-.184.24.24 0 01.218.227L4.942 48.002l9.768-6.287a.24.24 0 01.397.15.245.245 0 01-.142.254L4.76 48.663a.232.232 0 01-.131.044zM55.901 74.808a.247.247 0 01-.19-.096l-13.936-18.83a.24.24 0 01.047-.334.235.235 0 01.332.047L56.09 74.434a.236.236 0 01-.044.33.247.247 0 01-.146.045z" fill="#fff"/><path d="M55.901 74.808a.247.247 0 01-.19-.096l-13.936-18.83a.244.244 0 010-.235L55.449 22.37 14.906 42.134a.234.234 0 01-.323-.291.236.236 0 01.12-.135l41.089-20.043a.246.246 0 01.16 0h.037c.042.02.075.054.095.096L71.61 55.632a.25.25 0 010 .25L56.084 74.727a.219.219 0 01-.183.081zM42.234 55.713l13.682 18.478 15.198-18.493-15.198-33.225-13.682 33.24zM72.732 34.496a.232.232 0 01-.226-.177l-4.534-16.73a.384.384 0 010-.066.243.243 0 01.183-.227.23.23 0 01.244.086.234.234 0 01.04.082l4.541 16.73a.56.56 0 010 .067.243.243 0 01-.175.235h-.073z" fill="#fff"/><path d="M71.384 55.978h-.058c-.059 0-.11 0-.131-.33-.066-1.014.167-5.002 1.297-21.24L55.763 22.077a.25.25 0 01-.066-.074L45.23 4.62a.237.237 0 01.024-.3.233.233 0 01.297-.03l22.764 13.028a.243.243 0 01-.233.418L46.112 5.163l9.972 16.554 16.765 12.346a.25.25 0 01.095.212c-.54 8.138-1.363 20.41-1.327 21.357a.251.251 0 01-.093.305.247.247 0 01-.14.04z" fill="#fff"/><path d="M55.902 74.808a.24.24 0 01-.233-.242V21.849a.243.243 0 01.16-.22l12.29-4.334a.24.24 0 01.361.232.245.245 0 01-.104.177.239.239 0 01-.097.04l-12.144 4.31v52.519a.236.236 0 01-.233.235z" fill="#fff"/><path d="M55.77 75.675a1.39 1.39 0 001.386-1.396c0-.77-.62-1.395-1.385-1.395a1.39 1.39 0 00-1.385 1.395c0 .77.62 1.396 1.385 1.396zM29.012 76.953a1.39 1.39 0 001.385-1.396c0-.77-.62-1.395-1.385-1.395a1.39 1.39 0 00-1.385 1.395c0 .77.62 1.396 1.385 1.396zM71.18 57.035c.76 0 1.378-.621 1.378-1.388 0-.767-.617-1.388-1.378-1.388-.76 0-1.378.621-1.378 1.388 0 .767.617 1.388 1.378 1.388zM73.877 34.268a1.395 1.395 0 01-.862 1.273 1.368 1.368 0 01-1.498-.314 1.392 1.392 0 01.224-2.132 1.37 1.37 0 012.036.64c.068.169.102.35.1.533zM67.994 19.095A1.39 1.39 0 0069.38 17.7c0-.771-.62-1.396-1.385-1.396A1.39 1.39 0 0066.61 17.7c0 .77.62 1.395 1.385 1.395zM57.36 22.157a1.403 1.403 0 01-.849 1.294 1.376 1.376 0 01-1.51-.294 1.4 1.4 0 01-.309-1.52c.103-.255.28-.474.507-.628a1.378 1.378 0 011.3-.138 1.379 1.379 0 01.754.752c.07.17.106.351.106.534zM45.39 5.875a1.39 1.39 0 001.386-1.395c0-.77-.62-1.395-1.385-1.395a1.39 1.39 0 00-1.385 1.395c0 .77.62 1.395 1.385 1.395zM22.75 7.425c0 .276-.081.546-.234.776a1.387 1.387 0 01-1.424.592 1.382 1.382 0 01-.709-.384 1.399 1.399 0 01-.295-1.523 1.377 1.377 0 012.26-.445c.257.261.402.615.402.984zM6.43 30.163a1.39 1.39 0 001.384-1.396c0-.77-.62-1.395-1.385-1.395a1.39 1.39 0 00-1.385 1.395c0 .77.62 1.396 1.385 1.396zM14.724 43.228a1.39 1.39 0 001.385-1.395c0-.771-.62-1.396-1.385-1.396a1.39 1.39 0 00-1.385 1.396c0 .77.62 1.395 1.385 1.395zM4.848 49.904c.76 0 1.377-.622 1.377-1.388 0-.767-.616-1.388-1.377-1.388s-1.378.621-1.378 1.388c0 .767.617 1.388 1.378 1.388zM22.75 58.467a1.403 1.403 0 01-.835 1.31 1.375 1.375 0 01-1.519-.283 1.398 1.398 0 01-.313-1.524c.104-.257.281-.477.51-.631a1.377 1.377 0 011.741.16 1.4 1.4 0 01.416.968zM41.6 57.16a1.39 1.39 0 001.385-1.395c0-.771-.62-1.396-1.385-1.396a1.39 1.39 0 00-1.385 1.395c0 .771.62 1.396 1.385 1.396z" fill="#fff"/><path d="M44.304 81.05a.217.217 0 01-.204-.124.244.244 0 01.088-.33l23.646-12.978 8.441-29.494-8.353-23.818a.251.251 0 01.145-.308.233.233 0 01.3.147l8.382 23.861c.017.048.017.1 0 .147l-8.485 29.693a.235.235 0 01-.116.147L44.42 81.02a.225.225 0 01-.117.03z" fill="#fff"/><path d="M67.827 45.35a.243.243 0 01-.233-.235l.32-30.897a.243.243 0 01.237-.284.238.238 0 01.184.087.243.243 0 01.053.197l-.32 30.905a.235.235 0 01-.241.227zM11.24 69.586a.24.24 0 01-.217-.175.243.243 0 01.094-.265l6.677-4.01-9.528-31.823a.222.222 0 010-.095l2.428-20.483-9.25 23.068a.241.241 0 01-.295.093.241.241 0 01-.143-.276l9.906-24.728a.242.242 0 01.277-.14.233.233 0 01.175.257L8.74 33.225l9.564 31.955a.236.236 0 01-.102.272l-6.838 4.098a.232.232 0 01-.123.036z" fill="#fff"/><path d="M44.304 81.05h-.08L11.16 69.587a.241.241 0 01-.122-.295.242.242 0 01.275-.16l32.896 11.398 8.245-11.912a.228.228 0 01.175-.103l15.169-1.373-.168-21.79-27.97-3.981a.232.232 0 01-.203-.206c0-.08-1.079-8.593-2.092-16.994-2.078-17.208-1.968-17.244-1.699-17.333a.232.232 0 01.3.147.267.267 0 010 .162c-.088 1.22 2.784 24.574 3.935 33.783l27.962 3.966a.24.24 0 01.204.235l.204 22.253a.243.243 0 01-.211.242l-15.308 1.381-8.28 11.971a.247.247 0 01-.168.074z" fill="#fff"/><path d="M67.827 45.35a.243.243 0 01-.233-.235l.32-30.897a.243.243 0 01.237-.284.238.238 0 01.184.087.243.243 0 01.053.197l-.32 30.905a.235.235 0 01-.241.227zM11.13 11.222a.24.24 0 01-.16-.417.234.234 0 01.08-.046L38.99.786a.231.231 0 01.299.147.238.238 0 01-.066.255.232.232 0 01-.08.046L11.211 11.2l-.08.022zM11.24 69.586a.24.24 0 01-.24-.22L8.237 33.453a.222.222 0 01.073-.184L35.557 6.89a.24.24 0 01.309.033.244.244 0 01.02.312L8.717 33.512l2.785 35.802a.243.243 0 01-.219.258l-.044.014z" fill="#fff"/><path d="M1.224 35.957a.232.232 0 01-.248-.197.236.236 0 01.175-.265l7.29-2.475a.239.239 0 01.288.328.235.235 0 01-.136.12l-7.296 2.474-.073.015zM68.148 14.46h-.051L35.696 7.294a.24.24 0 01-.139-.133.251.251 0 010-.212L38.89.896A.24.24 0 0139.202.8a.242.242 0 01.095.324l-3.193 5.772 32.073 7.095a.234.234 0 01.208.26.233.233 0 01-.259.21h.022z" fill="#fff"/><path d="M67.827 45.35a.246.246 0 01-.197-.073L35.558 7.212a.24.24 0 01.029-.338.237.237 0 01.335.03l32.073 38.065a.236.236 0 010 .33.21.21 0 01-.168.051z" fill="#fff"/><path d="M52.658 68.992a.246.246 0 01-.211-.11c-.219-.324-11.663-24.854-12.975-27.652a.237.237 0 01.11-.315.24.24 0 01.313.11c4.103 8.732 11.699 24.948 12.814 27.313 1.4-1.866 9.476-14.689 14.914-23.34a.24.24 0 01.41.09.244.244 0 01-.009.167C53.19 68.985 52.818 68.991 52.658 68.991z" fill="#fff"/><path d="M18.063 65.466a.254.254 0 01-.16-.059.243.243 0 010-.337l21.35-23.803L8.44 33.475a.241.241 0 01-.175-.294.236.236 0 01.12-.161.231.231 0 01.2-.008L39.785 40.9a.24.24 0 01.172.282.236.236 0 01-.056.107L18.252 65.393a.233.233 0 01-.19.073z" fill="#fff"/><path d="M44.304 81.05a.208.208 0 01-.116 0L17.946 65.466a.233.233 0 01-.11-.236.236.236 0 01.265-.199c.03.005.06.015.086.031L44.428 80.64a.234.234 0 01.114.243.236.236 0 01-.033.088.233.233 0 01-.205.08z" fill="#fff"/><path d="M52.65 68.984l-34.587-3.518a.23.23 0 01-.176-.091.235.235 0 01-.043-.195.24.24 0 01.255-.213l34.573 3.518a.232.232 0 01.205.17c.008.03.01.063.006.094a.243.243 0 01-.233.235zM68.147 14.46a.247.247 0 01-.102 0L38.975 1.242a.25.25 0 01-.109-.338.25.25 0 01.336-.11l29.077 13.22a.234.234 0 01.148.269.235.235 0 01-.243.186l-.037-.007zM11.131 11.222a.24.24 0 01-.199-.239.243.243 0 01.2-.238l24.571-3.922a.24.24 0 01.266.2.244.244 0 01-.185.277l-24.616 3.915-.037.007zM11.24 69.586a.24.24 0 01-.226-.168L.999 35.803a.243.243 0 01.168-.258.239.239 0 01.283.118l10.052 33.6a.236.236 0 01-.16.294l-.102.03zM67.826 45.35a.245.245 0 01-.182-.088.243.243 0 010-.337l8.733-6.992a.24.24 0 01.335 0 .243.243 0 010 .338l-8.74 7.043a.217.217 0 01-.145.036zM39.755 42.596a1.39 1.39 0 001.385-1.395c0-.77-.62-1.395-1.385-1.395A1.39 1.39 0 0038.37 41.2c0 .77.62 1.395 1.385 1.395z" fill="#fff"/><path d="M35.805 8.674a1.39 1.39 0 001.385-1.396c0-.77-.62-1.395-1.385-1.395a1.39 1.39 0 00-1.385 1.395c0 .77.62 1.396 1.385 1.396zM40.23 1.395a1.403 1.403 0 01-.856 1.29 1.375 1.375 0 01-1.509-.303 1.398 1.398 0 01-.3-1.52 1.378 1.378 0 012.259-.453 1.4 1.4 0 01.405.986zM11.437 12.397c.764 0 1.384-.622 1.384-1.388 0-.767-.62-1.388-1.384-1.388-.765 0-1.385.621-1.385 1.388 0 .766.62 1.388 1.385 1.388zM1.385 37.14a1.39 1.39 0 001.385-1.396c0-.77-.62-1.395-1.385-1.395A1.39 1.39 0 000 35.744c0 .77.62 1.396 1.385 1.396zM9.855 33.423A1.395 1.395 0 019 34.701a1.367 1.367 0 01-1.5-.306 1.391 1.391 0 01-.295-1.512c.105-.253.281-.47.508-.622a1.37 1.37 0 01.765-.233c.366.002.716.15.974.411a1.4 1.4 0 01.403.984zM18.457 66.487a1.39 1.39 0 001.385-1.395c0-.771-.62-1.396-1.385-1.396a1.39 1.39 0 00-1.385 1.396c0 .77.62 1.395 1.385 1.395zM11.24 70.717c.765 0 1.385-.621 1.385-1.388 0-.766-.62-1.388-1.385-1.388-.764 0-1.385.622-1.385 1.388 0 .767.62 1.388 1.385 1.388zM52.657 70.049a1.39 1.39 0 001.385-1.395c0-.771-.62-1.396-1.385-1.396a1.39 1.39 0 00-1.384 1.396c0 .77.62 1.395 1.384 1.395zM67.885 68.771c.76 0 1.378-.621 1.378-1.388 0-.767-.617-1.388-1.378-1.388-.76 0-1.378.621-1.378 1.388 0 .767.617 1.388 1.378 1.388zM69.161 45.086a1.402 1.402 0 01-.852 1.295 1.375 1.375 0 01-1.512-.3 1.398 1.398 0 01-.3-1.525c.107-.255.285-.473.514-.626a1.378 1.378 0 011.744.177 1.4 1.4 0 01.406.98zM77.638 38.293a1.403 1.403 0 01-.856 1.29 1.375 1.375 0 01-1.51-.306 1.4 1.4 0 01.217-2.148 1.379 1.379 0 011.746.18c.258.261.403.615.403.984zM67.885 15.797a1.39 1.39 0 001.385-1.395c0-.77-.62-1.395-1.385-1.395a1.39 1.39 0 00-1.385 1.395c0 .77.62 1.396 1.385 1.396zM44.305 82.211a1.39 1.39 0 001.385-1.395c0-.771-.62-1.396-1.385-1.396a1.39 1.39 0 00-1.385 1.396c0 .77.62 1.395 1.385 1.395z" fill="#fff"/></svg>