<?xml version="1.0" encoding="utf-8"?><svg viewBox="0 0 166 144" xmlns="http://www.w3.org/2000/svg" xmlns:xlink="http://www.w3.org/1999/xlink"><style>:root>svg{display:none}:root>svg:target{display:block}</style><svg fill="none" viewBox="0 0 100 18" id="logo-background" xmlns="http://www.w3.org/2000/svg"><g opacity=".795"><path opacity=".795" fill-rule="evenodd" clip-rule="evenodd" d="M5.227 11.67c1.33 0 2.412-1.312 2.412-2.817 0-1.561-1.081-2.816-2.412-2.816S2.816 7.292 2.816 8.853c0 1.505 1.08 2.817 2.41 2.817h.001zM2.816 0v5.44c1.003-1.1 2.276-1.447 3.163-1.447 2.489 0 4.475 2.238 4.475 4.86 0 2.644-2.006 4.861-4.475 4.861-.887 0-2.16-.346-3.163-1.447v1.236H0V0h2.816zM16.42 10.474c0-.752-.656-1.234-1.273-1.234a1.21 1.21 0 00-1.234 1.195c0 .599.463 1.235 1.234 1.235.713 0 1.273-.501 1.273-1.196zm-4.456-5.979a7.447 7.447 0 012.759-.502c2.41 0 4.513.887 4.513 3.8v5.71H16.42v-.81c-.617.636-1.466 1.022-2.218 1.022-1.562 0-3.105-1.428-3.105-3.203 0-1.833 1.408-3.318 3.124-3.318.81 0 1.543.271 2.2.888.057-2.006-1.737-2.025-2.257-2.025-.887 0-1.485.116-2.2.386V4.495zm14.908 2.006c-.502-.29-.984-.463-1.524-.463-1.544 0-2.527 1.06-2.527 2.893 0 1.466.733 2.74 2.45 2.74a3.49 3.49 0 001.601-.386l1.1 1.659c-.83.405-1.95.77-2.991.77-1.736 0-4.976-1.002-4.976-4.763 0-2.817 1.755-4.958 4.976-4.958 1.505 0 2.431.52 2.99.868L26.872 6.5v.001zm1.758-2.317h2.816v4.053l2.566-4.032h2.932L33.78 8.16l3.491 5.342h-2.913l-1.986-3.586-.926 1.079v2.507H28.63V4.184zm19.874.021h2.814V5.69c.618-1.427 1.931-1.679 2.644-1.697v2.141c-1.292.038-2.218.83-2.644 1.813v5.556h-2.814V4.205zm10.283 7.465c1.331 0 2.392-1.293 2.392-2.817 0-1.58-1.06-2.816-2.392-2.816-1.35 0-2.412 1.255-2.412 2.816 0 1.505 1.043 2.817 2.412 2.817zm0-7.677c2.816 0 5.208 2.161 5.208 4.86 0 2.701-2.392 4.861-5.208 4.861-2.854 0-5.226-2.18-5.226-4.86 0-2.682 2.372-4.86 5.226-4.86v-.001zm14.353 9.51h-2.816v-1.1c-.521.772-1.332 1.311-2.508 1.311-2.912 0-3.01-2.584-3.01-3.915V4.204h2.818V9.51c0 .81.038 2.16 1.292 2.16 1.06 0 1.408-.675 1.408-1.774V4.204h2.815v9.299h.001zm1.602-9.298h2.814v1.12c.832-1.236 2.123-1.332 2.489-1.332 1.487 0 3.03.772 3.03 3.936v5.574h-2.816V8.217c0-1.64-.367-2.18-1.293-2.18-1.39 0-1.41.966-1.41 2.489v4.977h-2.814V4.205zm14.372 1.832c-1.333 0-2.413 1.255-2.413 2.816 0 1.505 1.08 2.817 2.413 2.817 1.33 0 2.41-1.312 2.41-2.817 0-1.561-1.08-2.816-2.41-2.816zm2.41 6.23c-1.003 1.1-2.275 1.447-3.163 1.447-2.468 0-4.475-2.217-4.475-4.86 0-2.623 1.986-4.86 4.475-4.86.888 0 2.16.346 3.163 1.446V0h2.816v13.503h-2.816v-1.236z" fill="#9E9E9E"/><mask id="aa" maskUnits="userSpaceOnUse" x="0" y="0" width="100" height="18"><path opacity=".795" d="M0 18h99.707V0H0v18z" fill="#fff"/></mask><g mask="url(#aa)"><path fill-rule="evenodd" clip-rule="evenodd" d="M95.766 13.514h3.94v-2.59h-3.94v2.59zM41.73 11.67c-1.33 0-2.411-1.312-2.411-2.817 0-1.56 1.08-2.816 2.412-2.816 1.33 0 2.41 1.255 2.41 2.816 0 1.505-1.08 2.817-2.41 2.817h-.001zm5.227-7.465h-2.815V5.44c-1.004-1.1-2.276-1.447-3.164-1.447-2.488 0-4.474 2.238-4.474 4.86 0 2.644 2.006 4.861 4.474 4.861.888 0 2.16-.346 3.164-1.447 0 0 .002.605 0 .807l-.002.087c0 1.482-.86 2.596-2.548 2.596-.986 0-2.147-.227-2.992-.977l-1.288 1.828C38.49 17.5 40.286 18 41.817 18c3.115 0 5.144-1.59 5.144-5.073l-.004-8.722z" fill="#9E9E9E"/></g></g></svg><svg fill="none" viewBox="0 0 166 40" id="logo_desktop" xmlns="http://www.w3.org/2000/svg"><mask id="ba" maskUnits="userSpaceOnUse" x="0" y="0" width="166" height="40"><path d="M0 0h166v40H0V0z" fill="#fff"/></mask><g mask="url(#ba)"><path fill-rule="evenodd" clip-rule="evenodd" d="M76.09 21.05v-5.772s-.089-.089-.355-.178c-1.068-.355-2.136-.533-3.203-.444-1.601.09-2.847.8-3.559 2.22-.533 1.065-.711 2.31-.8 3.464-.09 1.598 0 3.196.534 4.796.444 1.332 1.335 2.309 2.758 2.575 1.512.355 2.935 0 4.27-.711.266-.177.356-.266.356-.266V21.05h-.001zm5.871 10.568c-1.6.09-3.38.267-5.16.444-.087-.621-.266-1.154-.355-1.687-.89.356-1.69.799-2.491 1.155-2.401.887-4.804.8-7.028-.533-1.957-1.154-3.025-2.93-3.735-4.973-.89-3.02-.98-6.128 0-9.148 1.155-3.64 3.825-5.595 7.561-6.127a12.566 12.566 0 015.426.355V.447C78.047.27 79.826.181 81.606.003v25.044c-.09 2.664.178 4.529.356 6.571zm-30.156-3.73l.177-1.332c.089-.71.178-1.33.268-1.687.444-1.776 1.156-3.463 1.69-5.151.801-2.752 2.846-8.703 2.846-8.703h5.783c-.446 1.155-.8 2.22-1.247 3.286-2.223 5.684-6.849 17.407-6.849 17.407h-5.516S40.95 11.194 40.95 11.016c1.246-.089 6.05-.445 6.05-.445s2.046 6.749 3.025 9.858c.444 1.42.978 2.93 1.422 4.44.09.267.179.888.268 1.687l.089 1.332zM86.142.448C87.922.27 89.79.18 91.57.001V31.62h-5.428V.447zm19.571 10.479c-1.334 1.687-2.668 3.285-3.914 4.973-.801 1.066-1.69 2.131-2.49 3.196-.445.533-2.224 1.244-3.114 1.333.89 0 2.58.71 3.025 1.243 2.045 2.753 4.269 6.039 6.316 8.792v1.154h-5.604L92.638 20.34c2.223-2.931 4.802-6.482 6.938-9.413h6.137zm11.624 9.14V15.95h-2.638v4.119h-.815V15.24h4.269v4.828h-.816zm3.195-2.413c0 .948.442 1.83 1.516 1.83.969 0 1.487-.758 1.487-1.83 0-1.073-.518-1.828-1.487-1.828-1.074 0-1.516.88-1.516 1.829v-.001zm-.019-2.413v.517h.211c.268-.335.739-.642 1.507-.642 1.332 0 2.119 1.11 2.119 2.539 0 1.455-.787 2.537-2.119 2.537-.768 0-1.219-.297-1.478-.642h-.211v2.433h-.815V15.24h.786zm8.759 2.413c0-.948-.499-1.829-1.564-1.829-1.074 0-1.563.881-1.563 1.829s.489 1.83 1.563 1.83c1.065 0 1.564-.882 1.564-1.83zm.815 0c0 1.427-.872 2.538-2.379 2.538-1.516 0-2.379-1.11-2.379-2.538 0-1.427.863-2.538 2.379-2.538 1.507 0 2.379 1.11 2.379 2.539zm5.507-2.414v4.12h.882v2.078h-.786v-1.37h-4.327V15.24h.816v4.12h2.6v-4.12h.815zm2.494 1.725h2.792c-.048-.613-.518-1.14-1.333-1.14-.874 0-1.354.527-1.459 1.14zm3.636.68h-3.683c.028 1.149.546 1.838 1.543 1.838.682 0 1.085-.287 1.229-.747h.826c-.154.823-.855 1.456-2.055 1.456-1.505 0-2.35-1.101-2.35-2.585 0-1.486.864-2.491 2.332-2.491 1.439 0 2.129 1.064 2.158 2.251v.278zm5.353.966c-.181.949-.911 1.582-2.034 1.582-1.506 0-2.35-1.111-2.35-2.54 0-1.454.844-2.537 2.35-2.537 1.153 0 1.842.632 2.006 1.522h-.816c-.154-.488-.527-.813-1.19-.813-1.093 0-1.535.852-1.535 1.81 0 .967.451 1.85 1.535 1.85.692 0 1.095-.336 1.219-.874h.815zm5.306 0c-.183.949-.912 1.582-2.035 1.582-1.505 0-2.35-1.111-2.35-2.54 0-1.454.845-2.537 2.351-2.537 1.151 0 1.842.632 2.004 1.522h-.816c-.153-.488-.526-.813-1.188-.813-1.094 0-1.536.852-1.536 1.81 0 .967.45 1.85 1.535 1.85.691 0 1.094-.336 1.219-.874h.816z" fill="#212121"/><mask id="bb" maskUnits="userSpaceOnUse" x="-9" y="-9" width="175" height="61"><path d="M-8.995 51.09h174.76V-8.242H-8.995V51.09z" fill="#fff"/></mask><g mask="url(#bb)"><path fill-rule="evenodd" clip-rule="evenodd" d="M158.35 20.068h.815V15.24h-.815v4.828zm-3.933-.709h1.218c.844 0 1.122-.345 1.122-.91 0-.576-.278-.91-1.122-.91h-1.218v1.82zm0-4.119v1.61h1.333c1.181 0 1.823.604 1.823 1.6 0 1.005-.642 1.618-1.823 1.618h-2.149V15.24h.816zm-40.533 16.32v-4.828h.797v3.736h.211l2.12-3.736h1.19v4.828h-.797v-3.735h-.211l-2.158 3.735h-1.152zm11.321-1.954v-.441h-1.449c-.797 0-1.161.345-1.161.92 0 .547.403.89 1.122.89.807 0 1.488-.603 1.488-1.37zm.029 1.445h-.211c-.298.375-.816.633-1.507.633-1.113 0-1.737-.746-1.737-1.57 0-.776.509-1.6 1.852-1.6h1.574v-.191c0-.585-.336-1.005-1.181-1.005-.719 0-1.083.277-1.122.698h-.816c.067-.891.834-1.408 1.919-1.408 1.219 0 1.996.585 1.996 1.666v3.285h-.767v-.508zm5.716.509v-4.118h-2.638v4.118h-.815v-4.828h4.269v4.828h-.816zm5.843 0v-4.118h-2.639v4.118h-.815v-4.828h4.269v4.828h-.815zm5.44-1.954v-.441h-1.449c-.797 0-1.162.345-1.162.92 0 .547.404.89 1.123.89.806 0 1.488-.603 1.488-1.37zm.028 1.445h-.211c-.297.375-.815.633-1.506.633-1.113 0-1.737-.746-1.737-1.57 0-.776.509-1.6 1.852-1.6h1.574v-.191c0-.585-.336-1.005-1.18-1.005-.72 0-1.085.277-1.123.698h-.815c.067-.891.834-1.408 1.918-1.408 1.218 0 1.995.585 1.995 1.666v3.285h-.767v-.508zm3.07-1.905c0 .948.442 1.829 1.516 1.829.969 0 1.486-.756 1.486-1.829s-.517-1.828-1.486-1.828c-1.074 0-1.516.88-1.516 1.828zm-.019-2.414v.518h.211c.268-.335.739-.642 1.506-.642 1.333 0 2.12 1.11 2.12 2.538 0 1.456-.787 2.538-2.12 2.538-.767 0-1.219-.297-1.477-.642h-.211v2.433h-.816v-6.743h.787zm8.164 2.874v-.441h-1.449c-.796 0-1.161.345-1.161.92 0 .547.403.89 1.122.89.807 0 1.489-.603 1.489-1.37h-.001zm.029 1.445h-.211c-.297.375-.817.633-1.506.633-1.114 0-1.738-.746-1.738-1.57 0-.776.51-1.6 1.852-1.6h1.574v-.191c0-.585-.336-1.005-1.18-1.005-.72 0-1.084.277-1.122.698h-.816c.067-.891.834-1.408 1.919-1.408 1.218 0 1.995.585 1.995 1.666v3.285h-.767v-.508zm1.708-4.319h4.163v.71h-1.669v4.118h-.816v-4.118h-1.678v-.71zm9.737 4.828h.815v-4.828h-.815v4.828zm-3.934-.709h1.218c.845 0 1.123-.344 1.123-.91 0-.575-.278-.91-1.123-.91h-1.218v1.82zm0-4.119v1.61h1.333c1.181 0 1.823.603 1.823 1.6 0 1.005-.642 1.618-1.823 1.618h-2.148v-4.828h.815z" fill="#212121"/></g><mask id="bc" maskUnits="userSpaceOnUse" x="0" y="3" width="37" height="37"><path d="M.052 21.317c0 9.976 8.1 18.065 18.095 18.065 9.994 0 18.097-8.089 18.097-18.065 0-9.977-8.103-18.066-18.097-18.066C8.153 3.252.051 11.341.051 21.318v-.001zm10.346 0c0-4.271 3.47-7.735 7.75-7.735 4.278 0 7.747 3.464 7.747 7.736 0 4.271-3.469 7.734-7.748 7.734s-7.749-3.463-7.749-7.734z" fill="#fff"/></mask><g mask="url(#bc)"><path d="M18.474-8.028s-1.872 4.406-2.884 5.625c-.993 1.306-3.97 3.13-4.963 4.436-.838 1.18-1.474 4.138-2.31 5.318-.77 1.076-3.318 2.353-4.088 3.429-1.06 1.41-1.865 4.858-2.926 6.269-.82 1.27-3.59 2.776-4.496 4.064-.77 1.075-1.357 3.839-2.126 4.914-.614.952-3.323 3.172-3.323 3.172" stroke="#0061E5" stroke-width="1.5"/></g><mask id="bd" maskUnits="userSpaceOnUse" x="0" y="3" width="37" height="37"><path d="M.052 21.317c0 9.976 8.1 18.065 18.095 18.065 9.994 0 18.097-8.089 18.097-18.065 0-9.977-8.103-18.066-18.097-18.066C8.153 3.252.051 11.341.051 21.318v-.001zm10.346 0c0-4.271 3.47-7.735 7.75-7.735 4.278 0 7.747 3.464 7.747 7.736 0 4.271-3.469 7.734-7.748 7.734s-7.749-3.463-7.749-7.734z" fill="#fff"/></mask><g mask="url(#bd)"><path d="M20.987-6.078s-1.871 4.405-2.883 5.624c-.994 1.306-3.97 3.13-4.961 4.444-.838 1.181-1.474 4.137-2.312 5.32-.77 1.074-3.318 2.351-4.088 3.427-1.061 1.412-1.864 4.859-2.926 6.27C2.988 20.27.22 21.784-.688 23.064c-.77 1.076-1.358 3.839-2.126 4.914-.615.952-3.324 3.173-3.324 3.173" stroke="#1660DA" stroke-width="1.5"/></g><mask id="be" maskUnits="userSpaceOnUse" x="0" y="3" width="37" height="37"><path d="M.052 21.317c0 9.976 8.1 18.065 18.095 18.065 9.994 0 18.097-8.089 18.097-18.065 0-9.977-8.103-18.066-18.097-18.066C8.153 3.252.051 11.341.051 21.318v-.001zm10.346 0c0-4.271 3.47-7.735 7.75-7.735 4.278 0 7.747 3.464 7.747 7.736 0 4.271-3.469 7.734-7.748 7.734s-7.749-3.463-7.749-7.734z" fill="#fff"/></mask><g mask="url(#be)"><path d="M23.5-4.129S21.63.277 20.619 1.496c-.994 1.306-3.97 3.13-4.96 4.451-.838 1.181-1.473 4.139-2.313 5.32-.768 1.074-3.317 2.352-4.087 3.428-1.06 1.411-1.864 4.858-2.925 6.27-.839 1.255-3.607 2.778-4.516 4.05-.77 1.076-1.357 3.839-2.126 4.914-.614.951-3.323 3.173-3.323 3.173" stroke="#2C5ECF" stroke-width="1.5"/></g><mask id="bf" maskUnits="userSpaceOnUse" x="0" y="3" width="37" height="37"><path d="M.052 21.317c0 9.976 8.1 18.065 18.095 18.065 9.994 0 18.097-8.089 18.097-18.065 0-9.977-8.103-18.066-18.097-18.066C8.153 3.252.051 11.341.051 21.318v-.001zm10.346 0c0-4.271 3.47-7.735 7.75-7.735 4.278 0 7.747 3.464 7.747 7.736 0 4.271-3.469 7.734-7.748 7.734s-7.749-3.463-7.749-7.734z" fill="#fff"/></mask><g mask="url(#bf)"><path d="M26.014-2.179s-1.871 4.405-2.883 5.625c-.994 1.305-3.97 3.13-4.959 4.458-.838 1.182-1.473 4.14-2.311 5.32-.77 1.076-3.318 2.352-4.087 3.428-1.06 1.412-1.865 4.859-2.926 6.27-.848 1.25-3.614 2.78-4.526 4.044-.769 1.075-1.355 3.84-2.126 4.915-.613.95-3.322 3.172-3.322 3.172" stroke="#415DC4" stroke-width="1.5"/><mask id="bg" maskUnits="userSpaceOnUse" x="0" y="3" width="37" height="37"><path d="M.052 21.317c0 9.976 8.1 18.065 18.095 18.065 9.994 0 18.097-8.089 18.097-18.065 0-9.977-8.103-18.066-18.097-18.066C8.153 3.252.051 11.341.051 21.318v-.001zm10.346 0c0-4.271 3.47-7.735 7.75-7.735 4.278 0 7.747 3.464 7.747 7.736 0 4.271-3.469 7.734-7.748 7.734s-7.749-3.463-7.749-7.734z" fill="#fff"/></mask><g mask="url(#bg)"><path d="M28.527-.23s-1.871 4.406-2.883 5.625c-.993 1.306-3.97 3.13-4.955 4.467-.839 1.181-1.475 4.138-2.312 5.32-.77 1.075-3.319 2.352-4.088 3.428-1.062 1.41-1.864 4.859-2.926 6.27-.858 1.242-3.622 2.781-4.535 4.037-.77 1.076-1.356 3.84-2.126 4.915-.614.95-3.323 3.172-3.323 3.172" stroke="#575CB9" stroke-width="1.5"/></g><mask id="bh" maskUnits="userSpaceOnUse" x="0" y="3" width="37" height="37"><path d="M.052 21.317c0 9.976 8.1 18.065 18.095 18.065 9.994 0 18.097-8.089 18.097-18.065 0-9.977-8.103-18.066-18.097-18.066C8.153 3.252.051 11.341.051 21.318v-.001zm10.346 0c0-4.271 3.47-7.735 7.75-7.735 4.278 0 7.747 3.464 7.747 7.736 0 4.271-3.469 7.734-7.748 7.734s-7.749-3.463-7.749-7.734z" fill="#fff"/></mask><g mask="url(#bh)"><path d="M31.041 1.72s-1.871 4.406-2.883 5.624c-.994 1.307-3.97 3.13-4.955 4.476-.837 1.18-1.473 4.138-2.311 5.319-.769 1.076-3.318 2.352-4.087 3.428-1.062 1.412-1.865 4.86-2.926 6.27-.867 1.236-3.631 2.784-4.545 4.03-.77 1.077-1.356 3.84-2.126 4.916-.614.95-3.323 3.173-3.323 3.173" stroke="#6D5AAE" stroke-width="1.5"/></g><mask id="bi" maskUnits="userSpaceOnUse" x="0" y="3" width="37" height="37"><path d="M.052 21.317c0 9.976 8.1 18.065 18.095 18.065 9.994 0 18.097-8.089 18.097-18.065 0-9.977-8.103-18.066-18.097-18.066C8.153 3.252.051 11.341.051 21.318v-.001zm10.346 0c0-4.271 3.47-7.735 7.75-7.735 4.278 0 7.747 3.464 7.747 7.736 0 4.271-3.469 7.734-7.748 7.734s-7.749-3.463-7.749-7.734z" fill="#fff"/></mask><g mask="url(#bi)"><path d="M33.555 3.67s-1.872 4.405-2.883 5.625c-.994 1.305-3.97 3.129-4.953 4.482-.839 1.181-1.474 4.139-2.312 5.32-.77 1.074-3.318 2.352-4.087 3.428-1.062 1.41-1.865 4.858-2.927 6.27-.875 1.23-3.638 2.785-4.555 4.024-.768 1.076-1.355 3.84-2.126 4.915-.613.952-3.321 3.173-3.321 3.173" stroke="#8359A4" stroke-width="1.5"/></g><mask id="bj" maskUnits="userSpaceOnUse" x="0" y="3" width="37" height="37"><path d="M.052 21.317c0 9.976 8.1 18.065 18.095 18.065 9.994 0 18.097-8.089 18.097-18.065 0-9.977-8.103-18.066-18.097-18.066C8.153 3.252.051 11.341.051 21.318v-.001zm10.346 0c0-4.271 3.47-7.735 7.75-7.735 4.278 0 7.747 3.464 7.747 7.736 0 4.271-3.469 7.734-7.748 7.734s-7.749-3.463-7.749-7.734z" fill="#fff"/></mask><g mask="url(#bj)"><path d="M36.069 5.62s-1.872 4.405-2.884 5.624c-.993 1.305-3.97 3.13-4.951 4.49-.838 1.182-1.474 4.139-2.312 5.32-.77 1.075-3.317 2.353-4.088 3.429-1.06 1.41-1.864 4.858-2.925 6.269-.887 1.224-3.646 2.788-4.563 4.019-.77 1.075-1.358 3.84-2.127 4.916-.614.95-3.322 3.171-3.322 3.171" stroke="#995799" stroke-width="1.5"/></g><mask id="bk" maskUnits="userSpaceOnUse" x="0" y="3" width="37" height="37"><path d="M.052 21.317c0 9.976 8.1 18.065 18.095 18.065 9.994 0 18.097-8.089 18.097-18.065 0-9.977-8.103-18.066-18.097-18.066C8.153 3.252.051 11.341.051 21.318v-.001zm10.346 0c0-4.271 3.47-7.735 7.75-7.735 4.278 0 7.747 3.464 7.747 7.736 0 4.271-3.469 7.734-7.748 7.734s-7.749-3.463-7.749-7.734z" fill="#fff"/></mask><g mask="url(#bk)"><path d="M38.583 7.569s-1.873 4.405-2.884 5.625c-.993 1.305-3.97 3.13-4.95 4.497-.838 1.183-1.473 4.14-2.311 5.32-.769 1.076-3.318 2.353-4.087 3.428-1.063 1.41-1.865 4.859-2.926 6.27-.897 1.22-3.655 2.79-4.575 4.013-.768 1.076-1.355 3.84-2.126 4.916-.613.95-3.322 3.171-3.322 3.171" stroke="#AF568E" stroke-width="1.5"/></g><mask id="bl" maskUnits="userSpaceOnUse" x="0" y="3" width="37" height="37"><path d="M.052 21.317c0 9.976 8.1 18.065 18.095 18.065 9.994 0 18.097-8.089 18.097-18.065 0-9.977-8.103-18.066-18.097-18.066C8.153 3.252.051 11.341.051 21.318v-.001zm10.346 0c0-4.271 3.47-7.735 7.75-7.735 4.278 0 7.747 3.464 7.747 7.736 0 4.271-3.469 7.734-7.748 7.734s-7.749-3.463-7.749-7.734z" fill="#fff"/></mask><g mask="url(#bl)"><path d="M41.095 9.518s-1.87 4.405-2.883 5.625c-.994 1.305-3.97 3.13-4.947 4.506-.838 1.181-1.474 4.138-2.312 5.32-.769 1.075-3.318 2.352-4.087 3.428-1.062 1.411-1.865 4.858-2.926 6.27-.907 1.212-3.663 2.791-4.583 4.006-.77 1.076-1.358 3.84-2.127 4.915-.614.952-3.323 3.173-3.323 3.173" stroke="#C45583" stroke-width="1.5"/></g><mask id="bm" maskUnits="userSpaceOnUse" x="0" y="3" width="37" height="37"><path d="M.052 21.317c0 9.976 8.1 18.065 18.095 18.065 9.994 0 18.097-8.089 18.097-18.065 0-9.977-8.103-18.066-18.097-18.066C8.153 3.252.051 11.341.051 21.318v-.001zm10.346 0c0-4.271 3.47-7.735 7.75-7.735 4.278 0 7.747 3.464 7.747 7.736 0 4.271-3.469 7.734-7.748 7.734s-7.749-3.463-7.749-7.734z" fill="#fff"/></mask><g mask="url(#bm)"><path d="M43.608 11.467s-1.87 4.406-2.883 5.625c-.993 1.306-3.97 3.13-4.945 4.515-.838 1.18-1.475 4.138-2.312 5.319-.77 1.075-3.318 2.352-4.088 3.428-1.061 1.412-1.864 4.858-2.926 6.27-.915 1.206-3.67 2.791-4.593 4-.768 1.076-1.356 3.84-2.126 4.916-.613.95-3.322 3.173-3.322 3.173" stroke="#DA5378" stroke-width="1.5"/></g><mask id="bn" maskUnits="userSpaceOnUse" x="0" y="3" width="37" height="37"><path d="M.052 21.317c0 9.976 8.1 18.065 18.095 18.065 9.994 0 18.097-8.089 18.097-18.065 0-9.977-8.103-18.066-18.097-18.066C8.153 3.252.051 11.341.051 21.318v-.001zm10.346 0c0-4.271 3.47-7.735 7.75-7.735 4.278 0 7.747 3.464 7.747 7.736 0 4.271-3.469 7.734-7.748 7.734s-7.749-3.463-7.749-7.734z" fill="#fff"/></mask><g mask="url(#bn)"><path d="M46.122 13.418s-1.871 4.405-2.883 5.625c-.993 1.304-3.97 3.13-4.944 4.521-.838 1.181-1.474 4.139-2.312 5.32-.77 1.075-3.318 2.352-4.087 3.428-1.062 1.41-1.865 4.859-2.926 6.27-.924 1.2-3.678 2.794-4.602 3.994-.77 1.075-1.356 3.84-2.127 4.915-.614.952-3.322 3.173-3.322 3.173" stroke="#F0526D" stroke-width="1.5"/></g></g></g></svg><svg fill="none" viewBox="0 0 166 40" id="logo_menu" xmlns="http://www.w3.org/2000/svg"><mask id="ca" maskUnits="userSpaceOnUse" x="0" y="0" width="166" height="40"><path d="M0 0h166v40H0V0z" fill="#fff"/></mask><g mask="url(#ca)"><path fill-rule="evenodd" clip-rule="evenodd" d="M76.09 21.05v-5.772s-.088-.089-.355-.178c-1.068-.355-2.136-.533-3.203-.444-1.601.09-2.846.8-3.559 2.22-.533 1.065-.711 2.31-.8 3.464-.09 1.598 0 3.196.534 4.796.445 1.332 1.335 2.309 2.758 2.575 1.512.355 2.936 0 4.27-.711.267-.177.356-.266.356-.266V21.05zm5.871 10.568c-1.6.09-3.38.267-5.16.444-.087-.621-.265-1.154-.355-1.687-.889.356-1.69.799-2.491 1.155-2.4.887-4.803.8-7.028-.533-1.956-1.154-3.024-2.93-3.735-4.973-.89-3.02-.979-6.128 0-9.148 1.155-3.64 3.825-5.595 7.562-6.127a12.565 12.565 0 015.425.355V.447C78.047.27 79.826.181 81.606.003v25.044c-.09 2.664.178 4.529.356 6.571zm-30.156-3.73l.178-1.332c.088-.71.177-1.33.267-1.687.445-1.776 1.156-3.463 1.69-5.151.802-2.752 2.846-8.703 2.846-8.703h5.783c-.446 1.155-.8 2.22-1.246 3.286-2.224 5.684-6.85 17.407-6.85 17.407h-5.515S40.95 11.194 40.95 11.016c1.247-.089 6.05-.445 6.05-.445s2.046 6.749 3.025 9.858c.445 1.42.978 2.93 1.423 4.44.09.267.178.888.267 1.687l.09 1.332zM86.142.448C87.922.27 89.79.18 91.57.001V31.62h-5.427V.447zm19.571 10.479c-1.333 1.687-2.668 3.285-3.913 4.973-.802 1.066-1.691 2.131-2.491 3.196-.445.533-2.224 1.244-3.113 1.333.89 0 2.58.71 3.024 1.243 2.046 2.753 4.269 6.039 6.317 8.792v1.154h-5.605L92.638 20.34c2.223-2.931 4.802-6.482 6.938-9.413h6.137zm11.624 9.14V15.95h-2.638v4.119h-.815V15.24h4.27v4.828h-.817zm3.195-2.413c0 .948.442 1.83 1.516 1.83.969 0 1.487-.758 1.487-1.83 0-1.073-.518-1.828-1.487-1.828-1.074 0-1.516.88-1.516 1.829v-.001zm-.018-2.413v.517h.21c.269-.335.739-.642 1.507-.642 1.333 0 2.119 1.11 2.119 2.539 0 1.455-.786 2.537-2.119 2.537-.768 0-1.219-.297-1.478-.642h-.211v2.433h-.815V15.24h.787zm8.758 2.413c0-.948-.499-1.829-1.563-1.829-1.075 0-1.564.881-1.564 1.829s.489 1.83 1.564 1.83c1.064 0 1.563-.882 1.563-1.83zm.816 0c0 1.427-.873 2.538-2.379 2.538-1.516 0-2.38-1.11-2.38-2.538 0-1.427.864-2.538 2.38-2.538 1.506 0 2.379 1.11 2.379 2.539zm5.506-2.414v4.12h.883v2.078h-.787v-1.37h-4.327V15.24h.816v4.12h2.601v-4.12h.814zm2.494 1.725h2.792c-.047-.613-.518-1.14-1.333-1.14-.873 0-1.353.527-1.459 1.14zm3.637.68h-3.684c.028 1.149.546 1.838 1.544 1.838.681 0 1.084-.287 1.228-.747h.826c-.154.823-.855 1.456-2.054 1.456-1.506 0-2.35-1.101-2.35-2.585 0-1.486.863-2.491 2.331-2.491 1.439 0 2.129 1.064 2.159 2.251v.278zm5.353.966c-.182.949-.911 1.582-2.035 1.582-1.505 0-2.349-1.111-2.349-2.54 0-1.454.844-2.537 2.349-2.537 1.153 0 1.842.632 2.006 1.522h-.816c-.154-.488-.527-.813-1.19-.813-1.092 0-1.535.852-1.535 1.81 0 .967.452 1.85 1.535 1.85.692 0 1.095-.336 1.219-.874h.816zm5.305 0c-.182.949-.912 1.582-2.034 1.582-1.506 0-2.351-1.111-2.351-2.54 0-1.454.845-2.537 2.351-2.537 1.151 0 1.842.632 2.005 1.522h-.816c-.153-.488-.527-.813-1.189-.813-1.094 0-1.535.852-1.535 1.81 0 .967.449 1.85 1.535 1.85.691 0 1.094-.336 1.218-.874h.816zM158.35 20.068h.815V15.24h-.815v4.828zm-3.933-.709h1.218c.844 0 1.122-.345 1.122-.91 0-.576-.278-.91-1.122-.91h-1.218v1.82zm0-4.119v1.61h1.333c1.18 0 1.823.604 1.823 1.6 0 1.005-.643 1.618-1.823 1.618h-2.149V15.24h.816zm-40.533 16.32v-4.828h.797v3.736h.21l2.121-3.736h1.19v4.828h-.797v-3.735h-.211l-2.159 3.735h-1.151zm11.321-1.954v-.441h-1.449c-.797 0-1.161.345-1.161.92 0 .547.403.89 1.121.89.808 0 1.489-.603 1.489-1.37zm.028 1.445h-.211c-.297.375-.816.633-1.506.633-1.114 0-1.738-.746-1.738-1.57 0-.776.51-1.6 1.853-1.6h1.574v-.191c0-.585-.336-1.005-1.181-1.005-.72 0-1.084.277-1.122.698h-.816c.067-.891.834-1.408 1.919-1.408 1.219 0 1.995.585 1.995 1.666v3.285h-.767v-.508zm5.717.509v-4.118h-2.638v4.118h-.815v-4.828h4.268v4.828h-.815zm5.843 0v-4.118h-2.639v4.118h-.815v-4.828h4.269v4.828h-.815zm5.439-1.954v-.441h-1.449c-.796 0-1.161.345-1.161.92 0 .547.403.89 1.123.89.806 0 1.487-.603 1.487-1.37zm.029 1.445h-.211c-.297.375-.815.633-1.506.633-1.113 0-1.737-.746-1.737-1.57 0-.776.509-1.6 1.852-1.6h1.573v-.191c0-.585-.335-1.005-1.18-1.005-.719 0-1.084.277-1.122.698h-.816c.067-.891.834-1.408 1.919-1.408 1.218 0 1.995.585 1.995 1.666v3.285h-.767v-.508zm3.07-1.905c0 .948.441 1.829 1.516 1.829.969 0 1.486-.756 1.486-1.829s-.517-1.828-1.486-1.828c-1.075 0-1.516.88-1.516 1.828zm-.019-2.414v.518h.211c.268-.335.738-.642 1.506-.642 1.333 0 2.12 1.11 2.12 2.538 0 1.456-.787 2.538-2.12 2.538-.768 0-1.219-.297-1.477-.642h-.211v2.433h-.816v-6.743h.787zm8.163 2.874v-.441h-1.448c-.796 0-1.161.345-1.161.92 0 .547.403.89 1.122.89.807 0 1.488-.603 1.488-1.37h-.001zm.03 1.445h-.211c-.298.375-.817.633-1.506.633-1.114 0-1.738-.746-1.738-1.57 0-.776.509-1.6 1.852-1.6h1.573v-.191c0-.585-.335-1.005-1.18-1.005-.719 0-1.083.277-1.121.698h-.817c.067-.891.835-1.408 1.92-1.408 1.218 0 1.995.585 1.995 1.666v3.285h-.767v-.508zm1.707-4.319h4.163v.71h-1.669v4.118h-.816v-4.118h-1.678v-.71zm9.738 4.828h.814v-4.828h-.814v4.828zm-3.934-.709h1.218c.845 0 1.123-.344 1.123-.91 0-.575-.278-.91-1.123-.91h-1.218v1.82zm0-4.119v1.61h1.333c1.18 0 1.823.603 1.823 1.6 0 1.005-.643 1.618-1.823 1.618H160.2v-4.828h.816z" fill="#fff"/><mask id="cb" maskUnits="userSpaceOnUse" x="0" y="3" width="37" height="37"><path d="M.051 21.317c0 9.976 8.102 18.065 18.096 18.065s18.096-8.089 18.096-18.065c0-9.977-8.103-18.066-18.096-18.066C8.153 3.252.051 11.341.051 21.318v-.001zm10.347 0c0-4.271 3.47-7.735 7.749-7.735 4.28 0 7.748 3.464 7.748 7.736 0 4.271-3.469 7.734-7.748 7.734-4.28 0-7.749-3.463-7.749-7.734" fill="#fff"/></mask><g mask="url(#cb)"><path d="M18.473-8.028s-1.871 4.406-2.883 5.625c-.993 1.306-3.97 3.13-4.964 4.436-.837 1.18-1.473 4.138-2.31 5.318C7.546 8.427 5 9.704 4.228 10.78c-1.06 1.41-1.864 4.858-2.925 6.269-.82 1.27-3.591 2.776-4.496 4.064-.77 1.075-1.358 3.839-2.126 4.914-.615.952-3.323 3.172-3.323 3.172" stroke="#fff" stroke-width="1.5"/></g><mask id="cc" maskUnits="userSpaceOnUse" x="0" y="3" width="37" height="37"><path d="M.051 21.317c0 9.976 8.102 18.065 18.096 18.065s18.096-8.089 18.096-18.065c0-9.977-8.103-18.066-18.096-18.066C8.153 3.252.051 11.341.051 21.318v-.001zm10.347 0c0-4.271 3.47-7.735 7.749-7.735 4.28 0 7.748 3.464 7.748 7.736 0 4.271-3.469 7.734-7.748 7.734-4.28 0-7.749-3.463-7.749-7.734" fill="#fff"/></mask><g mask="url(#cc)"><path d="M20.987-6.078s-1.872 4.405-2.883 5.624c-.994 1.306-3.97 3.13-4.961 4.444-.839 1.181-1.474 4.137-2.312 5.32-.77 1.074-3.319 2.351-4.088 3.427-1.061 1.412-1.864 4.859-2.926 6.27-.829 1.262-3.599 2.777-4.506 4.057-.77 1.076-1.357 3.839-2.126 4.914-.614.952-3.323 3.173-3.323 3.173" stroke="#fff" stroke-width="1.5"/></g><mask id="cd" maskUnits="userSpaceOnUse" x="0" y="3" width="37" height="37"><path d="M.051 21.317c0 9.976 8.102 18.065 18.096 18.065s18.096-8.089 18.096-18.065c0-9.977-8.103-18.066-18.096-18.066C8.153 3.252.051 11.341.051 21.318v-.001zm10.347 0c0-4.271 3.47-7.735 7.749-7.735 4.28 0 7.748 3.464 7.748 7.736 0 4.271-3.469 7.734-7.748 7.734-4.28 0-7.749-3.463-7.749-7.734" fill="#fff"/></mask><g mask="url(#cd)"><path d="M23.5-4.129S21.63.277 20.618 1.496c-.993 1.306-3.97 3.13-4.96 4.451-.837 1.181-1.473 4.139-2.312 5.32-.768 1.074-3.317 2.352-4.087 3.428-1.06 1.411-1.864 4.858-2.926 6.27-.838 1.255-3.606 2.778-4.515 4.05-.77 1.076-1.358 3.839-2.126 4.914-.614.951-3.324 3.173-3.324 3.173" stroke="#fff" stroke-width="1.5"/></g><mask id="ce" maskUnits="userSpaceOnUse" x="0" y="3" width="37" height="37"><path d="M.051 21.317c0 9.976 8.102 18.065 18.096 18.065s18.096-8.089 18.096-18.065c0-9.977-8.103-18.066-18.096-18.066C8.153 3.252.051 11.341.051 21.318v-.001zm10.347 0c0-4.271 3.47-7.735 7.749-7.735 4.28 0 7.748 3.464 7.748 7.736 0 4.271-3.469 7.734-7.748 7.734-4.28 0-7.749-3.463-7.749-7.734" fill="#fff"/></mask><g mask="url(#ce)"><path d="M26.014-2.179s-1.871 4.405-2.883 5.625c-.994 1.305-3.97 3.13-4.959 4.458-.838 1.182-1.473 4.14-2.311 5.32-.77 1.076-3.318 2.352-4.087 3.428-1.06 1.412-1.865 4.859-2.926 6.27-.848 1.25-3.614 2.78-4.526 4.044-.769 1.075-1.355 3.84-2.126 4.915-.613.95-3.322 3.172-3.322 3.172" stroke="#fff" stroke-width="1.5"/><mask id="cf" maskUnits="userSpaceOnUse" x="0" y="3" width="37" height="37"><path d="M.051 21.317c0 9.976 8.102 18.065 18.096 18.065s18.096-8.089 18.096-18.065c0-9.977-8.103-18.066-18.096-18.066C8.153 3.252.051 11.341.051 21.318v-.001zm10.347 0c0-4.271 3.47-7.735 7.749-7.735 4.28 0 7.748 3.464 7.748 7.736 0 4.271-3.469 7.734-7.748 7.734-4.28 0-7.749-3.463-7.749-7.734" fill="#fff"/></mask><g mask="url(#cf)"><path d="M28.527-.23s-1.872 4.406-2.883 5.625c-.993 1.306-3.97 3.13-4.955 4.467-.839 1.181-1.475 4.138-2.312 5.32-.77 1.075-3.319 2.352-4.088 3.428-1.062 1.41-1.864 4.859-2.926 6.27-.858 1.242-3.622 2.781-4.535 4.037-.77 1.076-1.356 3.84-2.126 4.915-.614.95-3.323 3.172-3.323 3.172" stroke="#fff" stroke-width="1.5"/></g><mask id="cg" maskUnits="userSpaceOnUse" x="0" y="3" width="37" height="37"><path d="M.051 21.317c0 9.976 8.102 18.065 18.096 18.065s18.096-8.089 18.096-18.065c0-9.977-8.103-18.066-18.096-18.066C8.153 3.252.051 11.341.051 21.318v-.001zm10.347 0c0-4.271 3.47-7.735 7.749-7.735 4.28 0 7.748 3.464 7.748 7.736 0 4.271-3.469 7.734-7.748 7.734-4.28 0-7.749-3.463-7.749-7.734" fill="#fff"/></mask><g mask="url(#cg)"><path d="M31.041 1.72s-1.872 4.406-2.883 5.624c-.994 1.307-3.97 3.13-4.956 4.476-.836 1.18-1.472 4.138-2.31 5.319-.77 1.076-3.318 2.352-4.088 3.428-1.061 1.412-1.864 4.86-2.925 6.27-.867 1.236-3.631 2.784-4.545 4.03-.77 1.077-1.356 3.84-2.127 4.916-.614.95-3.322 3.173-3.322 3.173" stroke="#fff" stroke-width="1.5"/></g><mask id="ch" maskUnits="userSpaceOnUse" x="0" y="3" width="37" height="37"><path d="M.051 21.317c0 9.976 8.102 18.065 18.096 18.065s18.096-8.089 18.096-18.065c0-9.977-8.103-18.066-18.096-18.066C8.153 3.252.051 11.341.051 21.318v-.001zm10.347 0c0-4.271 3.47-7.735 7.749-7.735 4.28 0 7.748 3.464 7.748 7.736 0 4.271-3.469 7.734-7.748 7.734-4.28 0-7.749-3.463-7.749-7.734" fill="#fff"/></mask><g mask="url(#ch)"><path d="M33.555 3.67s-1.872 4.405-2.884 5.625c-.993 1.305-3.97 3.129-4.952 4.482-.839 1.181-1.474 4.139-2.312 5.32-.77 1.074-3.318 2.352-4.087 3.428-1.063 1.41-1.865 4.858-2.927 6.27-.875 1.23-3.638 2.785-4.555 4.024-.768 1.076-1.356 3.84-2.126 4.915-.613.952-3.322 3.173-3.322 3.173" stroke="#fff" stroke-width="1.5"/></g><mask id="ci" maskUnits="userSpaceOnUse" x="0" y="3" width="37" height="37"><path d="M.051 21.317c0 9.976 8.102 18.065 18.096 18.065s18.096-8.089 18.096-18.065c0-9.977-8.103-18.066-18.096-18.066C8.153 3.252.051 11.341.051 21.318v-.001zm10.347 0c0-4.271 3.47-7.735 7.749-7.735 4.28 0 7.748 3.464 7.748 7.736 0 4.271-3.469 7.734-7.748 7.734-4.28 0-7.749-3.463-7.749-7.734" fill="#fff"/></mask><g mask="url(#ci)"><path d="M36.068 5.62s-1.871 4.405-2.883 5.624c-.994 1.305-3.97 3.13-4.951 4.49-.839 1.182-1.474 4.139-2.312 5.32-.77 1.075-3.318 2.353-4.088 3.429-1.06 1.41-1.864 4.858-2.926 6.269-.886 1.224-3.645 2.788-4.563 4.019-.77 1.075-1.357 3.84-2.126 4.916-.614.95-3.322 3.171-3.322 3.171" stroke="#fff" stroke-width="1.5"/></g><mask id="cj" maskUnits="userSpaceOnUse" x="0" y="3" width="37" height="37"><path d="M.051 21.317c0 9.976 8.102 18.065 18.096 18.065s18.096-8.089 18.096-18.065c0-9.977-8.103-18.066-18.096-18.066C8.153 3.252.051 11.341.051 21.318v-.001zm10.347 0c0-4.271 3.47-7.735 7.749-7.735 4.28 0 7.748 3.464 7.748 7.736 0 4.271-3.469 7.734-7.748 7.734-4.28 0-7.749-3.463-7.749-7.734" fill="#fff"/></mask><g mask="url(#cj)"><path d="M38.582 7.569s-1.872 4.405-2.883 5.625c-.994 1.305-3.97 3.13-4.95 4.497-.838 1.183-1.473 4.14-2.311 5.32-.77 1.076-3.318 2.353-4.088 3.428-1.062 1.41-1.864 4.859-2.925 6.27-.898 1.22-3.656 2.79-4.575 4.013-.769 1.076-1.356 3.84-2.126 4.916-.613.95-3.322 3.171-3.322 3.171" stroke="#fff" stroke-width="1.5"/></g><mask id="ck" maskUnits="userSpaceOnUse" x="0" y="3" width="37" height="37"><path d="M.051 21.317c0 9.976 8.102 18.065 18.096 18.065s18.096-8.089 18.096-18.065c0-9.977-8.103-18.066-18.096-18.066C8.153 3.252.051 11.341.051 21.318v-.001zm10.347 0c0-4.271 3.47-7.735 7.749-7.735 4.28 0 7.748 3.464 7.748 7.736 0 4.271-3.469 7.734-7.748 7.734-4.28 0-7.749-3.463-7.749-7.734" fill="#fff"/></mask><g mask="url(#ck)"><path d="M41.095 9.518s-1.87 4.405-2.883 5.625c-.994 1.305-3.97 3.13-4.947 4.506-.838 1.181-1.474 4.138-2.312 5.32-.769 1.075-3.318 2.352-4.087 3.428-1.062 1.411-1.865 4.858-2.926 6.27-.907 1.212-3.663 2.791-4.583 4.006-.77 1.076-1.358 3.84-2.127 4.915-.614.952-3.323 3.173-3.323 3.173" stroke="#fff" stroke-width="1.5"/></g><mask id="cl" maskUnits="userSpaceOnUse" x="0" y="3" width="37" height="37"><path d="M.051 21.317c0 9.976 8.102 18.065 18.096 18.065s18.096-8.089 18.096-18.065c0-9.977-8.103-18.066-18.096-18.066C8.153 3.252.051 11.341.051 21.318v-.001zm10.347 0c0-4.271 3.47-7.735 7.749-7.735 4.28 0 7.748 3.464 7.748 7.736 0 4.271-3.469 7.734-7.748 7.734-4.28 0-7.749-3.463-7.749-7.734" fill="#fff"/></mask><g mask="url(#cl)"><path d="M43.608 11.467s-1.87 4.406-2.883 5.625c-.993 1.306-3.97 3.13-4.945 4.515-.838 1.18-1.475 4.138-2.312 5.319-.77 1.075-3.318 2.352-4.088 3.428-1.061 1.412-1.864 4.858-2.926 6.27-.915 1.206-3.67 2.791-4.593 4-.768 1.076-1.356 3.84-2.126 4.916-.613.95-3.322 3.173-3.322 3.173" stroke="#fff" stroke-width="1.5"/></g><mask id="cm" maskUnits="userSpaceOnUse" x="0" y="3" width="37" height="37"><path d="M.051 21.317c0 9.976 8.102 18.065 18.096 18.065s18.096-8.089 18.096-18.065c0-9.977-8.103-18.066-18.096-18.066C8.153 3.252.051 11.341.051 21.318v-.001zm10.347 0c0-4.271 3.47-7.735 7.749-7.735 4.28 0 7.748 3.464 7.748 7.736 0 4.271-3.469 7.734-7.748 7.734-4.28 0-7.749-3.463-7.749-7.734" fill="#fff"/></mask><g mask="url(#cm)"><path d="M46.122 13.418s-1.871 4.405-2.883 5.625c-.993 1.304-3.97 3.13-4.944 4.521-.838 1.181-1.474 4.139-2.312 5.32-.77 1.075-3.318 2.352-4.087 3.428-1.062 1.41-1.865 4.859-2.926 6.27-.924 1.2-3.678 2.794-4.602 3.994-.77 1.075-1.356 3.84-2.127 4.915-.614.952-3.322 3.173-3.322 3.173" stroke="#fff" stroke-width="1.5"/></g></g></g></svg><svg fill="none" viewBox="0 0 112 80" id="sk_logo" xmlns="http://www.w3.org/2000/svg"><path fill-rule="evenodd" clip-rule="evenodd" d="M0 80h112V0H0v80z" fill="#C0DF3D"/><path fill-rule="evenodd" clip-rule="evenodd" d="M85.818 67.714h-2.38v-9.05h2.38V62.1l2.995-3.435h2.972l-3.247 3.505 3.385 5.545h-2.891l-2.23-3.88-.984 1.023v2.857zm-4.514 0h-2.379v-5.445l-3.215 5.445h-2.55v-9.05h2.38v5.444l3.214-5.444h2.55v9.05zm-10.28 0h-2.378v-3.572H65.26v3.572h-2.38v-9.05h2.38v3.571h3.386v-3.57h2.378v9.049zm-14.517 0V60.57h-2.704v-1.906h7.792v1.906h-2.708v7.144h-2.38zm-3.61-3.302a4.372 4.372 0 01-.24 1.024c-.13.38-.35.764-.656 1.151-.305.388-.728.712-1.266.974-.539.259-1.195.39-1.97.39-.807 0-1.485-.138-2.037-.411-.55-.275-.98-.633-1.293-1.076a4.274 4.274 0 01-.661-1.445 6.412 6.412 0 01-.197-1.575c0-1.003.153-1.88.456-2.631.304-.752.778-1.337 1.426-1.757.648-.42 1.467-.628 2.46-.628.567 0 1.14.1 1.72.304.58.204 1.087.564 1.52 1.082.433.517.685 1.212.754 2.081H50.5c-.175-.974-.702-1.462-1.581-1.462-.464 0-.837.132-1.121.395a2.139 2.139 0 00-.598.986 4.427 4.427 0 00-.173 1.24c0 .49.033.94.1 1.351.068.41.236.78.51 1.104.272.323.681.485 1.227.485.363 0 .667-.093.911-.283.246-.187.425-.406.538-.66.114-.251.171-.464.171-.639h2.412zm-12.19-1.105c-.259.202-.8.367-1.62.494-.339.059-.624.13-.854.22a1.25 1.25 0 00-.553.402c-.14.179-.207.426-.207.738 0 .373.114.647.344.823.23.176.485.264.765.264.356 0 .699-.074 1.025-.221.327-.146.591-.355.796-.626a1.52 1.52 0 00.304-.936v-1.158zm2.33 2.636c0 .493.046.836.136 1.027.09.194.22.321.393.385v.359h-2.572c-.11-.342-.185-.7-.22-1.076a5.308 5.308 0 01-1.217.953c-.425.24-.996.36-1.71.36-.479 0-.929-.095-1.349-.282a2.345 2.345 0 01-1.017-.877c-.259-.396-.388-.889-.388-1.478 0-.567.112-1.057.336-1.466.225-.41.532-.73.922-.962.39-.231.851-.385 1.379-.462l2.143-.324c.556-.075.834-.312.834-.713 0-.44-.149-.725-.447-.857-.3-.131-.673-.196-1.119-.196-.526 0-.888.118-1.089.357-.2.239-.327.538-.376.902h-2.293c.086-.872.324-1.538.713-2 .39-.464.86-.773 1.412-.93.552-.158 1.192-.235 1.92-.235.538 0 1.076.07 1.616.21.54.142 1.007.409 1.403.8.394.39.59.925.59 1.606v4.9zm-10.022 1.77h-2.379v-3.727c-.238.138-.615.312-1.129.52a4.12 4.12 0 01-1.556.313c-.952 0-1.703-.252-2.254-.755-.551-.504-.826-1.305-.826-2.408v-2.992h2.38v2.925c0 .815.517 1.224 1.548 1.224.32 0 .66-.07 1.027-.21.365-.14.635-.256.81-.35v-3.589h2.379v9.05zm-14.702.188c-.726 0-1.288-.063-1.687-.187v-2.177c.3.137.589.204.869.204.531 0 .918-.232 1.158-.698l.05-.104-5.105-9.44h3.044l3.286 6.823 2.483-6.823h2.925l-4.407 10.17a3.897 3.897 0 01-.803 1.227 3.884 3.884 0 01-.998.753c-.333.168-.605.252-.815.252zm14.329-37.784l-8.91-2.167c-1.517-.354-3.884-.96-3.884-3.826 0-3.275 3.476-4.384 6.398-4.384 6.647 0 7.253 3.88 7.451 5.54h4.241v6.817c-1.555-.91-3.392-1.5-5.296-1.98zm-4.839 21.806c1.913 0 6.618-.335 10.135-2.902v1.948h7.097l.008-8.567 2.962-3.068 6.452 11.635h8.515l-9.774-16.623 9.52-10.477H54l-8.958 10.28V14.401h-7.105v3.125c-2.162-2.323-5.668-4.079-11.136-4.079-11.836 0-14.058 7.201-14.058 11.23 0 5.538 2.978 8.616 8.164 9.873l7.352 1.812c3.878.956 6.651 1.663 6.651 4.531 0 3.829-4.033 4.735-7.66 4.735-6.647 0-7.755-3.877-7.755-5.942h-7.304c0 4.534 2.316 12.237 15.611 12.237z" fill="#656867"/></svg><svg fill="none" viewBox="0 0 144 144" id="tech_logo" xmlns="http://www.w3.org/2000/svg"><path d="M61.478 82.138h5.066v.734h-2.106v4.7h-.868v-4.7h-2.092v-.734zM67.353 82.138h4.22v.778h-3.352v1.469h2.996v.734H68.22v1.704h3.462v.735h-4.33v-5.42zM75.043 84.275l1.458-2.123h1.02l-1.894 2.622 2.092 2.842h-1.05l-1.64-2.291-1.64 2.291h-.999l2.041-2.82-1.931-2.644h1.02l1.523 2.123zM83.338 82.138v5.464h-.867v-2.527h-3.069v2.527h-.838v-5.464h.867v2.137h3.07v-2.167l.837.03zM89.119 82.894a2.84 2.84 0 01.78 1.976 2.796 2.796 0 01-.824 2.034 2.904 2.904 0 01-2.04.8 2.846 2.846 0 01-2.064-.822 2.828 2.828 0 01-.816-2.012 2.765 2.765 0 01.867-2.057 2.984 2.984 0 014.09.074l.007.007zm-3.52 3.452a2.09 2.09 0 002.85 0 2.212 2.212 0 000-3.026 1.922 1.922 0 00-1.4-.536 1.875 1.875 0 00-1.458.587 2.03 2.03 0 00-.561 1.47 2.064 2.064 0 00.568 1.505zM91.685 87.602h-.868v-5.465h4.826v5.465h-.868v-4.686h-3.09v4.686zM101.452 82.894a2.84 2.84 0 01.78 1.976 2.794 2.794 0 01-.824 2.034 2.903 2.903 0 01-2.04.8 2.846 2.846 0 01-2.064-.822 2.827 2.827 0 01-.816-2.012 2.765 2.765 0 01.867-2.057 2.984 2.984 0 014.09.074l.007.007zm-3.52 3.452a2.09 2.09 0 002.849 0 2.21 2.21 0 00.597-1.513 2.21 2.21 0 00-.597-1.513 1.917 1.917 0 00-1.4-.536 1.875 1.875 0 00-1.457.587 2.03 2.03 0 00-.561 1.47 2.064 2.064 0 00.568 1.505zM108.035 82.138v5.464h-.868v-4.686h-2.186l-.496 3.533c-.023.34-.178.658-.432.883-.254.226-.586.341-.924.321a2.12 2.12 0 01-.816-.132l.182-.734c.146.045.299.068.452.066a.66.66 0 00.481-.155.849.849 0 00.226-.536l.561-4.054 3.82.03zM109.959 86.324l3.273-4.186h.816v5.464h-.824v-4.187l-3.287 4.187h-.816v-5.465h.838v4.187zM116.388 86.324a2.028 2.028 0 001.458.587 2.23 2.23 0 001.64-.646l.517.58a2.912 2.912 0 01-2.187.852 2.813 2.813 0 01-2.048-.822 2.85 2.85 0 010-4.025 2.864 2.864 0 012.085-.778 2.896 2.896 0 012.187.851l-.518.58a2.18 2.18 0 00-1.64-.646 1.902 1.902 0 00-1.451.569 1.926 1.926 0 00-.431.674 1.961 1.961 0 00-.123.792 2.074 2.074 0 00.511 1.432zM91.684 98.493a6.913 6.913 0 01-1.103 3.845 6.836 6.836 0 01-3.042 2.574 6.778 6.778 0 01-3.95.43 6.8 6.8 0 01-3.517-1.859 6.888 6.888 0 01-1.894-3.518 6.922 6.922 0 01.372-3.985 6.864 6.864 0 012.511-3.1 6.786 6.786 0 013.8-1.166 6.72 6.72 0 012.599.499 6.761 6.761 0 012.21 1.464 6.857 6.857 0 012.015 4.816zm-11.203 0c.021.867.296 1.707.79 2.417a4.35 4.35 0 006.713.55 4.437 4.437 0 00.9-4.788 4.399 4.399 0 00-1.612-1.96 4.35 4.35 0 00-5.55.594 4.41 4.41 0 00-1.241 3.187zM103.253 94.814a6.983 6.983 0 00-3.208-.837 4.468 4.468 0 00-3.052 1.384 4.535 4.535 0 00-1.25 3.129c0 1.166.448 2.287 1.25 3.128a4.47 4.47 0 003.052 1.385 6.604 6.604 0 003.302-.882l1.094 1.836a7.306 7.306 0 01-4.425 1.322 6.703 6.703 0 01-4.757-1.985 6.805 6.805 0 01-1.97-4.793c0-1.798.708-3.523 1.97-4.794a6.702 6.702 0 014.757-1.985 7.322 7.322 0 014.425 1.315l-1.188 1.777zM108.72 91.994l.095.095v4.67h.561l4.22-4.677.183-.096h2.383l.095.096-5.103 5.574 5.438 7.241-.095.096h-2.383l-.182-.088-4.585-5.978h-.562v5.978l-.094.095h-1.954l-.087-.088V92.089l.087-.095h1.983zM124.041 91.994c2.501 0 4.221 1.3 4.221 3.415a2.507 2.507 0 01-1.181 2.203 3.49 3.49 0 011.727 1.302c.424.607.646 1.334.635 2.076 0 2.38-1.844 3.995-4.301 3.995h-6.269l-.087-.088V92.089l.087-.095h5.168zm-3.112 5.016h3.112c1.232 0 1.786-.463 1.786-1.47 0-.888-.554-1.358-1.786-1.358h-3.112v2.828zm0 5.816h4.148c.252.036.509.014.752-.063a1.726 1.726 0 001.08-1.008c.095-.238.136-.494.121-.75a1.754 1.754 0 00-1.206-1.75 1.725 1.725 0 00-.747-.071h-4.148v3.642zM138.219 91.994l.095.095L144 104.905l-.095.095h-2.267l-.095-.088-1.202-2.82h-6.247l-1.276 2.82-.095.096h-2.259l-.095-.089 5.707-12.815.095-.096 2.048-.014zm-3.345 7.924h4.694l-2.384-5.009-2.31 5.009zM63.913 91.994l.182.095 4.935 5.273 4.913-5.273.19-.095h1.917l.094.095v12.816l-.094.095h-1.976l-.087-.088v-9.62l-4.898 5.14h-.183l-4.847-5.14v9.62l-.088.096h-1.96l-.088-.089v-12.83l.088-.095h1.902zM65.35 113.402a2.53 2.53 0 011.13.228c.29.141.54.353.728.616.189.275.32.584.386.911.076.365.113.737.11 1.109a6.763 6.763 0 01-.204 1.689c-.12.495-.326.964-.605 1.388a3.02 3.02 0 01-.977.918 2.631 2.631 0 01-1.356.346 3.026 3.026 0 01-1.122-.184 1.84 1.84 0 01-.73-.544 2.2 2.2 0 01-.422-.866 4.566 4.566 0 01-.131-1.153 7.9 7.9 0 01.167-1.631 4.56 4.56 0 01.554-1.468 3.11 3.11 0 01.999-1.029c.45-.246.96-.36 1.472-.33zm0 .477a2.097 2.097 0 00-1.276.375c-.342.25-.621.577-.817.955-.21.405-.355.841-.43 1.292-.08.458-.122.923-.124 1.388-.04.599.113 1.194.438 1.697a1.669 1.669 0 001.414.573c.414.012.822-.107 1.166-.338.327-.231.597-.535.787-.889.214-.39.366-.811.452-1.248.097-.467.146-.942.146-1.418 0-.298-.024-.595-.073-.889a2.215 2.215 0 00-.262-.734 1.468 1.468 0 00-.54-.536 1.73 1.73 0 00-.882-.235v.007zM70.312 120.173c.246.003.49-.024.73-.081.247-.067.49-.15.728-.249l.131.36a3.519 3.519 0 01-.78.301c-.299.081-.608.123-.918.125a2.11 2.11 0 01-.802-.133 1.28 1.28 0 01-.525-.382 1.57 1.57 0 01-.291-.587 2.884 2.884 0 01-.095-.734c.005-.338.037-.674.095-1.007.06-.379.18-.746.357-1.087.172-.344.422-.643.729-.874a2.108 2.108 0 011.275-.352c.47-.014.936.098 1.349.323l-.182.382a2.416 2.416 0 00-.73-.213 4.824 4.824 0 00-.51 0 1.454 1.454 0 00-.809.22c-.239.154-.44.36-.59.603a2.84 2.84 0 00-.357.896 4.88 4.88 0 00-.03 1.035c-.001.19.018.38.059.566.035.165.102.323.197.462.095.134.223.24.372.309.188.084.392.124.597.117zM75.167 115.443c.283-.01.565.045.824.162.212.104.397.258.539.448.143.19.244.407.299.639.057.241.086.487.087.734-.002.353-.039.705-.109 1.051a3.344 3.344 0 01-.379 1.028 2.328 2.328 0 01-.729.786 2.02 2.02 0 01-1.152.308 1.993 1.993 0 01-.845-.154 1.4 1.4 0 01-.532-.426 1.601 1.601 0 01-.285-.617 3.337 3.337 0 01-.08-.734c.003-.373.044-.745.124-1.109.076-.368.211-.72.401-1.043.183-.309.432-.573.729-.771.331-.21.717-.315 1.108-.302zm0 .478a1.33 1.33 0 00-.882.286 2.099 2.099 0 00-.554.735c-.138.29-.233.6-.284.918a5.656 5.656 0 00-.08.91c0 .183.02.365.058.544.035.166.102.323.197.463.095.139.226.25.379.323.19.085.397.125.605.117.318.014.631-.088.882-.286.231-.2.413-.452.532-.735.127-.28.215-.576.262-.881.045-.274.07-.552.073-.83 0-.194-.017-.389-.051-.58a1.382 1.382 0 00-.19-.499 1.08 1.08 0 00-.371-.353 1.142 1.142 0 00-.583-.14l.007.008zM80.372 115.524c.228-.007.455.038.663.133.178.084.333.21.452.367.126.173.215.371.263.58.059.24.088.487.087.734-.003.351-.04.7-.11 1.043a3.569 3.569 0 01-.386 1.065c-.18.327-.428.61-.728.83a1.902 1.902 0 01-1.152.338c-.282.01-.563-.04-.824-.147a1.412 1.412 0 01-.532-.397 1.472 1.472 0 01-.27-.543 2.777 2.777 0 01-.08-.676v-.58c0-.215.022-.443.066-.683 0-.235.058-.477.102-.734.044-.257.08-.463.124-.676.044-.213.145-.632.24-.925.088-.284.205-.557.35-.816a2.74 2.74 0 01.489-.639c.191-.182.42-.319.67-.403.133-.046.27-.078.408-.096l.503-.059.547-.058c.185 0 .364-.027.54-.081l.08.433c-.287.054-.53.091-.73.11l-.539.052a2.087 2.087 0 00-.772.183c-.219.108-.41.263-.562.456a2.653 2.653 0 00-.408.771 8.221 8.221 0 00-.299 1.145c.129-.106.265-.202.409-.286.15-.089.306-.17.466-.242.153-.069.312-.126.474-.169.151-.03.305-.04.459-.03zm-.102.456a1.544 1.544 0 00-.437.066c-.16.048-.317.109-.467.183a3.878 3.878 0 00-.867.581c0 .11-.044.257-.073.44-.03.184-.051.382-.073.58-.022.199-.037.39-.051.566-.015.176 0 .308 0 .397-.002.184.015.369.05.55.032.161.096.314.19.448a.89.89 0 00.387.301c.201.08.417.118.634.111.261-.001.516-.083.729-.235a1.93 1.93 0 00.546-.632c.153-.281.264-.583.329-.896.073-.345.11-.697.109-1.05 0-.183-.02-.365-.058-.544a1.338 1.338 0 00-.183-.448.887.887 0 00-.32-.301.93.93 0 00-.452-.117h.007zM85.022 115.466c.218 0 .435.022.649.066.214.045.424.109.627.191l.08-.25h.408c0 .117-.027.289-.08.514l-.102.779-.117.925-.116.94-.102.837c-.03.255-.051.458-.066.61h.627l.044.352a2.036 2.036 0 01-.43.14c-.105.009-.21.009-.314 0a.481.481 0 01-.335-.096.37.37 0 01-.102-.286v-.132a1.739 1.739 0 010-.235 4.004 4.004 0 01-.904.573 2.133 2.133 0 01-.868.198 1.26 1.26 0 01-.984-.441 1.941 1.941 0 01-.393-1.322c.002-.401.051-.8.146-1.189.088-.387.238-.757.444-1.095a2.47 2.47 0 01.773-.793 1.999 1.999 0 011.115-.286zm0 .477a1.446 1.446 0 00-.729.191 1.813 1.813 0 00-.59.558 3.029 3.029 0 00-.408.889 4.224 4.224 0 00-.154 1.182c-.034.38.067.76.285 1.072a.88.88 0 00.678.316c.3-.004.593-.084.853-.235.287-.158.558-.345.809-.558l.43-3.165a2.931 2.931 0 00-1.195-.257l.021.007zM88.689 118.124a1.11 1.11 0 01-.86-1.131c-.007-.238.04-.474.138-.69.092-.19.227-.356.394-.485.183-.136.39-.233.612-.287.255-.064.517-.096.78-.095h.386l.423.044.423.081c.133.029.264.066.393.11 0 .073 0 .242-.058.492l-.11.874c-.038.333-.082.688-.13 1.065-.049.377-.09.732-.124 1.065l-.11.874c0 .25-.05.418-.058.499h-.561l.54-4.516a1.5 1.5 0 00-.256-.067l-.299-.044H89.665a1.984 1.984 0 00-.466.059c-.149.035-.29.097-.416.184a1.01 1.01 0 00-.298.338c-.083.155-.123.33-.117.506a.82.82 0 00.102.426.817.817 0 00.292.287c.148.083.308.145.473.183.216.052.436.089.656.11l-.05.426a4.22 4.22 0 00-.504 0 1.114 1.114 0 00-.386.081.857.857 0 00-.299.221 1.552 1.552 0 00-.248.403l-.612 1.469h-.59l.729-1.652c.076-.177.18-.34.306-.485a.97.97 0 01.444-.279l.008-.066zM62.892 132.313a2.856 2.856 0 01-.78-.103 2.387 2.387 0 01-.605-.257l.175-.382c.208.094.426.166.649.213.194.039.392.059.59.059a1.615 1.615 0 001.305-.595c.16-.194.283-.415.365-.653.09-.267.152-.543.182-.823h-2.056l.051-.441 2.034.052a.653.653 0 000-.125v-.118a1.772 1.772 0 00-.335-1.16 1.248 1.248 0 00-1.013-.404 3.345 3.345 0 00-.59.059c-.25.049-.494.12-.73.213l-.146-.367c.252-.114.513-.205.78-.272.256-.064.517-.096.78-.096.272-.006.543.044.795.147.217.093.412.234.568.412.156.183.27.399.336.631.075.263.112.535.11.808a5.594 5.594 0 01-.11 1.065 3.24 3.24 0 01-.387 1.036c-.179.315-.428.584-.728.785a2.164 2.164 0 01-1.24.316zM66.683 127.209h.554c-.04.372-.083.734-.132 1.087-.048.352-.094.712-.138 1.079H68.3a.864.864 0 00.277-.08.835.835 0 00.27-.221c.1-.132.184-.278.247-.433l.11-.25.197-.455.196-.448.11-.257h.539l-.525 1.219c-.102.24-.219.473-.35.698a1.105 1.105 0 01-.54.477c.1.022.195.064.278.125a.727.727 0 01.182.213c.048.09.085.187.11.286 0 .111.05.221.08.346l.35 1.659h-.525c-.054-.259-.107-.521-.16-.786a24.363 24.363 0 01-.146-.785 1.09 1.09 0 00-.343-.691.95.95 0 00-.569-.176h-1.188l-.145 1.219c-.05.411-.1.818-.154 1.219h-.539l.62-5.045zM73.046 127.128c.283-.01.565.045.824.162.212.104.397.258.54.448.142.19.244.407.298.639.057.24.086.487.088.734-.003.353-.04.705-.11 1.05a3.35 3.35 0 01-.379 1.029 2.325 2.325 0 01-.729.785 2.012 2.012 0 01-1.151.309 1.993 1.993 0 01-.846-.154 1.402 1.402 0 01-.532-.426 1.607 1.607 0 01-.284-.617 3.346 3.346 0 01-.08-.735c.002-.373.043-.744.123-1.109.076-.367.211-.72.401-1.043.183-.308.432-.571.73-.771.33-.21.716-.314 1.107-.301zm0 .478a1.324 1.324 0 00-.882.286c-.236.2-.425.451-.554.734-.138.291-.233.6-.284.918a5.657 5.657 0 00-.08.911c0 .183.02.365.058.544.035.165.102.323.197.462.096.14.227.251.379.323.193.086.402.126.612.118.319.014.632-.087.882-.286.232-.2.414-.452.532-.735.128-.28.216-.577.263-.881.045-.275.07-.552.073-.83a3.27 3.27 0 00-.051-.58 1.389 1.389 0 00-.19-.5 1.067 1.067 0 00-.372-.352 1.128 1.128 0 00-.583-.132zM78.651 132.24l.307-2.453h-2.58l-.3 2.453h-.554l.605-5.009h.562l-.27 2.122h2.558l.27-2.122h.562l-.613 5.009h-.546zM82.836 127.128c.283-.011.565.045.823.162.213.104.398.258.54.448.143.189.244.407.299.638.057.241.086.488.087.735-.002.353-.039.704-.11 1.05a3.335 3.335 0 01-.378 1.028 2.318 2.318 0 01-.73.786 2.02 2.02 0 01-1.15.309c-.29.01-.579-.042-.846-.155a1.393 1.393 0 01-.54-.426 1.6 1.6 0 01-.284-.617 3.295 3.295 0 01-.08-.734c.002-.373.043-.745.124-1.109.076-.367.211-.72.4-1.043.183-.308.433-.572.73-.771a1.946 1.946 0 011.115-.301zm0 .477a1.33 1.33 0 00-.882.287 2.1 2.1 0 00-.554.734c-.139.291-.234.6-.284.918a5.59 5.59 0 00-.08.911c0 .183.019.365.058.543.034.166.1.324.197.463.095.14.226.251.379.323.19.085.397.125.605.118a1.33 1.33 0 00.882-.287c.231-.2.413-.451.532-.734.127-.28.215-.577.262-.881.045-.275.07-.552.073-.83a3.3 3.3 0 00-.051-.581 1.384 1.384 0 00-.19-.499 1.067 1.067 0 00-.371-.352 1.133 1.133 0 00-.576-.133zM86.539 127.973l-.182.955-.686 3.312h-.546l1.108-5.031h.612l.729 2.938.277 1.101h.044l.48-1.05 1.459-2.996h.626l-.043 5.03h-.51l.072-3.224v-1.05l-.48.97-1.459 2.856h-.56l-.73-2.864-.167-.947h-.044zM92.413 127.216l-.408 3.621a.62.62 0 000 .154v.154a.74.74 0 00.175.544c.163.129.37.19.576.169a2.91 2.91 0 001.771-.911l.438-3.731h.561c0 .157-.027.367-.08.632-.054.264-.09.556-.11.874-.038.318-.08.648-.123.991l-.117.999c-.039.318-.075.612-.11.881-.033.27-.058.483-.072.639h-.54l.102-.734c-.313.267-.661.49-1.035.661a2.226 2.226 0 01-.853.198 1.54 1.54 0 01-.546-.081.783.783 0 01-.518-.565 1.59 1.59 0 01-.05-.411v-.147-.147l.415-3.76.525-.03zM96.962 127.216l-.197 1.763c-.045.249-.012.505.095.734a.665.665 0 00.62.25 2.744 2.744 0 001.793-.734l.233-2.013h.554c0 .172-.027.392-.08.661-.054.269-.09.561-.11.874-.038.318-.075.644-.109.977-.034.333-.07.658-.11.977-.038.318-.075.609-.109.874l-.08.661h-.554c.054-.431.105-.857.153-1.278.049-.421.107-.833.175-1.234-.314.249-.67.44-1.05.565a3.059 3.059 0 01-.852.155 1.456 1.456 0 01-.664-.125.791.791 0 01-.342-.323 1.013 1.013 0 01-.11-.456 4.205 4.205 0 010-.536l.197-1.784.547-.008zM103.202 127.113c.203-.006.406.026.597.096.153.059.292.149.409.264.107.108.189.238.24.382a1.427 1.427 0 01-.182 1.278c-.196.24-.446.429-.729.551a4.051 4.051 0 01-1.042.323c-.422.075-.848.124-1.276.147a1.588 1.588 0 000 .169v.139c0 .163.017.326.051.485.032.16.093.312.182.448.095.14.223.253.372.331.19.094.401.14.612.132.246-.002.49-.031.729-.088.251-.064.495-.153.729-.265l.131.36a2.842 2.842 0 01-.78.309 3.98 3.98 0 01-.954.11 1.925 1.925 0 01-.824-.154 1.314 1.314 0 01-.51-.419 1.582 1.582 0 01-.263-.61 3.684 3.684 0 01-.073-.734c.003-.356.042-.71.117-1.058.077-.375.215-.735.408-1.065a2.49 2.49 0 01.773-.815 2.177 2.177 0 011.283-.316zm-.088.478a1.481 1.481 0 00-.729.169 1.722 1.722 0 00-.546.462c-.16.209-.286.442-.372.691a3.772 3.772 0 00-.197.859 5.395 5.395 0 001.983-.389 1.07 1.07 0 00.729-.999.818.818 0 00-.197-.58.855.855 0 00-.671-.199v-.014zM106.941 131.858c.245.002.49-.025.729-.081.248-.067.492-.15.729-.25l.131.36a3.422 3.422 0 01-.78.301 3.515 3.515 0 01-.918.125 2.133 2.133 0 01-.795-.132 1.293 1.293 0 01-.525-.382 1.575 1.575 0 01-.291-.588 2.881 2.881 0 01-.095-.734c.005-.337.037-.674.095-1.006.06-.379.181-.746.357-1.087.172-.344.422-.644.729-.874a2.109 2.109 0 011.275-.353 2.66 2.66 0 011.349.324l-.182.382a2.424 2.424 0 00-.729-.213c-.17-.01-.34-.01-.51 0a1.448 1.448 0 00-.81.22c-.239.154-.44.359-.59.602-.169.276-.29.579-.357.896-.08.359-.119.726-.117 1.094-.001.19.018.38.059.566.034.166.101.323.196.463a.958.958 0 00.372.308c.218.077.451.097.678.059zM109.995 127.209h.554c-.039.372-.08.734-.124 1.087l-.138 1.079h1.348a.864.864 0 00.277-.08.814.814 0 00.27-.221c.101-.132.185-.278.248-.433l.109-.25.197-.455.197-.448.109-.257h.51l-.525 1.219a6.4 6.4 0 01-.349.698 1.106 1.106 0 01-.54.477c.1.022.194.064.277.125a.716.716 0 01.182.213c.049.09.085.187.11.286 0 .111.058.221.08.346l.35 1.659h-.54l-.16-.786a26.786 26.786 0 01-.146-.785 1.088 1.088 0 00-.342-.691.951.951 0 00-.569-.176h-1.174c-.048.397-.097.803-.145 1.219-.049.416-.1.823-.153 1.219h-.54l.627-5.045zM116.468 127.15c.218 0 .436.022.649.066.214.045.424.109.627.191l.08-.25h.408c0 .118-.026.289-.08.515l-.102.778-.116.925-.117.94-.102.838c-.029.254-.051.457-.066.609h.627l.044.353a2.037 2.037 0 01-.43.139 1.83 1.83 0 01-.314 0 .476.476 0 01-.335-.095.368.368 0 01-.102-.287v-.132a1.843 1.843 0 010-.235 3.95 3.95 0 01-.904.573 2.117 2.117 0 01-.867.198 1.274 1.274 0 01-.984-.44 1.939 1.939 0 01-.394-1.322c.002-.401.051-.801.146-1.19.088-.387.239-.756.445-1.094.194-.32.458-.591.772-.793a2 2 0 011.115-.287zm0 .477a1.464 1.464 0 00-.728.191c-.237.139-.439.33-.591.559a3.022 3.022 0 00-.408.888 4.219 4.219 0 00-.153 1.183c-.035.38.066.76.284 1.072a.869.869 0 00.678.316c.3-.004.593-.085.853-.235.287-.159.558-.346.809-.558l.43-3.166a2.927 2.927 0 00-.62-.198 2.941 2.941 0 00-.554-.074v.022zM120.113 129.809a1.119 1.119 0 01-.86-1.131c-.007-.238.04-.474.138-.691.093-.19.227-.356.394-.484.183-.136.391-.234.612-.287.255-.064.517-.097.78-.095h.387l.422.044.423.081c.133.029.265.066.394.11 0 .073 0 .242-.058.492l-.11.874c-.039.333-.082.688-.131 1.065s-.09.732-.124 1.065l-.109.874c0 .249-.051.418-.059.499h-.554l.54-4.517a1.592 1.592 0 00-.255-.066l-.299-.044H121.097a1.977 1.977 0 00-.466.059c-.149.035-.29.097-.416.184a1.03 1.03 0 00-.299.337 1.006 1.006 0 00-.116.507.812.812 0 00.102.426.814.814 0 00.291.286c.149.084.308.146.474.184.216.052.435.088.656.11l-.051.426a4.22 4.22 0 00-.503 0 1.115 1.115 0 00-.386.081.846.846 0 00-.299.22 1.569 1.569 0 00-.248.404l-.612 1.469h-.569l.729-1.652c.077-.177.18-.34.306-.485a.976.976 0 01.423-.345zM63.038 143.998a4.694 4.694 0 01-.853-.081 3.019 3.019 0 01-.729-.235l.153-.389c.223.093.455.16.693.198.24.043.484.065.729.066.2.001.398-.026.59-.081.183-.051.355-.133.51-.242.15-.106.275-.244.365-.404.095-.173.143-.368.138-.565a.739.739 0 00-.364-.669c-.12-.07-.25-.12-.386-.147-.15-.03-.3-.045-.452-.044h-.627v-.198a1.392 1.392 0 010-.198h.532c.172 0 .344-.022.51-.066.154-.041.3-.108.43-.199a1.06 1.06 0 00.3-.308.74.74 0 00.109-.404.607.607 0 00-.321-.558 1.643 1.643 0 00-.817-.184 3.887 3.887 0 00-1.45.331c0-.066-.051-.133-.073-.199l-.058-.191a3.99 3.99 0 01.867-.308c.27-.065.546-.1.824-.103.396-.015.788.084 1.13.287a.924.924 0 01.444.844c0 .266-.087.524-.248.735-.183.24-.439.415-.729.499.256.059.49.192.671.382.18.201.273.464.262.734.009.256-.049.509-.167.735-.113.21-.27.393-.46.536a2.08 2.08 0 01-.677.338 3.01 3.01 0 01-.846.088zM68.41 138.805c.284-.01.565.045.824.162.212.105.397.258.54.448.142.19.244.407.298.639.057.241.087.487.088.734-.003.353-.04.705-.11 1.051a3.344 3.344 0 01-.379 1.028 2.328 2.328 0 01-.729.786 2.02 2.02 0 01-1.151.308 1.993 1.993 0 01-.846-.154 1.402 1.402 0 01-.532-.426 1.606 1.606 0 01-.284-.617 3.337 3.337 0 01-.08-.734c.002-.373.043-.745.123-1.109.076-.368.211-.72.401-1.043.184-.309.433-.572.73-.771.33-.21.716-.315 1.107-.302zm0 .478a1.33 1.33 0 00-.882.286 2.108 2.108 0 00-.554.735c-.138.29-.233.599-.284.918a5.633 5.633 0 00-.08.91c0 .183.02.365.058.544.035.166.102.323.197.463a.97.97 0 00.379.323c.192.085.402.126.612.117.319.014.632-.088.882-.286.232-.2.414-.452.532-.735.127-.28.216-.577.263-.881.045-.274.07-.552.073-.83 0-.194-.017-.389-.051-.58a1.382 1.382 0 00-.19-.499 1.08 1.08 0 00-.371-.353 1.138 1.138 0 00-.584-.132zM74.015 143.924l.306-2.453h-2.58l-.299 2.453h-.554l.605-5.008h.562l-.263 2.122h2.559l.27-2.122h.56l-.612 5.008h-.554zM78.308 138.827c.218 0 .436.022.65.067.213.045.423.108.626.19l.08-.249h.409c0 .117-.027.289-.08.514l-.103.778-.116.926-.117.94-.102.837c-.03.255-.051.458-.066.61h.627l.044.352a2.097 2.097 0 01-.43.14c-.104.009-.21.009-.314 0a.48.48 0 01-.335-.096.378.378 0 01-.102-.286v-.132a1.739 1.739 0 010-.235 3.968 3.968 0 01-.904.572 2.134 2.134 0 01-.867.199 1.275 1.275 0 01-.984-.441 1.941 1.941 0 01-.394-1.322c.003-.401.052-.8.146-1.19.088-.386.239-.756.445-1.094a2.47 2.47 0 01.772-.793 2 2 0 011.115-.287zm0 .478a1.446 1.446 0 00-.728.191 1.803 1.803 0 00-.59.558 3.026 3.026 0 00-.409.889 4.214 4.214 0 00-.153 1.182c-.035.38.066.76.284 1.072a.879.879 0 00.678.316c.3-.004.593-.085.853-.235.287-.159.558-.346.809-.558l.43-3.166a2.994 2.994 0 00-.62-.198 2.854 2.854 0 00-.568-.051h.014zM14.805 42.163a.246.246 0 01-.182-.11L6.167 28.65a.266.266 0 010-.125.258.258 0 010-.066v-.044L21.015 7.116a.218.218 0 01.175-.095L45.405 4.26h.11a.263.263 0 01.116.088.222.222 0 010 .169l-.044.08-30.615 37.42a.241.241 0 01-.167.146zM6.692 28.598l8.135 12.919L44.356 5.442 6.692 28.598zM21.35 7.425l-14.142 20.3L44.385 4.861 21.35 7.425z" fill="#fff"/><path d="M28.996 75.807a.239.239 0 01-.218-.147l-7.8-17.163-16.467-9.82a.242.242 0 01-.087-.33.24.24 0 01.328-.059l15.905 9.482-6.072-15.761a.236.236 0 01.058-.265.247.247 0 01.27 0l27.16 13.778a.242.242 0 01.124.257.243.243 0 01-.204.198L21.977 58.46l33.99 15.893a.242.242 0 01.054.398.232.232 0 01-.142.057l-26.883.999zm-7.384-16.995l7.552 16.503 25.746-.955-33.298-15.548zm-6.363-16.4l6.035 15.651 19.878-2.467-25.913-13.183z" fill="#fff"/><path d="M4.629 48.707a.252.252 0 01-.124 0 .241.241 0 01-.11-.228L6.13 28.496a.242.242 0 01.256-.184.24.24 0 01.218.227L4.942 48.002l9.768-6.287a.24.24 0 01.397.15.245.245 0 01-.142.254L4.76 48.663a.232.232 0 01-.131.044zM55.901 74.808a.247.247 0 01-.19-.096l-13.936-18.83a.24.24 0 01.047-.334.235.235 0 01.332.047L56.09 74.434a.236.236 0 01-.044.33.247.247 0 01-.146.045z" fill="#fff"/><path d="M55.901 74.808a.247.247 0 01-.19-.096l-13.936-18.83a.244.244 0 010-.235L55.449 22.37 14.906 42.134a.234.234 0 01-.323-.291.236.236 0 01.12-.135l41.089-20.043a.246.246 0 01.16 0h.037c.042.02.075.054.095.096L71.61 55.632a.25.25 0 010 .25L56.084 74.727a.219.219 0 01-.183.081zM42.234 55.713l13.682 18.478 15.198-18.493-15.198-33.225-13.682 33.24zM72.732 34.496a.232.232 0 01-.226-.177l-4.534-16.73a.384.384 0 010-.066.243.243 0 01.183-.227.23.23 0 01.244.086.234.234 0 01.04.082l4.541 16.73a.56.56 0 010 .067.243.243 0 01-.175.235h-.073z" fill="#fff"/><path d="M71.384 55.978h-.058c-.059 0-.11 0-.131-.33-.066-1.014.167-5.002 1.297-21.24L55.763 22.077a.25.25 0 01-.066-.074L45.23 4.62a.237.237 0 01.024-.3.233.233 0 01.297-.03l22.764 13.028a.243.243 0 01-.233.418L46.112 5.163l9.972 16.554 16.765 12.346a.25.25 0 01.095.212c-.54 8.138-1.363 20.41-1.327 21.357a.251.251 0 01-.093.305.247.247 0 01-.14.04z" fill="#fff"/><path d="M55.902 74.808a.24.24 0 01-.233-.242V21.849a.243.243 0 01.16-.22l12.29-4.334a.24.24 0 01.361.232.245.245 0 01-.104.177.239.239 0 01-.097.04l-12.144 4.31v52.519a.236.236 0 01-.233.235z" fill="#fff"/><path d="M55.77 75.675a1.39 1.39 0 001.386-1.396c0-.77-.62-1.395-1.385-1.395a1.39 1.39 0 00-1.385 1.395c0 .77.62 1.396 1.385 1.396zM29.012 76.953a1.39 1.39 0 001.385-1.396c0-.77-.62-1.395-1.385-1.395a1.39 1.39 0 00-1.385 1.395c0 .77.62 1.396 1.385 1.396zM71.18 57.035c.76 0 1.378-.621 1.378-1.388 0-.767-.617-1.388-1.378-1.388-.76 0-1.378.621-1.378 1.388 0 .767.617 1.388 1.378 1.388zM73.877 34.268a1.395 1.395 0 01-.862 1.273 1.368 1.368 0 01-1.498-.314 1.392 1.392 0 01.224-2.132 1.37 1.37 0 012.036.64c.068.169.102.35.1.533zM67.994 19.095A1.39 1.39 0 0069.38 17.7c0-.771-.62-1.396-1.385-1.396A1.39 1.39 0 0066.61 17.7c0 .77.62 1.395 1.385 1.395zM57.36 22.157a1.403 1.403 0 01-.849 1.294 1.376 1.376 0 01-1.51-.294 1.4 1.4 0 01-.309-1.52c.103-.255.28-.474.507-.628a1.378 1.378 0 011.3-.138 1.379 1.379 0 01.754.752c.07.17.106.351.106.534zM45.39 5.875a1.39 1.39 0 001.386-1.395c0-.77-.62-1.395-1.385-1.395a1.39 1.39 0 00-1.385 1.395c0 .77.62 1.395 1.385 1.395zM22.75 7.425c0 .276-.081.546-.234.776a1.387 1.387 0 01-1.424.592 1.382 1.382 0 01-.709-.384 1.399 1.399 0 01-.295-1.523 1.377 1.377 0 012.26-.445c.257.261.402.615.402.984zM6.43 30.163a1.39 1.39 0 001.384-1.396c0-.77-.62-1.395-1.385-1.395a1.39 1.39 0 00-1.385 1.395c0 .77.62 1.396 1.385 1.396zM14.724 43.228a1.39 1.39 0 001.385-1.395c0-.771-.62-1.396-1.385-1.396a1.39 1.39 0 00-1.385 1.396c0 .77.62 1.395 1.385 1.395zM4.848 49.904c.76 0 1.377-.622 1.377-1.388 0-.767-.616-1.388-1.377-1.388s-1.378.621-1.378 1.388c0 .767.617 1.388 1.378 1.388zM22.75 58.467a1.403 1.403 0 01-.835 1.31 1.375 1.375 0 01-1.519-.283 1.398 1.398 0 01-.313-1.524c.104-.257.281-.477.51-.631a1.377 1.377 0 011.741.16 1.4 1.4 0 01.416.968zM41.6 57.16a1.39 1.39 0 001.385-1.395c0-.771-.62-1.396-1.385-1.396a1.39 1.39 0 00-1.385 1.395c0 .771.62 1.396 1.385 1.396z" fill="#fff"/><path d="M44.304 81.05a.217.217 0 01-.204-.124.244.244 0 01.088-.33l23.646-12.978 8.441-29.494-8.353-23.818a.251.251 0 01.145-.308.233.233 0 01.3.147l8.382 23.861c.017.048.017.1 0 .147l-8.485 29.693a.235.235 0 01-.116.147L44.42 81.02a.225.225 0 01-.117.03z" fill="#fff"/><path d="M67.827 45.35a.243.243 0 01-.233-.235l.32-30.897a.243.243 0 01.237-.284.238.238 0 01.184.087.243.243 0 01.053.197l-.32 30.905a.235.235 0 01-.241.227zM11.24 69.586a.24.24 0 01-.217-.175.243.243 0 01.094-.265l6.677-4.01-9.528-31.823a.222.222 0 010-.095l2.428-20.483-9.25 23.068a.241.241 0 01-.295.093.241.241 0 01-.143-.276l9.906-24.728a.242.242 0 01.277-.14.233.233 0 01.175.257L8.74 33.225l9.564 31.955a.236.236 0 01-.102.272l-6.838 4.098a.232.232 0 01-.123.036z" fill="#fff"/><path d="M44.304 81.05h-.08L11.16 69.587a.241.241 0 01-.122-.295.242.242 0 01.275-.16l32.896 11.398 8.245-11.912a.228.228 0 01.175-.103l15.169-1.373-.168-21.79-27.97-3.981a.232.232 0 01-.203-.206c0-.08-1.079-8.593-2.092-16.994-2.078-17.208-1.968-17.244-1.699-17.333a.232.232 0 01.3.147.267.267 0 010 .162c-.088 1.22 2.784 24.574 3.935 33.783l27.962 3.966a.24.24 0 01.204.235l.204 22.253a.243.243 0 01-.211.242l-15.308 1.381-8.28 11.971a.247.247 0 01-.168.074z" fill="#fff"/><path d="M67.827 45.35a.243.243 0 01-.233-.235l.32-30.897a.243.243 0 01.237-.284.238.238 0 01.184.087.243.243 0 01.053.197l-.32 30.905a.235.235 0 01-.241.227zM11.13 11.222a.24.24 0 01-.16-.417.234.234 0 01.08-.046L38.99.786a.231.231 0 01.299.147.238.238 0 01-.066.255.232.232 0 01-.08.046L11.211 11.2l-.08.022zM11.24 69.586a.24.24 0 01-.24-.22L8.237 33.453a.222.222 0 01.073-.184L35.557 6.89a.24.24 0 01.309.033.244.244 0 01.02.312L8.717 33.512l2.785 35.802a.243.243 0 01-.219.258l-.044.014z" fill="#fff"/><path d="M1.224 35.957a.232.232 0 01-.248-.197.236.236 0 01.175-.265l7.29-2.475a.239.239 0 01.288.328.235.235 0 01-.136.12l-7.296 2.474-.073.015zM68.148 14.46h-.051L35.696 7.294a.24.24 0 01-.139-.133.251.251 0 010-.212L38.89.896A.24.24 0 0139.202.8a.242.242 0 01.095.324l-3.193 5.772 32.073 7.095a.234.234 0 01.208.26.233.233 0 01-.259.21h.022z" fill="#fff"/><path d="M67.827 45.35a.246.246 0 01-.197-.073L35.558 7.212a.24.24 0 01.029-.338.237.237 0 01.335.03l32.073 38.065a.236.236 0 010 .33.21.21 0 01-.168.051z" fill="#fff"/><path d="M52.658 68.992a.246.246 0 01-.211-.11c-.219-.324-11.663-24.854-12.975-27.652a.237.237 0 01.11-.315.24.24 0 01.313.11c4.103 8.732 11.699 24.948 12.814 27.313 1.4-1.866 9.476-14.689 14.914-23.34a.24.24 0 01.41.09.244.244 0 01-.009.167C53.19 68.985 52.818 68.991 52.658 68.991z" fill="#fff"/><path d="M18.063 65.466a.254.254 0 01-.16-.059.243.243 0 010-.337l21.35-23.803L8.44 33.475a.241.241 0 01-.175-.294.236.236 0 01.12-.161.231.231 0 01.2-.008L39.785 40.9a.24.24 0 01.172.282.236.236 0 01-.056.107L18.252 65.393a.233.233 0 01-.19.073z" fill="#fff"/><path d="M44.304 81.05a.208.208 0 01-.116 0L17.946 65.466a.233.233 0 01-.11-.236.236.236 0 01.265-.199c.03.005.06.015.086.031L44.428 80.64a.234.234 0 01.114.243.236.236 0 01-.033.088.233.233 0 01-.205.08z" fill="#fff"/><path d="M52.65 68.984l-34.587-3.518a.23.23 0 01-.176-.091.235.235 0 01-.043-.195.24.24 0 01.255-.213l34.573 3.518a.232.232 0 01.205.17c.008.03.01.063.006.094a.243.243 0 01-.233.235zM68.147 14.46a.247.247 0 01-.102 0L38.975 1.242a.25.25 0 01-.109-.338.25.25 0 01.336-.11l29.077 13.22a.234.234 0 01.148.269.235.235 0 01-.243.186l-.037-.007zM11.131 11.222a.24.24 0 01-.199-.239.243.243 0 01.2-.238l24.571-3.922a.24.24 0 01.266.2.244.244 0 01-.185.277l-24.616 3.915-.037.007zM11.24 69.586a.24.24 0 01-.226-.168L.999 35.803a.243.243 0 01.168-.258.239.239 0 01.283.118l10.052 33.6a.236.236 0 01-.16.294l-.102.03zM67.826 45.35a.245.245 0 01-.182-.088.243.243 0 010-.337l8.733-6.992a.24.24 0 01.335 0 .243.243 0 010 .338l-8.74 7.043a.217.217 0 01-.145.036zM39.755 42.596a1.39 1.39 0 001.385-1.395c0-.77-.62-1.395-1.385-1.395A1.39 1.39 0 0038.37 41.2c0 .77.62 1.395 1.385 1.395z" fill="#fff"/><path d="M35.805 8.674a1.39 1.39 0 001.385-1.396c0-.77-.62-1.395-1.385-1.395a1.39 1.39 0 00-1.385 1.395c0 .77.62 1.396 1.385 1.396zM40.23 1.395a1.403 1.403 0 01-.856 1.29 1.375 1.375 0 01-1.509-.303 1.398 1.398 0 01-.3-1.52 1.378 1.378 0 012.259-.453 1.4 1.4 0 01.405.986zM11.437 12.397c.764 0 1.384-.622 1.384-1.388 0-.767-.62-1.388-1.384-1.388-.765 0-1.385.621-1.385 1.388 0 .766.62 1.388 1.385 1.388zM1.385 37.14a1.39 1.39 0 001.385-1.396c0-.77-.62-1.395-1.385-1.395A1.39 1.39 0 000 35.744c0 .77.62 1.396 1.385 1.396zM9.855 33.423A1.395 1.395 0 019 34.701a1.367 1.367 0 01-1.5-.306 1.391 1.391 0 01-.295-1.512c.105-.253.281-.47.508-.622a1.37 1.37 0 01.765-.233c.366.002.716.15.974.411a1.4 1.4 0 01.403.984zM18.457 66.487a1.39 1.39 0 001.385-1.395c0-.771-.62-1.396-1.385-1.396a1.39 1.39 0 00-1.385 1.396c0 .77.62 1.395 1.385 1.395zM11.24 70.717c.765 0 1.385-.621 1.385-1.388 0-.766-.62-1.388-1.385-1.388-.764 0-1.385.622-1.385 1.388 0 .767.62 1.388 1.385 1.388zM52.657 70.049a1.39 1.39 0 001.385-1.395c0-.771-.62-1.396-1.385-1.396a1.39 1.39 0 00-1.384 1.396c0 .77.62 1.395 1.384 1.395zM67.885 68.771c.76 0 1.378-.621 1.378-1.388 0-.767-.617-1.388-1.378-1.388-.76 0-1.378.621-1.378 1.388 0 .767.617 1.388 1.378 1.388zM69.161 45.086a1.402 1.402 0 01-.852 1.295 1.375 1.375 0 01-1.512-.3 1.398 1.398 0 01-.3-1.525c.107-.255.285-.473.514-.626a1.378 1.378 0 011.744.177 1.4 1.4 0 01.406.98zM77.638 38.293a1.403 1.403 0 01-.856 1.29 1.375 1.375 0 01-1.51-.306 1.4 1.4 0 01.217-2.148 1.379 1.379 0 011.746.18c.258.261.403.615.403.984zM67.885 15.797a1.39 1.39 0 001.385-1.395c0-.77-.62-1.395-1.385-1.395a1.39 1.39 0 00-1.385 1.395c0 .77.62 1.396 1.385 1.396zM44.305 82.211a1.39 1.39 0 001.385-1.395c0-.771-.62-1.396-1.385-1.396a1.39 1.39 0 00-1.385 1.396c0 .77.62 1.395 1.385 1.395z" fill="#fff"/></svg></svg>