<svg width="100" height="18" viewBox="0 0 100 18" fill="none" xmlns="http://www.w3.org/2000/svg">
<g opacity="0.795">
<path opacity="0.795" fill-rule="evenodd" clip-rule="evenodd" d="M5.227 11.67C6.557 11.67 7.639 10.358 7.639 8.853C7.639 7.292 6.558 6.037 5.227 6.037C3.896 6.037 2.816 7.292 2.816 8.853C2.816 10.358 3.896 11.67 5.226 11.67H5.227ZM2.816 0V5.44C3.819 4.34 5.092 3.993 5.979 3.993C8.468 3.993 10.454 6.231 10.454 8.853C10.454 11.497 8.448 13.714 5.979 13.714C5.092 13.714 3.819 13.368 2.816 12.267V13.503H0V0H2.816ZM16.42 10.474C16.42 9.722 15.764 9.24 15.147 9.24C14.414 9.24 13.913 9.819 13.913 10.435C13.913 11.034 14.376 11.67 15.147 11.67C15.86 11.67 16.42 11.169 16.42 10.474ZM11.964 4.495C12.871 4.148 13.739 3.993 14.723 3.993C17.133 3.993 19.236 4.88 19.236 7.793V13.503H16.42V12.693C15.803 13.329 14.954 13.715 14.202 13.715C12.64 13.715 11.097 12.287 11.097 10.512C11.097 8.679 12.505 7.194 14.221 7.194C15.031 7.194 15.764 7.465 16.421 8.082C16.478 6.076 14.684 6.057 14.164 6.057C13.277 6.057 12.679 6.173 11.964 6.443V4.495ZM26.872 6.501C26.37 6.211 25.888 6.038 25.348 6.038C23.804 6.038 22.821 7.098 22.821 8.931C22.821 10.397 23.554 11.671 25.271 11.671C25.811 11.671 26.332 11.555 26.872 11.285L27.972 12.944C27.142 13.349 26.022 13.714 24.981 13.714C23.245 13.714 20.005 12.712 20.005 8.951C20.005 6.134 21.76 3.993 24.981 3.993C26.486 3.993 27.412 4.513 27.971 4.861L26.872 6.5V6.501ZM28.63 4.184H31.446V8.237L34.012 4.205H36.944L33.78 8.16L37.271 13.502H34.358L32.372 9.916L31.446 10.995V13.502H28.63V4.184ZM48.504 4.205H51.318V5.69C51.936 4.263 53.249 4.011 53.962 3.993V6.134C52.67 6.172 51.744 6.964 51.318 7.947V13.503H48.504V4.205ZM58.787 11.67C60.118 11.67 61.179 10.377 61.179 8.853C61.179 7.273 60.119 6.037 58.787 6.037C57.437 6.037 56.375 7.292 56.375 8.853C56.375 10.358 57.418 11.67 58.787 11.67ZM58.787 3.993C61.603 3.993 63.995 6.154 63.995 8.853C63.995 11.554 61.603 13.714 58.787 13.714C55.933 13.714 53.561 11.534 53.561 8.854C53.561 6.172 55.933 3.994 58.787 3.994V3.993ZM73.14 13.503H70.324V12.403C69.803 13.175 68.992 13.714 67.816 13.714C64.904 13.714 64.806 11.13 64.806 9.799V4.204H67.624V9.51C67.624 10.32 67.662 11.67 68.916 11.67C69.976 11.67 70.324 10.995 70.324 9.896V4.204H73.139V13.503H73.14ZM74.742 4.205H77.556V5.325C78.388 4.089 79.679 3.993 80.045 3.993C81.532 3.993 83.075 4.765 83.075 7.929V13.503H80.259V8.217C80.259 6.577 79.892 6.037 78.966 6.037C77.576 6.037 77.556 7.003 77.556 8.526V13.503H74.742V4.205ZM89.114 6.037C87.781 6.037 86.701 7.292 86.701 8.853C86.701 10.358 87.781 11.67 89.114 11.67C90.444 11.67 91.524 10.358 91.524 8.853C91.524 7.292 90.444 6.037 89.114 6.037ZM91.524 12.267C90.521 13.367 89.249 13.714 88.361 13.714C85.893 13.714 83.886 11.497 83.886 8.854C83.886 6.231 85.872 3.994 88.361 3.994C89.249 3.994 90.521 4.34 91.524 5.44V0H94.34V13.503H91.524V12.268V12.267Z" fill="#9E9E9E"/>
<mask id="mask0" mask-type="alpha" maskUnits="userSpaceOnUse" x="0" y="0" width="100" height="18">
<path opacity="0.795" d="M0 18H99.707V0H0V18Z" fill="white"/>
</mask>
<g mask="url(#mask0)">
<path fill-rule="evenodd" clip-rule="evenodd" d="M95.7659 13.5142H99.7069V10.9242H95.7659V13.5142ZM41.7299 11.6702C40.3999 11.6702 39.3189 10.3582 39.3189 8.85316C39.3189 7.29216 40.3989 6.03716 41.7309 6.03716C43.0609 6.03716 44.1409 7.29216 44.1409 8.85316C44.1409 10.3582 43.0609 11.6702 41.7309 11.6702H41.7299ZM46.9569 4.20516H44.1419V5.44016C43.1379 4.34016 41.8659 3.99316 40.9779 3.99316C38.4899 3.99316 36.5039 6.23116 36.5039 8.85316C36.5039 11.4972 38.5099 13.7142 40.9779 13.7142C41.8659 13.7142 43.1379 13.3682 44.1419 12.2672C44.1419 12.2672 44.1439 12.8722 44.1419 13.0742L44.1399 13.1612C44.1399 14.6432 43.2799 15.7572 41.5919 15.7572C40.6059 15.7572 39.4449 15.5302 38.5999 14.7802L37.3119 16.6082C38.4899 17.5002 40.2859 18.0002 41.8169 18.0002C44.9319 18.0002 46.9609 16.4102 46.9609 12.9272L46.9569 4.20516Z" fill="#9E9E9E"/>
</g>
</g>
</svg>
