<svg width="166" height="40" viewBox="0 0 166 40" fill="none" xmlns="http://www.w3.org/2000/svg">
<mask id="mask0" mask-type="alpha" maskUnits="userSpaceOnUse" x="0" y="0" width="166" height="40">
<path d="M0 0H166V40H0V0Z" fill="white"/>
</mask>
<g mask="url(#mask0)">
<path fill-rule="evenodd" clip-rule="evenodd" d="M76.0899 21.0506V15.2776C76.0899 15.2776 76.0015 15.1894 75.735 15.1004C74.667 14.7453 73.599 14.5674 72.5319 14.6563C70.9308 14.7453 69.6854 15.4555 68.9731 16.8767C68.44 17.9412 68.2617 19.1861 68.1734 20.3396C68.0834 21.938 68.1734 23.5363 68.7065 25.1355C69.1514 26.4678 70.0419 27.4449 71.4648 27.711C72.9767 28.0661 74.4004 27.711 75.735 27C76.0015 26.8229 76.0907 26.7339 76.0907 26.7339V21.0506H76.0899ZM81.9612 31.618C80.3601 31.7078 78.5815 31.8849 76.8013 32.062C76.7138 31.4408 76.5355 30.9078 76.4456 30.3747C75.5567 30.7306 74.7553 31.1739 73.9548 31.5298C71.5539 32.4172 69.1514 32.3298 66.9272 30.9967C64.9703 29.8425 63.9024 28.0661 63.1917 26.0237C62.3012 23.0041 62.2129 19.8963 63.1917 16.8759C64.3472 13.2351 67.0171 11.2808 70.7533 10.7494C72.5319 10.4816 74.3113 10.5714 76.179 11.1045V0.447349C78.0467 0.270206 79.8261 0.181226 81.6063 0.00326682V25.0465C81.5163 27.711 81.7837 29.5755 81.962 31.618H81.9612ZM51.8048 27.8882L51.9822 26.5559C52.0706 25.8457 52.1597 25.2253 52.2496 24.8686C52.6945 23.0931 53.4059 21.4057 53.9399 19.7176C54.7413 16.9657 56.7856 11.0155 56.7856 11.0155H62.5686C62.123 12.1698 61.7681 13.2351 61.3224 14.3012C59.099 19.9845 54.4731 31.7078 54.4731 31.7078H48.9574C48.9574 31.7078 40.9502 11.1935 40.9502 11.0155C42.1964 10.9274 46.9998 10.5714 46.9998 10.5714C46.9998 10.5714 49.0458 17.32 50.0246 20.4286C50.4694 21.8498 51.0026 23.3592 51.4474 24.8694C51.5374 25.1355 51.6257 25.7567 51.7148 26.5559L51.804 27.8882H51.8048ZM86.1423 0.447349C87.9217 0.270206 89.7894 0.181226 91.5696 0.00245094V31.6188H86.1423V0.447349ZM105.713 10.9265C104.379 12.6139 103.045 14.2122 101.799 15.8996C100.998 16.9657 100.109 18.031 99.3086 19.0963C98.8638 19.6294 97.0852 20.3396 96.1955 20.4286C97.0852 20.4286 98.7754 21.1388 99.2195 21.6718C101.265 24.4253 103.489 27.711 105.536 30.4637V31.618H99.9317L92.6375 20.3396C94.8609 17.409 97.4401 13.858 99.576 10.9274H105.713V10.9265ZM117.337 20.0678V15.9494H114.699V20.0678H113.884V15.24H118.153V20.0678H117.337ZM120.532 17.6539C120.532 18.6025 120.974 19.4833 122.048 19.4833C123.017 19.4833 123.535 18.7265 123.535 17.6547C123.535 16.5812 123.017 15.8261 122.048 15.8261C120.974 15.8261 120.532 16.7061 120.532 17.6547V17.6539ZM120.513 15.2408V15.7576H120.724C120.992 15.4229 121.463 15.1159 122.231 15.1159C123.563 15.1159 124.35 16.2269 124.35 17.6547C124.35 19.1102 123.563 20.1918 122.231 20.1918C121.463 20.1918 121.012 19.8947 120.753 19.5502H120.542V21.9829H119.727V15.24H120.513V15.2408ZM129.272 17.6539C129.272 16.7061 128.773 15.8253 127.708 15.8253C126.634 15.8253 126.145 16.7061 126.145 17.6539C126.145 18.6025 126.634 19.4833 127.708 19.4833C128.773 19.4833 129.272 18.6016 129.272 17.6547V17.6539ZM130.087 17.6547C130.087 19.0808 129.215 20.1918 127.708 20.1918C126.192 20.1918 125.329 19.0816 125.329 17.6539C125.329 16.2269 126.192 15.1159 127.708 15.1159C129.215 15.1159 130.087 16.2269 130.087 17.6547ZM135.594 15.24V19.3592H136.476V21.4376H135.69V20.0678H131.363V15.24H132.179V19.3592H134.779V15.24H135.594ZM138.088 16.9649H140.88C140.832 16.3518 140.362 15.8253 139.547 15.8253C138.673 15.8253 138.193 16.3518 138.088 16.9649ZM141.724 17.6449H138.041C138.069 18.7935 138.587 19.4833 139.584 19.4833C140.266 19.4833 140.669 19.1959 140.813 18.7363H141.639C141.485 19.5592 140.784 20.1918 139.584 20.1918C138.079 20.1918 137.234 19.0906 137.234 17.6065C137.234 16.1208 138.098 15.1159 139.566 15.1159C141.005 15.1159 141.695 16.1796 141.724 17.3673V17.6449ZM147.077 18.6114C146.896 19.56 146.166 20.1927 145.043 20.1927C143.537 20.1927 142.693 19.0816 142.693 17.6539C142.693 16.1992 143.537 15.1159 145.043 15.1159C146.196 15.1159 146.885 15.7478 147.049 16.6384H146.233C146.079 16.1502 145.706 15.8253 145.043 15.8253C143.95 15.8253 143.508 16.6767 143.508 17.6351C143.508 18.6016 143.959 19.4841 145.043 19.4841C145.735 19.4841 146.138 19.1494 146.262 18.6114H147.077ZM152.383 18.6114C152.2 19.56 151.471 20.1927 150.348 20.1927C148.843 20.1927 147.998 19.0816 147.998 17.6539C147.998 16.1992 148.843 15.1159 150.349 15.1159C151.5 15.1159 152.191 15.7478 152.353 16.6384H151.537C151.384 16.1502 151.011 15.8253 150.349 15.8253C149.255 15.8253 148.813 16.6767 148.813 17.6351C148.813 18.6016 149.263 19.4841 150.348 19.4841C151.039 19.4841 151.442 19.1494 151.567 18.6114H152.383Z" fill="#212121"/>
<mask id="mask1" mask-type="alpha" maskUnits="userSpaceOnUse" x="-9" y="-9" width="175" height="61">
<path d="M-8.99512 51.0906H165.765V-8.24326H-8.99512V51.0906Z" fill="white"/>
</mask>
<g mask="url(#mask1)">
<path fill-rule="evenodd" clip-rule="evenodd" d="M158.35 20.0678H159.165V15.24H158.35V20.0678ZM154.417 19.3592H155.635C156.479 19.3592 156.757 19.0139 156.757 18.449C156.757 17.8735 156.479 17.5396 155.635 17.5396H154.417V19.3592ZM154.417 15.24V16.8498H155.75C156.931 16.8498 157.573 17.4539 157.573 18.4498C157.573 19.4547 156.931 20.0678 155.75 20.0678H153.601V15.24H154.416H154.417ZM113.884 31.56V26.7322H114.681V30.4678H114.892L117.012 26.7322H118.202V31.56H117.405V27.8245H117.194L115.036 31.56H113.884ZM125.205 29.6057V29.1649H123.756C122.959 29.1649 122.595 29.5102 122.595 30.0849C122.595 30.6318 122.998 30.9747 123.717 30.9747C124.524 30.9747 125.205 30.3722 125.205 29.6057ZM125.234 31.0514H125.023C124.725 31.4261 124.207 31.6841 123.516 31.6841C122.403 31.6841 121.779 30.938 121.779 30.1135C121.779 29.338 122.288 28.5143 123.631 28.5143H125.205V28.3225C125.205 27.738 124.869 27.3176 124.024 27.3176C123.305 27.3176 122.941 27.5951 122.902 28.0163H122.086C122.153 27.1249 122.92 26.6082 124.005 26.6082C125.224 26.6082 126.001 27.1935 126.001 28.2743V31.5592H125.234V31.0514ZM130.95 31.56V27.4416H128.312V31.56H127.497V26.7322H131.766V31.56H130.95ZM136.793 31.56V27.4416H134.154V31.56H133.339V26.7322H137.608V31.56H136.793ZM142.233 29.6057V29.1649H140.784C139.987 29.1649 139.622 29.5102 139.622 30.0849C139.622 30.6318 140.026 30.9747 140.745 30.9747C141.551 30.9747 142.233 30.3722 142.233 29.6057ZM142.261 31.0514H142.05C141.753 31.4261 141.235 31.6841 140.544 31.6841C139.431 31.6841 138.807 30.938 138.807 30.1135C138.807 29.338 139.316 28.5143 140.659 28.5143H142.233V28.3225C142.233 27.738 141.897 27.3176 141.053 27.3176C140.333 27.3176 139.968 27.5951 139.93 28.0163H139.115C139.182 27.1249 139.949 26.6082 141.033 26.6082C142.251 26.6082 143.028 27.1935 143.028 28.2743V31.5592H142.261V31.0514ZM145.331 29.1461C145.331 30.0939 145.773 30.9747 146.847 30.9747C147.816 30.9747 148.333 30.2188 148.333 29.1461C148.333 28.0735 147.816 27.3176 146.847 27.3176C145.773 27.3176 145.331 28.1976 145.331 29.1461ZM145.312 26.7322V27.2498H145.523C145.791 26.9151 146.262 26.6082 147.029 26.6082C148.362 26.6082 149.149 27.7184 149.149 29.1461C149.149 30.6025 148.362 31.6841 147.029 31.6841C146.262 31.6841 145.81 31.3869 145.552 31.0425H145.341V33.4751H144.525V26.7322H145.312ZM153.476 29.6057V29.1649H152.027C151.231 29.1649 150.866 29.5102 150.866 30.0849C150.866 30.6318 151.269 30.9747 151.988 30.9747C152.795 30.9747 153.477 30.3722 153.477 29.6057H153.476ZM153.505 31.0514H153.294C152.997 31.4261 152.477 31.6841 151.788 31.6841C150.674 31.6841 150.05 30.938 150.05 30.1135C150.05 29.338 150.56 28.5143 151.902 28.5143H153.476V28.3225C153.476 27.738 153.14 27.3176 152.296 27.3176C151.576 27.3176 151.212 27.5951 151.174 28.0163H150.358C150.425 27.1249 151.192 26.6082 152.277 26.6082C153.495 26.6082 154.272 27.1935 154.272 28.2743V31.5592H153.505V31.0514ZM155.213 26.7322H159.376V27.4416H157.707V31.56H156.891V27.4416H155.213V26.7322ZM164.95 31.56H165.765V26.7322H164.95V31.56ZM161.016 30.8514H162.234C163.079 30.8514 163.357 30.5069 163.357 29.9404C163.357 29.3665 163.079 29.0318 162.234 29.0318H161.016V30.8514ZM161.016 26.7322V28.3412H162.349C163.53 28.3412 164.172 28.9453 164.172 29.9412C164.172 30.9469 163.53 31.56 162.349 31.56H160.201V26.7322H161.016Z" fill="#212121"/>
</g>
<mask id="mask2" mask-type="alpha" maskUnits="userSpaceOnUse" x="0" y="3" width="37" height="37">
<path d="M0.051599 21.3167C0.051599 31.2931 8.15289 39.382 18.1472 39.382C28.1408 39.382 36.2437 31.2931 36.2437 21.3167C36.2437 11.3396 28.1408 3.25143 18.1472 3.25143C8.15289 3.25225 0.0507812 11.3404 0.0507812 21.3176L0.051599 21.3167ZM10.3984 21.3176C10.3984 17.0457 13.868 13.582 18.1472 13.582C22.4264 13.582 25.8953 17.0457 25.8953 21.3176C25.8953 25.5894 22.4264 29.0523 18.1472 29.0523C13.868 29.0523 10.3984 25.5894 10.3984 21.3176Z" fill="white"/>
</mask>
<g mask="url(#mask2)">
<path d="M18.4736 -8.02775C18.4736 -8.02775 16.6018 -3.62203 15.5903 -2.40326C14.5968 -1.09713 11.6202 0.727356 10.6267 2.03266C9.7893 3.21389 9.15311 6.17062 8.31657 7.35103C7.54708 8.42695 4.99902 9.7045 4.22871 10.7796C3.16811 12.1902 2.36428 15.6384 1.30286 17.049C0.483492 18.3184 -2.28781 19.8253 -3.19304 21.1127C-3.96335 22.1878 -4.55048 24.9518 -5.31915 26.0269C-5.93327 26.9788 -8.6416 29.1992 -8.6416 29.1992" stroke="#0061E5" stroke-width="1.5"/>
</g>
<mask id="mask3" mask-type="alpha" maskUnits="userSpaceOnUse" x="0" y="3" width="37" height="37">
<path d="M0.051599 21.3167C0.051599 31.2931 8.15289 39.382 18.1472 39.382C28.1408 39.382 36.2437 31.2931 36.2437 21.3167C36.2437 11.3396 28.1408 3.25143 18.1472 3.25143C8.15289 3.25225 0.0507812 11.3404 0.0507812 21.3176L0.051599 21.3167ZM10.3984 21.3176C10.3984 17.0457 13.868 13.582 18.1472 13.582C22.4264 13.582 25.8953 17.0457 25.8953 21.3176C25.8953 25.5894 22.4264 29.0523 18.1472 29.0523C13.868 29.0523 10.3984 25.5894 10.3984 21.3176Z" fill="white"/>
</mask>
<g mask="url(#mask3)">
<path d="M20.9874 -6.07836C20.9874 -6.07836 19.1156 -1.67264 18.104 -0.453869C17.1105 0.852254 14.1339 2.67674 13.1428 3.99021C12.3047 5.17144 11.6693 8.12736 10.8311 9.3094C10.0608 10.3845 7.51274 11.6612 6.74325 12.7372C5.68183 14.1486 4.87882 17.5959 3.8174 19.0074C2.98822 20.2694 0.218551 21.7837 -0.688316 23.0637C-1.45862 24.1396 -2.04575 26.9029 -2.81442 27.978C-3.42854 28.9298 -6.1377 31.151 -6.1377 31.151" stroke="#1660DA" stroke-width="1.5"/>
</g>
<mask id="mask4" mask-type="alpha" maskUnits="userSpaceOnUse" x="0" y="3" width="37" height="37">
<path d="M0.051599 21.3167C0.051599 31.2931 8.15289 39.382 18.1472 39.382C28.1408 39.382 36.2437 31.2931 36.2437 21.3167C36.2437 11.3396 28.1408 3.25143 18.1472 3.25143C8.15289 3.25225 0.0507812 11.3404 0.0507812 21.3176L0.051599 21.3167ZM10.3984 21.3176C10.3984 17.0457 13.868 13.582 18.1472 13.582C22.4264 13.582 25.8953 17.0457 25.8953 21.3176C25.8953 25.5894 22.4264 29.0523 18.1472 29.0523C13.868 29.0523 10.3984 25.5894 10.3984 21.3176Z" fill="white"/>
</mask>
<g mask="url(#mask4)">
<path d="M23.5009 -4.12897C23.5009 -4.12897 21.6291 0.276743 20.6176 1.49552C19.624 2.80164 16.6475 4.62613 15.658 5.94695C14.8198 7.12817 14.1845 10.0857 13.3455 11.2661C12.5768 12.3412 10.0279 13.6188 9.25843 14.6947C8.19783 16.1061 7.394 19.5527 6.33258 20.9649C5.4944 22.2204 2.72638 23.7429 1.81705 25.0147C1.04675 26.0906 0.459616 28.8539 -0.309054 29.929C-0.923172 30.88 -3.63232 33.1021 -3.63232 33.1021" stroke="#2C5ECF" stroke-width="1.5"/>
</g>
<mask id="mask5" mask-type="alpha" maskUnits="userSpaceOnUse" x="0" y="3" width="37" height="37">
<path d="M0.051599 21.3167C0.051599 31.2931 8.15289 39.382 18.1472 39.382C28.1408 39.382 36.2437 31.2931 36.2437 21.3167C36.2437 11.3396 28.1408 3.25143 18.1472 3.25143C8.15289 3.25225 0.0507812 11.3404 0.0507812 21.3176L0.051599 21.3167ZM10.3984 21.3176C10.3984 17.0457 13.868 13.582 18.1472 13.582C22.4264 13.582 25.8953 17.0457 25.8953 21.3176C25.8953 25.5894 22.4264 29.0523 18.1472 29.0523C13.868 29.0523 10.3984 25.5894 10.3984 21.3176Z" fill="white"/>
</mask>
<g mask="url(#mask5)">
<path d="M26.0138 -2.17877C26.0138 -2.17877 24.1428 2.22612 23.1305 3.44572C22.1369 4.75102 19.1612 6.57551 18.1725 7.90449C17.3344 9.08572 16.699 12.0433 15.8608 13.2237C15.0913 14.2996 12.5433 15.5763 11.7738 16.6522C10.7132 18.0637 9.90934 21.511 8.84793 22.9216C7.99994 24.1722 5.23354 25.7029 4.32177 26.9657C3.5531 28.0408 2.96678 30.8057 2.19648 31.8808C1.58318 32.8318 -1.12598 35.0531 -1.12598 35.0531" stroke="#415DC4" stroke-width="1.5"/>
<mask id="mask6" mask-type="alpha" maskUnits="userSpaceOnUse" x="0" y="3" width="37" height="37">
<path d="M0.051599 21.3167C0.051599 31.2931 8.15289 39.382 18.1472 39.382C28.1408 39.382 36.2437 31.2931 36.2437 21.3167C36.2437 11.3396 28.1408 3.25143 18.1472 3.25143C8.15289 3.25225 0.0507812 11.3404 0.0507812 21.3176L0.051599 21.3167ZM10.3984 21.3176C10.3984 17.0457 13.868 13.582 18.1472 13.582C22.4264 13.582 25.8953 17.0457 25.8953 21.3176C25.8953 25.5894 22.4264 29.0523 18.1472 29.0523C13.868 29.0523 10.3984 25.5894 10.3984 21.3176Z" fill="white"/>
</mask>
<g mask="url(#mask6)">
<path d="M28.5273 -0.229387C28.5273 -0.229387 26.6556 4.17633 25.644 5.3951C24.6505 6.70122 21.6747 8.5249 20.6885 9.86204C19.8504 11.0433 19.2142 14 18.3768 15.1812C17.6065 16.2571 15.0584 17.5339 14.289 18.6098C13.2275 20.0204 12.4245 23.4686 11.3631 24.8792C10.5053 26.1224 7.74055 27.6612 6.82796 28.9167C6.05765 29.9927 5.47215 32.7567 4.70185 33.8318C4.08773 34.7829 1.37939 37.0041 1.37939 37.0041" stroke="#575CB9" stroke-width="1.5"/>
</g>
<mask id="mask7" mask-type="alpha" maskUnits="userSpaceOnUse" x="0" y="3" width="37" height="37">
<path d="M0.051599 21.3167C0.051599 31.2931 8.15289 39.382 18.1472 39.382C28.1408 39.382 36.2437 31.2931 36.2437 21.3167C36.2437 11.3396 28.1408 3.25143 18.1472 3.25143C8.15289 3.25225 0.0507812 11.3404 0.0507812 21.3176L0.051599 21.3167ZM10.3984 21.3176C10.3984 17.0457 13.868 13.582 18.1472 13.582C22.4264 13.582 25.8953 17.0457 25.8953 21.3176C25.8953 25.5894 22.4264 29.0523 18.1472 29.0523C13.868 29.0523 10.3984 25.5894 10.3984 21.3176Z" fill="white"/>
</mask>
<g mask="url(#mask7)">
<path d="M31.0414 1.72C31.0414 1.72 29.1696 6.12572 28.1581 7.34449C27.1645 8.65061 24.1888 10.4743 23.2026 11.8196C22.366 13.0008 21.7298 15.9576 20.8917 17.1388C20.123 18.2147 17.5741 19.4914 16.8046 20.5673C15.7432 21.9788 14.9402 25.4261 13.8788 26.8376C13.012 28.0735 10.248 29.6212 9.33382 30.8678C8.56351 31.9437 7.97801 34.7078 7.20771 35.7829C6.59359 36.7339 3.88525 38.9559 3.88525 38.9559" stroke="#6D5AAE" stroke-width="1.5"/>
</g>
<mask id="mask8" mask-type="alpha" maskUnits="userSpaceOnUse" x="0" y="3" width="37" height="37">
<path d="M0.051599 21.3167C0.051599 31.2931 8.15289 39.382 18.1472 39.382C28.1408 39.382 36.2437 31.2931 36.2437 21.3167C36.2437 11.3396 28.1408 3.25143 18.1472 3.25143C8.15289 3.25225 0.0507812 11.3404 0.0507812 21.3176L0.051599 21.3167ZM10.3984 21.3176C10.3984 17.0457 13.868 13.582 18.1472 13.582C22.4264 13.582 25.8953 17.0457 25.8953 21.3176C25.8953 25.5894 22.4264 29.0523 18.1472 29.0523C13.868 29.0523 10.3984 25.5894 10.3984 21.3176Z" fill="white"/>
</mask>
<g mask="url(#mask8)">
<path d="M33.5549 3.67021C33.5549 3.67021 31.6831 8.07511 30.6716 9.2947C29.6781 10.6 26.7015 12.4237 25.7194 13.7771C24.8804 14.9584 24.245 17.9159 23.4069 19.0963C22.6374 20.1714 20.0893 21.449 19.3198 22.5249C18.2576 23.9355 17.4554 27.3829 16.3931 28.7943C15.5182 30.0245 12.755 31.5804 11.8384 32.8188C11.0697 33.8947 10.4826 36.6588 9.71226 37.7339C9.09896 38.6857 6.39062 40.9069 6.39062 40.9069" stroke="#8359A4" stroke-width="1.5"/>
</g>
<mask id="mask9" mask-type="alpha" maskUnits="userSpaceOnUse" x="0" y="3" width="37" height="37">
<path d="M0.051599 21.3167C0.051599 31.2931 8.15289 39.382 18.1472 39.382C28.1408 39.382 36.2437 31.2931 36.2437 21.3167C36.2437 11.3396 28.1408 3.25143 18.1472 3.25143C8.15289 3.25225 0.0507812 11.3404 0.0507812 21.3176L0.051599 21.3167ZM10.3984 21.3176C10.3984 17.0457 13.868 13.582 18.1472 13.582C22.4264 13.582 25.8953 17.0457 25.8953 21.3176C25.8953 25.5894 22.4264 29.0523 18.1472 29.0523C13.868 29.0523 10.3984 25.5894 10.3984 21.3176Z" fill="white"/>
</mask>
<g mask="url(#mask9)">
<path d="M36.0686 5.6196C36.0686 5.6196 34.1968 10.0253 33.1853 11.2441C32.1918 12.5486 29.2152 14.3739 28.2339 15.7339C27.3958 16.9159 26.7604 19.8727 25.9222 21.0539C25.1527 22.129 22.6046 23.4065 21.8343 24.4825C20.7737 25.8931 19.9699 29.3412 18.9085 30.7518C18.0221 31.9763 15.263 33.5396 14.3455 34.7706C13.5752 35.8457 12.9881 38.6106 12.2194 39.6865C11.6053 40.6376 8.89697 42.858 8.89697 42.858" stroke="#995799" stroke-width="1.5"/>
</g>
<mask id="mask10" mask-type="alpha" maskUnits="userSpaceOnUse" x="0" y="3" width="37" height="37">
<path d="M0.051599 21.3167C0.051599 31.2931 8.15289 39.382 18.1472 39.382C28.1408 39.382 36.2437 31.2931 36.2437 21.3167C36.2437 11.3396 28.1408 3.25143 18.1472 3.25143C8.15289 3.25225 0.0507812 11.3404 0.0507812 21.3176L0.051599 21.3167ZM10.3984 21.3176C10.3984 17.0457 13.868 13.582 18.1472 13.582C22.4264 13.582 25.8953 17.0457 25.8953 21.3176C25.8953 25.5894 22.4264 29.0523 18.1472 29.0523C13.868 29.0523 10.3984 25.5894 10.3984 21.3176Z" fill="white"/>
</mask>
<g mask="url(#mask10)">
<path d="M38.5825 7.56898C38.5825 7.56898 36.7099 11.9739 35.6992 13.1935C34.7056 14.4988 31.7291 16.3233 30.7494 17.6914C29.9113 18.8735 29.2759 21.8302 28.4377 23.0106C27.669 24.0865 25.1202 25.3641 24.3507 26.4392C23.2884 27.8498 22.4862 31.298 21.4248 32.7086C20.5278 33.9282 17.7695 35.4988 16.8504 36.7216C16.0817 37.7976 15.4946 40.5616 14.7243 41.6376C14.111 42.5886 11.4019 44.809 11.4019 44.809" stroke="#AF568E" stroke-width="1.5"/>
</g>
<mask id="mask11" mask-type="alpha" maskUnits="userSpaceOnUse" x="0" y="3" width="37" height="37">
<path d="M0.051599 21.3167C0.051599 31.2931 8.15289 39.382 18.1472 39.382C28.1408 39.382 36.2437 31.2931 36.2437 21.3167C36.2437 11.3396 28.1408 3.25143 18.1472 3.25143C8.15289 3.25225 0.0507812 11.3404 0.0507812 21.3176L0.051599 21.3167ZM10.3984 21.3176C10.3984 17.0457 13.868 13.582 18.1472 13.582C22.4264 13.582 25.8953 17.0457 25.8953 21.3176C25.8953 25.5894 22.4264 29.0523 18.1472 29.0523C13.868 29.0523 10.3984 25.5894 10.3984 21.3176Z" fill="white"/>
</mask>
<g mask="url(#mask11)">
<path d="M41.0952 9.51837C41.0952 9.51837 39.2243 13.9233 38.2119 15.1429C37.2184 16.4482 34.2426 18.2727 33.2646 19.649C32.4273 20.8302 31.7911 23.7869 30.9529 24.9682C30.1842 26.0441 27.6353 27.3208 26.8659 28.3967C25.8036 29.8082 25.0014 33.2555 23.94 34.6669C23.0331 35.8792 20.2766 37.458 19.3566 38.6735C18.5863 39.7486 17.9992 42.5127 17.2305 43.5878C16.6164 44.5396 13.9072 46.7608 13.9072 46.7608" stroke="#C45583" stroke-width="1.5"/>
</g>
<mask id="mask12" mask-type="alpha" maskUnits="userSpaceOnUse" x="0" y="3" width="37" height="37">
<path d="M0.051599 21.3167C0.051599 31.2931 8.15289 39.382 18.1472 39.382C28.1408 39.382 36.2437 31.2931 36.2437 21.3167C36.2437 11.3396 28.1408 3.25143 18.1472 3.25143C8.15289 3.25225 0.0507812 11.3404 0.0507812 21.3176L0.051599 21.3167ZM10.3984 21.3176C10.3984 17.0457 13.868 13.582 18.1472 13.582C22.4264 13.582 25.8953 17.0457 25.8953 21.3176C25.8953 25.5894 22.4264 29.0523 18.1472 29.0523C13.868 29.0523 10.3984 25.5894 10.3984 21.3176Z" fill="white"/>
</mask>
<g mask="url(#mask12)">
<path d="M43.608 11.4669C43.608 11.4669 41.7378 15.8735 40.7255 17.0922C39.7319 18.3984 36.7554 20.2229 35.7798 21.6065C34.9416 22.7878 34.3054 25.7453 33.4681 26.9257C32.6986 28.0008 30.1505 29.2784 29.3802 30.3543C28.3188 31.7657 27.5158 35.2122 26.4544 36.6237C25.5393 37.8302 22.7844 39.4155 21.8612 40.6237C21.0925 41.6996 20.5054 44.4645 19.7351 45.5404C19.1218 46.4906 16.4126 48.7127 16.4126 48.7127" stroke="#DA5378" stroke-width="1.5"/>
</g>
<mask id="mask13" mask-type="alpha" maskUnits="userSpaceOnUse" x="0" y="3" width="37" height="37">
<path d="M0.051599 21.3167C0.051599 31.2931 8.15289 39.382 18.1472 39.382C28.1408 39.382 36.2437 31.2931 36.2437 21.3167C36.2437 11.3396 28.1408 3.25143 18.1472 3.25143C8.15289 3.25225 0.0507812 11.3404 0.0507812 21.3176L0.051599 21.3167ZM10.3984 21.3176C10.3984 17.0457 13.868 13.582 18.1472 13.582C22.4264 13.582 25.8953 17.0457 25.8953 21.3176C25.8953 25.5894 22.4264 29.0523 18.1472 29.0523C13.868 29.0523 10.3984 25.5894 10.3984 21.3176Z" fill="white"/>
</mask>
<g mask="url(#mask13)">
<path d="M46.1217 13.418C46.1217 13.418 44.2507 17.8229 43.2392 19.0425C42.2456 20.3469 39.2691 22.1723 38.2952 23.5641C37.457 24.7453 36.8208 27.7029 35.9834 28.8833C35.2139 29.9592 32.6651 31.2359 31.8956 32.3118C30.8341 33.7225 30.0311 37.1706 28.9697 38.5812C28.0457 39.7812 25.2915 41.3763 24.3675 42.5763C23.5972 43.6506 23.0117 46.4155 22.2414 47.4906C21.6273 48.4425 18.9189 50.6637 18.9189 50.6637" stroke="#F0526D" stroke-width="1.5"/>
</g>
</g>
</g>
</svg>
