<svg width="166" height="40" viewBox="0 0 166 40" fill="none" xmlns="http://www.w3.org/2000/svg">
<mask id="mask0" mask-type="alpha" maskUnits="userSpaceOnUse" x="0" y="0" width="166" height="40">
<path d="M0 0H166V40H0V0Z" fill="white"/>
</mask>
<g mask="url(#mask0)">
<path fill-rule="evenodd" clip-rule="evenodd" d="M76.0901 21.0506V15.2776C76.0901 15.2776 76.0018 15.1894 75.7352 15.1004C74.6673 14.7453 73.5993 14.5674 72.5322 14.6563C70.931 14.7453 69.6856 15.4555 68.9734 16.8767C68.4402 17.9412 68.2619 19.1861 68.1736 20.3396C68.0837 21.938 68.1736 23.5363 68.7068 25.1355C69.1516 26.4678 70.0422 27.4449 71.465 27.711C72.977 28.0661 74.4007 27.711 75.7352 27C76.0018 26.8229 76.0909 26.7339 76.0909 26.7339V21.0506H76.0901ZM81.9615 31.618C80.3603 31.7078 78.5818 31.8849 76.8015 32.062C76.714 31.4408 76.5358 30.9078 76.4458 30.3747C75.557 30.7306 74.7556 31.1739 73.955 31.5298C71.5541 32.4172 69.1516 32.3298 66.9274 30.9967C64.9706 29.8425 63.9026 28.0661 63.192 26.0237C62.3015 23.0041 62.2132 19.8963 63.192 16.8759C64.3475 13.2351 67.0174 11.2808 70.7536 10.7494C72.5322 10.4816 74.3115 10.5714 76.1792 11.1045V0.447349C78.047 0.270206 79.8263 0.181226 81.6065 0.00326682V25.0465C81.5166 27.711 81.784 29.5755 81.9623 31.618H81.9615ZM51.805 27.8882L51.9825 26.5559C52.0708 25.8457 52.1599 25.2253 52.2499 24.8686C52.6947 23.0931 53.4062 21.4057 53.9401 19.7176C54.7415 16.9657 56.7859 11.0155 56.7859 11.0155H62.5689C62.1232 12.1698 61.7683 13.2351 61.3227 14.3012C59.0992 19.9845 54.4733 31.7078 54.4733 31.7078H48.9577C48.9577 31.7078 40.9504 11.1935 40.9504 11.0155C42.1967 10.9274 47 10.5714 47 10.5714C47 10.5714 49.046 17.32 50.0248 20.4286C50.4697 21.8498 51.0028 23.3592 51.4477 24.8694C51.5376 25.1355 51.626 25.7567 51.7151 26.5559L51.8042 27.8882H51.805ZM86.1425 0.447349C87.9219 0.270206 89.7896 0.181226 91.5698 0.00245094V31.6188H86.1425V0.447349ZM105.713 10.9265C104.38 12.6139 103.045 14.2122 101.8 15.8996C100.998 16.9657 100.109 18.031 99.3089 19.0963C98.864 19.6294 97.0854 20.3396 96.1957 20.4286C97.0854 20.4286 98.7757 21.1388 99.2197 21.6718C101.266 24.4253 103.489 27.711 105.537 30.4637V31.618H99.932L92.6378 20.3396C94.8612 17.409 97.4403 13.858 99.5763 10.9274H105.713V10.9265ZM117.337 20.0678V15.9494H114.699V20.0678H113.884V15.24H118.154V20.0678H117.337ZM120.532 17.6539C120.532 18.6025 120.974 19.4833 122.048 19.4833C123.017 19.4833 123.535 18.7265 123.535 17.6547C123.535 16.5812 123.017 15.8261 122.048 15.8261C120.974 15.8261 120.532 16.7061 120.532 17.6547V17.6539ZM120.514 15.2408V15.7576H120.724C120.993 15.4229 121.463 15.1159 122.231 15.1159C123.564 15.1159 124.35 16.2269 124.35 17.6547C124.35 19.1102 123.564 20.1918 122.231 20.1918C121.463 20.1918 121.012 19.8947 120.753 19.5502H120.542V21.9829H119.727V15.24H120.514V15.2408ZM129.272 17.6539C129.272 16.7061 128.773 15.8253 127.709 15.8253C126.634 15.8253 126.145 16.7061 126.145 17.6539C126.145 18.6025 126.634 19.4833 127.709 19.4833C128.773 19.4833 129.272 18.6016 129.272 17.6547V17.6539ZM130.088 17.6547C130.088 19.0808 129.215 20.1918 127.709 20.1918C126.193 20.1918 125.329 19.0816 125.329 17.6539C125.329 16.2269 126.193 15.1159 127.709 15.1159C129.215 15.1159 130.088 16.2269 130.088 17.6547V17.6547ZM135.594 15.24V19.3592H136.477V21.4376H135.69V20.0678H131.363V15.24H132.179V19.3592H134.78V15.24H135.594ZM138.088 16.9649H140.88C140.833 16.3518 140.362 15.8253 139.547 15.8253C138.674 15.8253 138.194 16.3518 138.088 16.9649ZM141.725 17.6449H138.041C138.069 18.7935 138.587 19.4833 139.585 19.4833C140.266 19.4833 140.669 19.1959 140.813 18.7363H141.639C141.485 19.5592 140.784 20.1918 139.585 20.1918C138.079 20.1918 137.235 19.0906 137.235 17.6065C137.235 16.1208 138.098 15.1159 139.566 15.1159C141.005 15.1159 141.695 16.1796 141.725 17.3674V17.6449ZM147.078 18.6114C146.896 19.56 146.167 20.1927 145.043 20.1927C143.538 20.1927 142.694 19.0816 142.694 17.6539C142.694 16.1992 143.538 15.1159 145.043 15.1159C146.196 15.1159 146.885 15.7478 147.049 16.6384H146.233C146.079 16.1502 145.706 15.8253 145.043 15.8253C143.951 15.8253 143.508 16.6767 143.508 17.6351C143.508 18.6016 143.96 19.4841 145.043 19.4841C145.735 19.4841 146.138 19.1494 146.262 18.6114H147.078V18.6114ZM152.383 18.6114C152.201 19.56 151.471 20.1927 150.349 20.1927C148.843 20.1927 147.998 19.0816 147.998 17.6539C147.998 16.1992 148.843 15.1159 150.349 15.1159C151.5 15.1159 152.191 15.7478 152.354 16.6384H151.538C151.385 16.1502 151.011 15.8253 150.349 15.8253C149.255 15.8253 148.814 16.6767 148.814 17.6351C148.814 18.6016 149.263 19.4841 150.349 19.4841C151.04 19.4841 151.443 19.1494 151.567 18.6114H152.383V18.6114Z" fill="white"/>
<path fill-rule="evenodd" clip-rule="evenodd" d="M158.35 20.0678H159.165V15.24H158.35V20.0678ZM154.417 19.3592H155.635C156.479 19.3592 156.757 19.0139 156.757 18.449C156.757 17.8735 156.479 17.5396 155.635 17.5396H154.417V19.3592ZM154.417 15.24V16.8498H155.75C156.93 16.8498 157.573 17.4539 157.573 18.4498C157.573 19.4547 156.93 20.0678 155.75 20.0678H153.601V15.24H154.416H154.417ZM113.884 31.56V26.7322H114.681V30.4678H114.891L117.012 26.7322H118.202V31.56H117.405V27.8245H117.194L115.035 31.56H113.884ZM125.205 29.6057V29.1649H123.756C122.959 29.1649 122.595 29.5102 122.595 30.0849C122.595 30.6318 122.998 30.9747 123.716 30.9747C124.524 30.9747 125.205 30.3723 125.205 29.6057V29.6057ZM125.233 31.0514H125.022C124.725 31.4261 124.206 31.6841 123.516 31.6841C122.402 31.6841 121.778 30.938 121.778 30.1135C121.778 29.338 122.288 28.5143 123.631 28.5143H125.205V28.3225C125.205 27.738 124.869 27.3176 124.024 27.3176C123.304 27.3176 122.94 27.5951 122.902 28.0163H122.086C122.153 27.1249 122.92 26.6082 124.005 26.6082C125.224 26.6082 126 27.1935 126 28.2743V31.5592H125.233V31.0514V31.0514ZM130.95 31.56V27.4416H128.312V31.56H127.497V26.7322H131.765V31.56H130.95ZM136.793 31.56V27.4416H134.154V31.56H133.339V26.7322H137.608V31.56H136.793ZM142.232 29.6057V29.1649H140.783C139.987 29.1649 139.622 29.5102 139.622 30.0849C139.622 30.6318 140.025 30.9747 140.745 30.9747C141.551 30.9747 142.232 30.3723 142.232 29.6057V29.6057ZM142.261 31.0514H142.05C141.753 31.4261 141.235 31.6841 140.544 31.6841C139.431 31.6841 138.807 30.938 138.807 30.1135C138.807 29.338 139.316 28.5143 140.659 28.5143H142.232V28.3225C142.232 27.738 141.897 27.3176 141.052 27.3176C140.333 27.3176 139.968 27.5951 139.93 28.0163H139.114C139.181 27.1249 139.948 26.6082 141.033 26.6082C142.251 26.6082 143.028 27.1935 143.028 28.2743V31.5592H142.261V31.0514V31.0514ZM145.331 29.1461C145.331 30.0939 145.772 30.9747 146.847 30.9747C147.816 30.9747 148.333 30.2188 148.333 29.1461C148.333 28.0735 147.816 27.3176 146.847 27.3176C145.772 27.3176 145.331 28.1976 145.331 29.1461ZM145.312 26.7322V27.2498H145.523C145.791 26.9151 146.261 26.6082 147.029 26.6082C148.362 26.6082 149.149 27.7184 149.149 29.1461C149.149 30.6025 148.362 31.6841 147.029 31.6841C146.261 31.6841 145.81 31.3869 145.552 31.0425H145.341V33.4751H144.525V26.7322H145.312V26.7322ZM153.475 29.6057V29.1649H152.027C151.231 29.1649 150.866 29.5102 150.866 30.0849C150.866 30.6318 151.269 30.9747 151.988 30.9747C152.795 30.9747 153.476 30.3723 153.476 29.6057H153.475ZM153.505 31.0514H153.294C152.996 31.4261 152.477 31.6841 151.788 31.6841C150.674 31.6841 150.05 30.938 150.05 30.1135C150.05 29.338 150.559 28.5143 151.902 28.5143H153.475V28.3225C153.475 27.738 153.14 27.3176 152.295 27.3176C151.576 27.3176 151.212 27.5951 151.174 28.0163H150.357C150.424 27.1249 151.192 26.6082 152.277 26.6082C153.495 26.6082 154.272 27.1935 154.272 28.2743V31.5592H153.505V31.0514V31.0514ZM155.212 26.7322H159.375V27.4416H157.706V31.56H156.89V27.4416H155.212V26.7322ZM164.95 31.56H165.764V26.7322H164.95V31.56ZM161.016 30.8514H162.234C163.079 30.8514 163.357 30.5069 163.357 29.9404C163.357 29.3665 163.079 29.0318 162.234 29.0318H161.016V30.8514ZM161.016 26.7322V28.3412H162.349C163.529 28.3412 164.172 28.9453 164.172 29.9412C164.172 30.9469 163.529 31.56 162.349 31.56H160.2V26.7322H161.016Z" fill="white"/>
<mask id="mask1" mask-type="alpha" maskUnits="userSpaceOnUse" x="0" y="3" width="37" height="37">
<path d="M0.0513548 21.3167C0.0513548 31.2931 8.15265 39.382 18.147 39.382C28.1405 39.382 36.2435 31.2931 36.2435 21.3167C36.2435 11.3396 28.1405 3.25143 18.147 3.25143C8.15265 3.25225 0.0505371 11.3404 0.0505371 21.3176L0.0513548 21.3167ZM10.3981 21.3176C10.3981 17.0457 13.8678 13.582 18.147 13.582C22.4262 13.582 25.895 17.0457 25.895 21.3176C25.895 25.5894 22.4262 29.0523 18.147 29.0523C13.8678 29.0523 10.3981 25.5894 10.3981 21.3176" fill="white"/>
</mask>
<g mask="url(#mask1)">
<path d="M18.4734 -8.02775C18.4734 -8.02775 16.6016 -3.62203 15.5901 -2.40326C14.5965 -1.09713 11.62 0.727356 10.6264 2.03266C9.78906 3.21389 9.15286 6.17062 8.31632 7.35103C7.54683 8.42695 4.99877 9.7045 4.22847 10.7796C3.16787 12.1902 2.36403 15.6384 1.30262 17.049C0.483247 18.3184 -2.28805 19.8253 -3.19328 21.1127C-3.96359 22.1878 -4.55072 24.9518 -5.31939 26.0269C-5.93351 26.9788 -8.64185 29.1992 -8.64185 29.1992" stroke="white" stroke-width="1.5"/>
</g>
<mask id="mask2" mask-type="alpha" maskUnits="userSpaceOnUse" x="0" y="3" width="37" height="37">
<path d="M0.0513548 21.3167C0.0513548 31.2931 8.15265 39.382 18.147 39.382C28.1405 39.382 36.2435 31.2931 36.2435 21.3167C36.2435 11.3396 28.1405 3.25143 18.147 3.25143C8.15265 3.25225 0.0505371 11.3404 0.0505371 21.3176L0.0513548 21.3167ZM10.3981 21.3176C10.3981 17.0457 13.8678 13.582 18.147 13.582C22.4262 13.582 25.895 17.0457 25.895 21.3176C25.895 25.5894 22.4262 29.0523 18.147 29.0523C13.8678 29.0523 10.3981 25.5894 10.3981 21.3176" fill="white"/>
</mask>
<g mask="url(#mask2)">
<path d="M20.9871 -6.07836C20.9871 -6.07836 19.1153 -1.67264 18.1038 -0.453869C17.1102 0.852254 14.1337 2.67674 13.1426 3.99021C12.3044 5.17144 11.669 8.12736 10.8309 9.3094C10.0606 10.3845 7.51249 11.6612 6.74301 12.7372C5.68159 14.1486 4.87857 17.5959 3.81715 19.0074C2.98797 20.2694 0.218306 21.7837 -0.68856 23.0637C-1.45887 24.1396 -2.046 26.9029 -2.81467 27.978C-3.42879 28.9298 -6.13794 31.151 -6.13794 31.151" stroke="white" stroke-width="1.5"/>
</g>
<mask id="mask3" mask-type="alpha" maskUnits="userSpaceOnUse" x="0" y="3" width="37" height="37">
<path d="M0.0513548 21.3167C0.0513548 31.2931 8.15265 39.382 18.147 39.382C28.1405 39.382 36.2435 31.2931 36.2435 21.3167C36.2435 11.3396 28.1405 3.25143 18.147 3.25143C8.15265 3.25225 0.0505371 11.3404 0.0505371 21.3176L0.0513548 21.3167ZM10.3981 21.3176C10.3981 17.0457 13.8678 13.582 18.147 13.582C22.4262 13.582 25.895 17.0457 25.895 21.3176C25.895 25.5894 22.4262 29.0523 18.147 29.0523C13.8678 29.0523 10.3981 25.5894 10.3981 21.3176" fill="white"/>
</mask>
<g mask="url(#mask3)">
<path d="M23.5007 -4.12897C23.5007 -4.12897 21.6289 0.276743 20.6173 1.49552C19.6238 2.80164 16.6472 4.62613 15.6578 5.94695C14.8196 7.12817 14.1842 10.0857 13.3452 11.2661C12.5766 12.3412 10.0277 13.6188 9.25819 14.6947C8.19759 16.1061 7.39376 19.5527 6.33234 20.9649C5.49416 22.2204 2.72613 23.7429 1.81681 25.0147C1.04651 26.0906 0.459372 28.8539 -0.309298 29.929C-0.923416 30.88 -3.63257 33.1021 -3.63257 33.1021" stroke="white" stroke-width="1.5"/>
</g>
<mask id="mask4" mask-type="alpha" maskUnits="userSpaceOnUse" x="0" y="3" width="37" height="37">
<path d="M0.0513548 21.3167C0.0513548 31.2931 8.15265 39.382 18.147 39.382C28.1405 39.382 36.2435 31.2931 36.2435 21.3167C36.2435 11.3396 28.1405 3.25143 18.147 3.25143C8.15265 3.25225 0.0505371 11.3404 0.0505371 21.3176L0.0513548 21.3167ZM10.3981 21.3176C10.3981 17.0457 13.8678 13.582 18.147 13.582C22.4262 13.582 25.895 17.0457 25.895 21.3176C25.895 25.5894 22.4262 29.0523 18.147 29.0523C13.8678 29.0523 10.3981 25.5894 10.3981 21.3176" fill="white"/>
</mask>
<g mask="url(#mask4)">
<path d="M26.0138 -2.17877C26.0138 -2.17877 24.1428 2.22612 23.1305 3.44572C22.1369 4.75102 19.1612 6.57551 18.1725 7.90449C17.3344 9.08572 16.699 12.0433 15.8608 13.2237C15.0913 14.2996 12.5433 15.5763 11.7738 16.6522C10.7132 18.0637 9.90934 21.511 8.84792 22.9216C7.99993 24.1722 5.23354 25.7029 4.32177 26.9657C3.5531 28.0408 2.96678 30.8057 2.19648 31.8808C1.58318 32.8318 -1.12598 35.0531 -1.12598 35.0531" stroke="white" stroke-width="1.5"/>
<mask id="mask5" mask-type="alpha" maskUnits="userSpaceOnUse" x="0" y="3" width="37" height="37">
<path d="M0.0513548 21.3167C0.0513548 31.2931 8.15265 39.382 18.147 39.382C28.1405 39.382 36.2435 31.2931 36.2435 21.3167C36.2435 11.3396 28.1405 3.25143 18.147 3.25143C8.15265 3.25225 0.0505371 11.3404 0.0505371 21.3176L0.0513548 21.3167ZM10.3981 21.3176C10.3981 17.0457 13.8678 13.582 18.147 13.582C22.4262 13.582 25.895 17.0457 25.895 21.3176C25.895 25.5894 22.4262 29.0523 18.147 29.0523C13.8678 29.0523 10.3981 25.5894 10.3981 21.3176" fill="white"/>
</mask>
<g mask="url(#mask5)">
<path d="M28.5273 -0.229387C28.5273 -0.229387 26.6555 4.17633 25.644 5.3951C24.6505 6.70122 21.6747 8.5249 20.6885 9.86204C19.8504 11.0433 19.2142 14 18.3768 15.1812C17.6065 16.2571 15.0584 17.5339 14.289 18.6098C13.2275 20.0204 12.4245 23.4686 11.3631 24.8792C10.5053 26.1224 7.74055 27.6612 6.82796 28.9167C6.05765 29.9927 5.47215 32.7567 4.70185 33.8318C4.08773 34.7829 1.37939 37.0041 1.37939 37.0041" stroke="white" stroke-width="1.5"/>
</g>
<mask id="mask6" mask-type="alpha" maskUnits="userSpaceOnUse" x="0" y="3" width="37" height="37">
<path d="M0.0513548 21.3167C0.0513548 31.2931 8.15265 39.382 18.147 39.382C28.1405 39.382 36.2435 31.2931 36.2435 21.3167C36.2435 11.3396 28.1405 3.25143 18.147 3.25143C8.15265 3.25225 0.0505371 11.3404 0.0505371 21.3176L0.0513548 21.3167ZM10.3981 21.3176C10.3981 17.0457 13.8678 13.582 18.147 13.582C22.4262 13.582 25.895 17.0457 25.895 21.3176C25.895 25.5894 22.4262 29.0523 18.147 29.0523C13.8678 29.0523 10.3981 25.5894 10.3981 21.3176" fill="white"/>
</mask>
<g mask="url(#mask6)">
<path d="M31.0411 1.72C31.0411 1.72 29.1693 6.12571 28.1578 7.34449C27.1643 8.65061 24.1885 10.4743 23.2023 11.8196C22.3658 13.0008 21.7296 15.9576 20.8914 17.1388C20.1228 18.2147 17.5739 19.4914 16.8044 20.5673C15.743 21.9788 14.94 25.4261 13.8785 26.8375C13.0117 28.0735 10.2478 29.6212 9.33357 30.8678C8.56327 31.9437 7.97777 34.7078 7.20746 35.7829C6.59335 36.7339 3.88501 38.9559 3.88501 38.9559" stroke="white" stroke-width="1.5"/>
</g>
<mask id="mask7" mask-type="alpha" maskUnits="userSpaceOnUse" x="0" y="3" width="37" height="37">
<path d="M0.0513548 21.3167C0.0513548 31.2931 8.15265 39.382 18.147 39.382C28.1405 39.382 36.2435 31.2931 36.2435 21.3167C36.2435 11.3396 28.1405 3.25143 18.147 3.25143C8.15265 3.25225 0.0505371 11.3404 0.0505371 21.3176L0.0513548 21.3167ZM10.3981 21.3176C10.3981 17.0457 13.8678 13.582 18.147 13.582C22.4262 13.582 25.895 17.0457 25.895 21.3176C25.895 25.5894 22.4262 29.0523 18.147 29.0523C13.8678 29.0523 10.3981 25.5894 10.3981 21.3176" fill="white"/>
</mask>
<g mask="url(#mask7)">
<path d="M33.5547 3.67021C33.5547 3.67021 31.6829 8.07511 30.6714 9.2947C29.6778 10.6 26.7013 12.4237 25.7192 13.7771C24.8802 14.9584 24.2448 17.9159 23.4066 19.0963C22.6371 20.1714 20.0891 21.449 19.3196 22.5249C18.2573 23.9355 17.4551 27.3829 16.3929 28.7943C15.5179 30.0245 12.7548 31.5804 11.8381 32.8188C11.0695 33.8947 10.4823 36.6588 9.71202 37.7339C9.09872 38.6857 6.39038 40.9069 6.39038 40.9069" stroke="white" stroke-width="1.5"/>
</g>
<mask id="mask8" mask-type="alpha" maskUnits="userSpaceOnUse" x="0" y="3" width="37" height="37">
<path d="M0.0513548 21.3167C0.0513548 31.2931 8.15265 39.382 18.147 39.382C28.1405 39.382 36.2435 31.2931 36.2435 21.3167C36.2435 11.3396 28.1405 3.25143 18.147 3.25143C8.15265 3.25225 0.0505371 11.3404 0.0505371 21.3176L0.0513548 21.3167ZM10.3981 21.3176C10.3981 17.0457 13.8678 13.582 18.147 13.582C22.4262 13.582 25.895 17.0457 25.895 21.3176C25.895 25.5894 22.4262 29.0523 18.147 29.0523C13.8678 29.0523 10.3981 25.5894 10.3981 21.3176" fill="white"/>
</mask>
<g mask="url(#mask8)">
<path d="M36.0684 5.6196C36.0684 5.6196 34.1966 10.0253 33.1851 11.2441C32.1915 12.5486 29.215 14.3739 28.2337 15.7339C27.3955 16.9159 26.7601 19.8727 25.922 21.0539C25.1525 22.129 22.6044 23.4065 21.8341 24.4825C20.7735 25.8931 19.9697 29.3412 18.9082 30.7518C18.0218 31.9763 15.2628 33.5396 14.3453 34.7706C13.575 35.8457 12.9879 38.6106 12.2192 39.6865C11.6051 40.6376 8.89673 42.858 8.89673 42.858" stroke="white" stroke-width="1.5"/>
</g>
<mask id="mask9" mask-type="alpha" maskUnits="userSpaceOnUse" x="0" y="3" width="37" height="37">
<path d="M0.0513548 21.3167C0.0513548 31.2931 8.15265 39.382 18.147 39.382C28.1405 39.382 36.2435 31.2931 36.2435 21.3167C36.2435 11.3396 28.1405 3.25143 18.147 3.25143C8.15265 3.25225 0.0505371 11.3404 0.0505371 21.3176L0.0513548 21.3167ZM10.3981 21.3176C10.3981 17.0457 13.8678 13.582 18.147 13.582C22.4262 13.582 25.895 17.0457 25.895 21.3176C25.895 25.5894 22.4262 29.0523 18.147 29.0523C13.8678 29.0523 10.3981 25.5894 10.3981 21.3176" fill="white"/>
</mask>
<g mask="url(#mask9)">
<path d="M38.5823 7.56898C38.5823 7.56898 36.7097 11.9739 35.6989 13.1935C34.7054 14.4988 31.7288 16.3233 30.7492 17.6914C29.911 18.8735 29.2756 21.8302 28.4375 23.0106C27.6688 24.0865 25.1199 25.3641 24.3504 26.4392C23.2882 27.8498 22.486 31.298 21.4246 32.7086C20.5275 33.9282 17.7693 35.4988 16.8502 36.7216C16.0815 37.7976 15.4944 40.5616 14.7241 41.6376C14.1108 42.5886 11.4016 44.809 11.4016 44.809" stroke="white" stroke-width="1.5"/>
</g>
<mask id="mask10" mask-type="alpha" maskUnits="userSpaceOnUse" x="0" y="3" width="37" height="37">
<path d="M0.0513548 21.3167C0.0513548 31.2931 8.15265 39.382 18.147 39.382C28.1405 39.382 36.2435 31.2931 36.2435 21.3167C36.2435 11.3396 28.1405 3.25143 18.147 3.25143C8.15265 3.25225 0.0505371 11.3404 0.0505371 21.3176L0.0513548 21.3167ZM10.3981 21.3176C10.3981 17.0457 13.8678 13.582 18.147 13.582C22.4262 13.582 25.895 17.0457 25.895 21.3176C25.895 25.5894 22.4262 29.0523 18.147 29.0523C13.8678 29.0523 10.3981 25.5894 10.3981 21.3176" fill="white"/>
</mask>
<g mask="url(#mask10)">
<path d="M41.0952 9.51837C41.0952 9.51837 39.2243 13.9233 38.2119 15.1429C37.2184 16.4482 34.2426 18.2727 33.2646 19.649C32.4273 20.8302 31.7911 23.7869 30.9529 24.9682C30.1842 26.0441 27.6353 27.3208 26.8659 28.3967C25.8036 29.8082 25.0014 33.2555 23.94 34.6669C23.0331 35.8792 20.2766 37.458 19.3566 38.6735C18.5863 39.7486 17.9992 42.5127 17.2305 43.5878C16.6164 44.5396 13.9072 46.7608 13.9072 46.7608" stroke="white" stroke-width="1.5"/>
</g>
<mask id="mask11" mask-type="alpha" maskUnits="userSpaceOnUse" x="0" y="3" width="37" height="37">
<path d="M0.0513548 21.3167C0.0513548 31.2931 8.15265 39.382 18.147 39.382C28.1405 39.382 36.2435 31.2931 36.2435 21.3167C36.2435 11.3396 28.1405 3.25143 18.147 3.25143C8.15265 3.25225 0.0505371 11.3404 0.0505371 21.3176L0.0513548 21.3167ZM10.3981 21.3176C10.3981 17.0457 13.8678 13.582 18.147 13.582C22.4262 13.582 25.895 17.0457 25.895 21.3176C25.895 25.5894 22.4262 29.0523 18.147 29.0523C13.8678 29.0523 10.3981 25.5894 10.3981 21.3176" fill="white"/>
</mask>
<g mask="url(#mask11)">
<path d="M43.608 11.4669C43.608 11.4669 41.7378 15.8735 40.7255 17.0922C39.7319 18.3984 36.7554 20.2229 35.7798 21.6065C34.9416 22.7878 34.3054 25.7453 33.4681 26.9257C32.6986 28.0008 30.1505 29.2784 29.3802 30.3543C28.3188 31.7657 27.5158 35.2122 26.4544 36.6237C25.5393 37.8302 22.7844 39.4155 21.8612 40.6237C21.0925 41.6996 20.5054 44.4645 19.7351 45.5404C19.1218 46.4906 16.4126 48.7127 16.4126 48.7127" stroke="white" stroke-width="1.5"/>
</g>
<mask id="mask12" mask-type="alpha" maskUnits="userSpaceOnUse" x="0" y="3" width="37" height="37">
<path d="M0.0513548 21.3167C0.0513548 31.2931 8.15265 39.382 18.147 39.382C28.1405 39.382 36.2435 31.2931 36.2435 21.3167C36.2435 11.3396 28.1405 3.25143 18.147 3.25143C8.15265 3.25225 0.0505371 11.3404 0.0505371 21.3176L0.0513548 21.3167ZM10.3981 21.3176C10.3981 17.0457 13.8678 13.582 18.147 13.582C22.4262 13.582 25.895 17.0457 25.895 21.3176C25.895 25.5894 22.4262 29.0523 18.147 29.0523C13.8678 29.0523 10.3981 25.5894 10.3981 21.3176" fill="white"/>
</mask>
<g mask="url(#mask12)">
<path d="M46.1217 13.418C46.1217 13.418 44.2507 17.8229 43.2392 19.0425C42.2456 20.3469 39.2691 22.1723 38.2952 23.5641C37.457 24.7453 36.8208 27.7029 35.9834 28.8833C35.2139 29.9592 32.6651 31.2359 31.8956 32.3118C30.8341 33.7225 30.0311 37.1706 28.9697 38.5812C28.0457 39.7812 25.2915 41.3763 24.3675 42.5763C23.5972 43.6506 23.0117 46.4155 22.2414 47.4906C21.6273 48.4425 18.9189 50.6637 18.9189 50.6637" stroke="white" stroke-width="1.5"/>
</g>
</g>
</g>
</svg>
