<svg width="144" height="144" viewBox="0 0 144 144" fill="none" xmlns="http://www.w3.org/2000/svg">
<path d="M61.4783 82.1378H66.5443V82.8722H64.4377V87.5725H63.5703V82.8722H61.4783V82.1378Z" fill="white"/>
<path d="M67.3533 82.1375H71.5738V82.916H68.2207V84.3848H71.2166V85.1193H68.2207V86.8231H71.6831V87.5575H67.3533V82.1375Z" fill="white"/>
<path d="M75.0434 84.2748L76.5013 82.1523H77.5218L75.6266 84.7742L77.7186 87.6164H76.6689L75.0289 85.325L73.3888 87.6164H72.3901L74.4311 84.7962L72.4995 82.1523H73.52L75.0434 84.2748Z" fill="white"/>
<path d="M83.3384 82.1376V87.6017H82.471V85.0753H79.4022V87.6017H78.564V82.1376H79.4314V84.2748H82.5002V82.1082L83.3384 82.1376Z" fill="white"/>
<path d="M89.1189 82.894C89.6241 83.4253 89.9039 84.1339 89.8989 84.8696C89.9062 85.2473 89.8369 85.6226 89.6953 85.9724C89.5537 86.3222 89.3427 86.6392 89.0752 86.904C88.524 87.4279 87.7919 87.715 87.0342 87.7045C86.6534 87.7125 86.2747 87.6438 85.9205 87.5026C85.5663 87.3613 85.2436 87.1503 84.9713 86.8819C84.7102 86.6174 84.5036 86.3034 84.3635 85.958C84.2234 85.6126 84.1525 85.2427 84.1549 84.8696C84.1484 84.4848 84.2223 84.1028 84.3717 83.7486C84.5212 83.3943 84.7428 83.0756 85.0224 82.8132C85.5864 82.3012 86.3223 82.0239 87.0814 82.0375C87.8405 82.0512 88.5661 82.3547 89.1117 82.8867L89.1189 82.894ZM85.5982 86.3458C85.9861 86.7071 86.495 86.9078 87.0233 86.9078C87.5516 86.9078 88.0604 86.7071 88.4483 86.3458C88.8318 85.9368 89.0454 85.3955 89.0454 84.8329C89.0454 84.2703 88.8318 83.729 88.4483 83.32C88.2624 83.1409 88.0428 83.0013 87.8024 82.9092C87.562 82.8171 87.3058 82.7745 87.0488 82.7839C86.7782 82.7707 86.5079 82.8163 86.2564 82.9177C86.0048 83.0191 85.7779 83.1738 85.5909 83.3714C85.4049 83.5662 85.2594 83.7964 85.163 84.0487C85.0666 84.301 85.0213 84.5701 85.0297 84.8402C85.0186 85.1169 85.0632 85.3929 85.1609 85.6517C85.2587 85.9104 85.4074 86.1466 85.5982 86.3458Z" fill="white"/>
<path d="M91.6848 87.6016H90.8174V82.1375H95.6429V87.6016H94.7755V82.916H91.6848V87.6016Z" fill="white"/>
<path d="M101.452 82.894C101.957 83.4253 102.237 84.1339 102.232 84.8696C102.239 85.2473 102.17 85.6226 102.028 85.9724C101.887 86.3222 101.676 86.6392 101.408 86.904C100.857 87.4279 100.125 87.715 99.3672 87.7045C98.9864 87.7125 98.6077 87.6438 98.2535 87.5026C97.8993 87.3613 97.5766 87.1503 97.3044 86.8819C97.0432 86.6174 96.8366 86.3034 96.6965 85.958C96.5564 85.6126 96.4855 85.2427 96.4879 84.8696C96.4814 84.4848 96.5553 84.1028 96.7047 83.7486C96.8542 83.3943 97.0758 83.0756 97.3554 82.8132C97.9194 82.3012 98.6553 82.0239 99.4144 82.0375C100.173 82.0512 100.899 82.3547 101.445 82.8867L101.452 82.894ZM97.9312 86.3458C98.3191 86.7071 98.828 86.9078 99.3563 86.9078C99.8846 86.9078 100.393 86.7071 100.781 86.3458C101.165 85.9368 101.378 85.3955 101.378 84.8329C101.378 84.2703 101.165 83.729 100.781 83.32C100.595 83.1409 100.376 83.0013 100.135 82.9092C99.8951 82.8171 99.6388 82.7745 99.3818 82.7839C99.1112 82.7707 98.8409 82.8163 98.5894 82.9177C98.3378 83.0191 98.1109 83.1738 97.9239 83.3714C97.7379 83.5662 97.5924 83.7964 97.496 84.0487C97.3996 84.301 97.3543 84.5701 97.3627 84.8402C97.3516 85.1169 97.3962 85.3929 97.4939 85.6517C97.5917 85.9104 97.7404 86.1466 97.9312 86.3458Z" fill="white"/>
<path d="M108.035 82.1376V87.6017H107.167V82.9161H104.981L104.485 86.4486C104.462 86.789 104.307 87.1067 104.053 87.3323C103.799 87.5579 103.467 87.6732 103.129 87.6531C102.851 87.663 102.574 87.6181 102.313 87.5209L102.495 86.7865C102.641 86.8323 102.794 86.8546 102.947 86.8526C103.121 86.8671 103.294 86.8116 103.428 86.6983C103.564 86.5523 103.644 86.3623 103.654 86.1622L104.215 82.1082L108.035 82.1376Z" fill="white"/>
<path d="M109.959 86.3237L113.232 82.1375H114.048V87.6016H113.224V83.4154L109.937 87.6016H109.121V82.1375H109.959V86.3237Z" fill="white"/>
<path d="M116.388 86.3238C116.58 86.5145 116.808 86.6647 117.058 86.7656C117.308 86.8665 117.576 86.916 117.846 86.9113C118.148 86.9205 118.449 86.868 118.731 86.757C119.013 86.6459 119.27 86.4786 119.486 86.265L120.003 86.8452C119.717 87.132 119.375 87.3558 118.999 87.5024C118.622 87.649 118.22 87.7154 117.816 87.6972C117.438 87.7048 117.061 87.636 116.71 87.4947C116.358 87.3534 116.038 87.1426 115.768 86.8746C115.505 86.6111 115.295 86.2976 115.153 85.9522C115.01 85.6068 114.936 85.2364 114.936 84.8623C114.936 84.4882 115.01 84.1177 115.153 83.7724C115.295 83.427 115.505 83.1135 115.768 82.85C116.047 82.5868 116.374 82.3823 116.732 82.2487C117.09 82.115 117.471 82.0547 117.853 82.0715C118.256 82.0533 118.659 82.1196 119.035 82.2662C119.411 82.4129 119.753 82.6367 120.04 82.9234L119.522 83.5036C119.308 83.2872 119.052 83.118 118.769 83.0068C118.487 82.8955 118.185 82.8446 117.882 82.8573C117.614 82.8446 117.347 82.8886 117.097 82.9866C116.847 83.0845 116.62 83.2341 116.431 83.4259C116.242 83.6176 116.095 83.8471 116 84.0996C115.905 84.3521 115.863 84.6219 115.877 84.8917C115.86 85.4171 116.043 85.9293 116.388 86.3238Z" fill="white"/>
<path d="M91.6844 98.4931C91.7032 99.8566 91.3191 101.195 90.5809 102.338C89.8428 103.481 88.7839 104.377 87.539 104.912C86.294 105.447 84.9193 105.596 83.5896 105.342C82.26 105.088 81.0354 104.441 80.0717 103.483C79.1081 102.526 78.4488 101.301 78.1778 99.9651C77.9067 98.6291 78.0362 97.2421 78.5497 95.9804C79.0632 94.7188 79.9375 93.6395 81.0615 92.8798C82.1854 92.1202 83.5082 91.7145 84.8617 91.7144C85.7518 91.7066 86.6347 91.876 87.4598 92.2127C88.2849 92.5495 89.0359 93.047 89.6697 93.6767C90.3036 94.3065 90.8078 95.0561 91.1535 95.8826C91.4993 96.7091 91.6797 97.5962 91.6844 98.4931ZM80.4808 98.4931C80.5023 99.3596 80.777 100.2 81.2704 100.91C81.7639 101.62 82.4542 102.168 83.2551 102.485C84.0559 102.801 84.9316 102.873 85.7727 102.691C86.6137 102.509 87.3828 102.081 87.9835 101.46C88.5843 100.84 88.9901 100.054 89.1502 99.2029C89.3103 98.3512 89.2175 97.4709 88.8835 96.6721C88.5495 95.8733 87.9891 95.1915 87.2725 94.7121C86.5558 94.2326 85.7147 93.9767 84.8544 93.9764C84.2707 93.9762 83.6929 94.0937 83.155 94.322C82.6172 94.5503 82.1301 94.8848 81.7225 95.3057C81.3149 95.7266 80.9951 96.2255 80.7818 96.7729C80.5686 97.3203 80.4662 97.9052 80.4808 98.4931Z" fill="white"/>
<path d="M103.253 94.8138C102.265 94.2808 101.165 93.9938 100.045 93.9765C98.8885 94.0236 97.7947 94.5196 96.9928 95.3608C96.1909 96.202 95.7431 97.3232 95.7431 98.4895C95.7431 99.6559 96.1909 100.777 96.9928 101.618C97.7947 102.459 98.8885 102.956 100.045 103.003C101.203 103.004 102.342 102.7 103.347 102.121L104.441 103.957C103.145 104.865 101.594 105.329 100.016 105.279C98.2317 105.279 96.5204 104.565 95.2587 103.294C93.9969 102.023 93.2881 100.298 93.2881 98.5005C93.2881 96.7027 93.9969 94.9785 95.2587 93.7073C96.5204 92.436 98.2317 91.7219 100.016 91.7219C101.593 91.6712 103.144 92.132 104.441 93.0365L103.253 94.8138Z" fill="white"/>
<path d="M108.72 91.9936L108.815 92.089V96.7599H109.376L113.596 92.0817L113.779 91.9862H116.162L116.257 92.0817L111.154 97.6559L116.592 104.897L116.497 104.993H114.114L113.932 104.905L109.347 98.9265H108.785V104.905L108.691 105H106.737L106.65 104.912V92.089L106.737 91.9936H108.72Z" fill="white"/>
<path d="M124.041 91.9936C126.542 91.9936 128.262 93.2935 128.262 95.4086C128.275 95.8481 128.173 96.2833 127.965 96.6702C127.758 97.0571 127.453 97.3819 127.081 97.6119C127.779 97.851 128.383 98.3069 128.808 98.9139C129.232 99.5209 129.454 100.248 129.443 100.99C129.443 103.37 127.599 104.985 125.142 104.985H118.873L118.786 104.897V92.0891L118.873 91.9936H124.041ZM120.929 97.0097H124.041C125.273 97.0097 125.827 96.547 125.827 95.5408C125.827 94.6522 125.273 94.1822 124.041 94.1822H120.929V97.0097ZM120.929 102.826H125.077C125.329 102.862 125.586 102.84 125.829 102.763C126.071 102.686 126.294 102.556 126.481 102.382C126.668 102.207 126.814 101.994 126.909 101.755C127.004 101.517 127.045 101.261 127.03 101.005C127.042 100.75 126.998 100.495 126.901 100.259C126.805 100.023 126.659 99.8108 126.473 99.6373C126.287 99.4639 126.066 99.3335 125.824 99.2551C125.583 99.1767 125.328 99.1523 125.077 99.1836H120.929V102.826Z" fill="white"/>
<path d="M138.219 91.9936L138.314 92.0891L144 104.905L143.905 105H141.638L141.543 104.912L140.341 102.092H134.094L132.818 104.912L132.723 105.008H130.464L130.369 104.919L136.076 92.1038L136.171 92.0083L138.219 91.9936ZM134.874 99.918H139.568L137.184 94.9092L134.874 99.918Z" fill="white"/>
<path d="M63.9131 91.9936L64.0953 92.0891L69.0301 97.3622L73.9431 92.0891L74.1326 91.9936H76.0497L76.1445 92.0891V104.905L76.0497 105H74.0743L73.9869 104.912V95.2911L69.0885 100.432H68.9062L64.0589 95.2911V104.912L63.9714 105.008H62.0106L61.9231 104.919V92.0891L62.0106 91.9936H63.9131Z" fill="white"/>
<path d="M65.3494 113.402C65.7383 113.39 66.1248 113.468 66.4793 113.63C66.7695 113.771 67.0201 113.983 67.2082 114.246C67.3969 114.521 67.5283 114.83 67.5945 115.157C67.6703 115.522 67.707 115.894 67.7039 116.266C67.7072 116.836 67.6386 117.403 67.4998 117.955C67.3792 118.45 67.1745 118.919 66.8947 119.343C66.6411 119.719 66.3074 120.033 65.918 120.261C65.5049 120.497 65.0367 120.616 64.5622 120.607C64.1799 120.617 63.799 120.555 63.4396 120.423C63.1555 120.306 62.905 120.119 62.7107 119.879C62.5079 119.626 62.3635 119.33 62.2879 119.013C62.1953 118.636 62.1512 118.248 62.1567 117.86C62.1559 117.312 62.2121 116.765 62.3244 116.229C62.423 115.711 62.6105 115.214 62.8784 114.761C63.1272 114.344 63.4692 113.992 63.877 113.732C64.3277 113.486 64.8376 113.372 65.3494 113.402ZM65.3494 113.879C64.8952 113.862 64.4478 113.994 64.0738 114.254C63.7323 114.504 63.4528 114.831 63.2574 115.209C63.047 115.614 62.9019 116.05 62.8273 116.501C62.7464 116.959 62.7049 117.424 62.7034 117.889C62.6625 118.488 62.816 119.083 63.1408 119.586C63.3144 119.787 63.5332 119.945 63.7791 120.044C64.0251 120.144 64.291 120.183 64.5549 120.159C64.969 120.171 65.3766 120.052 65.7212 119.821C66.0481 119.59 66.3176 119.286 66.5084 118.932C66.7219 118.542 66.8743 118.121 66.9603 117.684C67.0569 117.217 67.1057 116.742 67.1061 116.266C67.1063 115.968 67.0819 115.671 67.0332 115.377C66.9898 115.119 66.901 114.87 66.7708 114.643C66.6411 114.42 66.455 114.235 66.2314 114.107C65.9634 113.951 65.6589 113.87 65.3494 113.872V113.879Z" fill="white"/>
<path d="M70.3123 120.173C70.5576 120.176 70.8023 120.149 71.0412 120.092C71.2894 120.025 71.5329 119.942 71.7702 119.843L71.9014 120.203C71.6543 120.334 71.3924 120.435 71.1214 120.504C70.822 120.585 70.5132 120.627 70.203 120.629C69.9298 120.637 69.6576 120.592 69.4012 120.496C69.1968 120.416 69.0162 120.285 68.8763 120.114C68.7391 119.942 68.6398 119.741 68.5847 119.527C68.5217 119.287 68.4898 119.04 68.49 118.793C68.495 118.455 68.5267 118.119 68.5847 117.786C68.645 117.407 68.7656 117.04 68.9419 116.699C69.1142 116.355 69.3638 116.056 69.6709 115.825C70.0479 115.574 70.4948 115.45 70.9465 115.473C71.4164 115.459 71.8815 115.571 72.295 115.796L72.1128 116.178C71.8823 116.069 71.6363 115.997 71.3838 115.965C71.2139 115.956 71.0435 115.956 70.8736 115.965C70.5883 115.957 70.307 116.034 70.0645 116.185C69.8254 116.339 69.6237 116.545 69.474 116.788C69.305 117.063 69.1842 117.367 69.1169 117.684C69.0705 118.027 69.0607 118.374 69.0877 118.719C69.0858 118.909 69.1054 119.099 69.146 119.285C69.1809 119.45 69.2478 119.608 69.3428 119.747C69.4383 119.881 69.5664 119.987 69.7146 120.056C69.9026 120.14 70.1068 120.18 70.3123 120.173Z" fill="white"/>
<path d="M75.1669 115.443C75.4501 115.433 75.732 115.488 75.9906 115.605C76.2029 115.709 76.3877 115.863 76.53 116.053C76.6726 116.243 76.7744 116.46 76.8289 116.692C76.8857 116.933 76.9151 117.179 76.9163 117.426C76.9138 117.779 76.8772 118.131 76.807 118.477C76.738 118.838 76.6099 119.186 76.428 119.505C76.2492 119.82 75.9996 120.09 75.699 120.291C75.3545 120.507 74.9532 120.615 74.5473 120.599C74.2577 120.61 73.9692 120.557 73.7018 120.445C73.4922 120.349 73.3094 120.203 73.1696 120.019C73.0319 119.836 72.935 119.626 72.8854 119.402C72.8316 119.161 72.8047 118.915 72.8052 118.668C72.8077 118.295 72.8492 117.923 72.9291 117.559C73.0047 117.191 73.1402 116.839 73.33 116.516C73.5126 116.207 73.7617 115.943 74.0589 115.745C74.39 115.535 74.776 115.43 75.1669 115.443ZM75.1669 115.921C74.8484 115.907 74.5355 116.009 74.2849 116.207C74.0485 116.408 73.8593 116.658 73.7309 116.942C73.5934 117.232 73.4977 117.542 73.4466 117.86C73.3954 118.161 73.3686 118.465 73.3665 118.77C73.3669 118.953 73.3864 119.135 73.4248 119.314C73.4598 119.48 73.5267 119.637 73.6216 119.777C73.7174 119.916 73.8482 120.027 74.0006 120.1C74.1908 120.185 74.3977 120.225 74.6056 120.217C74.9242 120.231 75.2371 120.129 75.4876 119.931C75.7191 119.731 75.9012 119.479 76.0198 119.196C76.1471 118.916 76.2354 118.62 76.2822 118.315C76.3274 118.041 76.3517 117.763 76.3551 117.485C76.3553 117.291 76.3382 117.096 76.304 116.905C76.2738 116.728 76.2094 116.558 76.1145 116.406C76.0206 116.26 75.8931 116.139 75.7428 116.053C75.5641 115.955 75.3629 115.907 75.1596 115.913L75.1669 115.921Z" fill="white"/>
<path d="M80.372 115.524C80.6002 115.517 80.827 115.562 81.0353 115.657C81.2129 115.741 81.3678 115.867 81.4873 116.024C81.6126 116.197 81.7019 116.395 81.7497 116.604C81.809 116.844 81.8384 117.091 81.8372 117.338C81.8341 117.689 81.7975 118.038 81.7278 118.381C81.6564 118.755 81.526 119.114 81.3415 119.446C81.1617 119.773 80.9129 120.056 80.6126 120.276C80.2746 120.51 79.8708 120.629 79.4609 120.614C79.1791 120.624 78.8984 120.574 78.6372 120.467C78.431 120.379 78.2486 120.243 78.105 120.07C77.9785 119.91 77.8867 119.725 77.8353 119.527C77.781 119.306 77.7541 119.079 77.7552 118.851C77.7552 118.68 77.7552 118.487 77.7552 118.271C77.7552 118.056 77.777 117.828 77.8208 117.588C77.8208 117.353 77.8791 117.111 77.9228 116.854C77.9666 116.597 78.003 116.391 78.0467 116.178C78.0905 115.965 78.1925 115.546 78.2873 115.253C78.3747 114.969 78.492 114.696 78.6372 114.437C78.7676 114.201 78.9322 113.986 79.1255 113.798C79.3173 113.616 79.5462 113.479 79.7962 113.395C79.9286 113.349 80.0654 113.317 80.2044 113.299L80.7073 113.24L81.254 113.182C81.4387 113.182 81.6185 113.155 81.7934 113.101L81.8736 113.534C81.5869 113.588 81.3439 113.625 81.1447 113.644L80.6053 113.696C80.3385 113.707 80.0763 113.769 79.8326 113.879C79.6141 113.987 79.4223 114.142 79.2713 114.335C79.0939 114.567 78.9559 114.828 78.8631 115.106C78.7361 115.48 78.6362 115.863 78.5643 116.251C78.6926 116.145 78.8291 116.049 78.9725 115.965C79.1235 115.876 79.2792 115.795 79.439 115.723C79.5921 115.654 79.7506 115.597 79.9128 115.554C80.064 115.524 80.2183 115.514 80.372 115.524ZM80.27 115.98C80.1218 115.981 79.9746 116.003 79.8326 116.046C79.6723 116.094 79.5163 116.155 79.3661 116.229C79.2072 116.307 79.0538 116.395 78.9069 116.494C78.7634 116.589 78.627 116.695 78.4987 116.81C78.4987 116.92 78.4549 117.067 78.4258 117.25C78.3966 117.434 78.3747 117.632 78.3529 117.83C78.331 118.029 78.3164 118.22 78.3019 118.396C78.2873 118.572 78.3019 118.704 78.3019 118.793C78.3004 118.977 78.3175 119.162 78.3529 119.343C78.3839 119.504 78.4485 119.657 78.5424 119.791C78.641 119.926 78.7748 120.03 78.9287 120.092C79.1305 120.172 79.3463 120.21 79.5629 120.203C79.8241 120.202 80.0787 120.12 80.2918 119.968C80.5179 119.8 80.7046 119.584 80.8385 119.336C80.9914 119.055 81.102 118.753 81.1665 118.44C81.2396 118.095 81.2762 117.743 81.2759 117.39C81.2761 117.207 81.2565 117.025 81.2176 116.846C81.1846 116.687 81.1228 116.535 81.0353 116.398C80.9553 116.272 80.845 116.169 80.7146 116.097C80.5762 116.02 80.4207 115.98 80.2627 115.98H80.27Z" fill="white"/>
<path d="M85.0222 115.466C85.2401 115.466 85.4574 115.488 85.6709 115.532C85.885 115.577 86.0948 115.641 86.2978 115.723L86.378 115.473H86.7862C86.7862 115.59 86.7594 115.762 86.706 115.987L86.6039 116.766L86.4873 117.691L86.3707 118.631L86.2686 119.468C86.2395 119.723 86.2176 119.926 86.203 120.078H86.8299L86.8736 120.43C86.7358 120.493 86.5916 120.539 86.4436 120.57C86.3393 120.579 86.2344 120.579 86.1301 120.57C86.0105 120.581 85.8908 120.547 85.7948 120.474C85.7589 120.437 85.7312 120.391 85.7136 120.342C85.6961 120.293 85.6889 120.24 85.6928 120.188V120.056C85.6875 119.978 85.6875 119.899 85.6928 119.821C85.4184 120.052 85.1144 120.244 84.7889 120.394C84.5167 120.52 84.2212 120.588 83.9215 120.592C83.7354 120.596 83.5508 120.558 83.3807 120.482C83.2107 120.406 83.0593 120.293 82.9374 120.151C82.6491 119.774 82.5089 119.304 82.5438 118.829C82.5462 118.428 82.5951 118.029 82.6896 117.64C82.7782 117.253 82.9283 116.883 83.1342 116.545C83.329 116.225 83.5932 115.954 83.9069 115.752C84.243 115.549 84.6307 115.45 85.0222 115.466ZM85.0222 115.943C84.7668 115.941 84.5154 116.007 84.2932 116.134C84.0571 116.273 83.8552 116.463 83.7028 116.692C83.5196 116.964 83.3818 117.264 83.2946 117.581C83.1879 117.966 83.1364 118.364 83.1415 118.763C83.107 119.143 83.2078 119.523 83.4258 119.835C83.5087 119.935 83.6124 120.015 83.7296 120.07C83.8468 120.125 83.9746 120.152 84.1037 120.151C84.4032 120.147 84.6968 120.067 84.9566 119.916C85.2439 119.758 85.5149 119.571 85.7657 119.358L86.1957 116.193C85.997 116.104 85.7893 116.038 85.5762 115.994C85.3866 115.956 85.1937 115.936 85.0003 115.936L85.0222 115.943Z" fill="white"/>
<path d="M88.6887 118.124C88.437 118.066 88.2133 117.921 88.0562 117.715C87.8992 117.508 87.8186 117.253 87.8285 116.993C87.8215 116.755 87.8689 116.519 87.967 116.303C88.0592 116.113 88.194 115.947 88.3607 115.818C88.5436 115.682 88.7518 115.585 88.973 115.531C89.2279 115.467 89.49 115.435 89.7529 115.436H90.1392L90.562 115.48L90.9848 115.561C91.1179 115.59 91.2493 115.627 91.3784 115.671C91.3784 115.744 91.3784 115.913 91.3201 116.163L91.2108 117.037C91.1719 117.37 91.1282 117.725 91.0796 118.102C91.031 118.479 90.9897 118.834 90.9556 119.167L90.8463 120.041C90.8463 120.291 90.7953 120.459 90.788 120.54H90.2267L90.7661 116.024C90.6832 115.994 90.5978 115.972 90.511 115.957L90.2121 115.913H89.9133H89.6654C89.5082 115.914 89.3516 115.934 89.1989 115.972C89.0504 116.007 88.9095 116.069 88.7834 116.156C88.66 116.244 88.5579 116.36 88.4846 116.494C88.402 116.649 88.3617 116.824 88.3679 117C88.3627 117.149 88.398 117.296 88.47 117.426C88.5416 117.545 88.6419 117.644 88.7616 117.713C88.91 117.796 89.0696 117.858 89.2354 117.896C89.4514 117.948 89.6705 117.985 89.8914 118.006L89.8404 118.432C89.6729 118.422 89.5049 118.422 89.3374 118.432C89.2049 118.436 89.074 118.463 88.9511 118.513C88.8367 118.564 88.7346 118.639 88.6522 118.734C88.5494 118.855 88.4658 118.991 88.4044 119.137L87.7921 120.606H87.2017L87.9306 118.954C88.0072 118.777 88.1105 118.614 88.2367 118.469C88.3567 118.337 88.5106 118.24 88.6814 118.19L88.6887 118.124Z" fill="white"/>
<path d="M62.8923 132.313C62.6289 132.315 62.3665 132.28 62.1123 132.21C61.9 132.153 61.6964 132.066 61.5073 131.953L61.6823 131.571C61.8904 131.665 62.1079 131.737 62.331 131.784C62.5255 131.823 62.7232 131.843 62.9214 131.843C63.1697 131.851 63.4165 131.802 63.6427 131.699C63.869 131.596 64.0686 131.442 64.2262 131.248C64.3858 131.054 64.5092 130.833 64.5907 130.595C64.6817 130.328 64.7428 130.052 64.7729 129.772H62.7173L62.7684 129.331L64.8021 129.383C64.8061 129.341 64.8061 129.299 64.8021 129.258V129.14C64.8295 128.726 64.7108 128.315 64.4668 127.98C64.3393 127.84 64.1818 127.731 64.0063 127.661C63.8308 127.591 63.6418 127.562 63.4536 127.576C63.2554 127.578 63.0579 127.598 62.8631 127.635C62.6143 127.684 62.3703 127.755 62.1342 127.848L61.9884 127.481C62.2398 127.367 62.5009 127.276 62.7684 127.209C63.0236 127.145 63.2855 127.113 63.5483 127.113C63.8204 127.107 64.0909 127.157 64.3429 127.26C64.5604 127.353 64.7546 127.494 64.9114 127.672C65.0671 127.855 65.1815 128.071 65.2467 128.303C65.3221 128.566 65.359 128.838 65.3561 129.111C65.3538 129.469 65.3171 129.825 65.2467 130.176C65.1783 130.541 65.0476 130.891 64.8604 131.212C64.681 131.527 64.4315 131.796 64.1315 131.997C63.7588 132.225 63.3273 132.335 62.8923 132.313Z" fill="white"/>
<path d="M66.6826 127.209H67.2366C67.1977 127.581 67.154 127.943 67.1054 128.296C67.0568 128.648 67.0106 129.008 66.9669 129.375H68.0311H68.3008C68.397 129.364 68.4906 129.337 68.5778 129.295C68.6822 129.241 68.7742 129.166 68.8475 129.074C68.9489 128.942 69.0322 128.796 69.0953 128.641L69.2047 128.391L69.4015 127.936L69.5983 127.488L69.7076 127.231H70.247L69.7222 128.45C69.6203 128.69 69.5034 128.923 69.3723 129.148C69.2505 129.363 69.0606 129.531 68.8329 129.625C68.9329 129.647 69.0273 129.689 69.1099 129.75C69.1837 129.808 69.2456 129.881 69.2921 129.963C69.3404 130.053 69.3772 130.15 69.4015 130.249C69.4015 130.36 69.4525 130.47 69.4817 130.595L69.8315 132.254H69.3067C69.2533 131.995 69.1998 131.733 69.1464 131.468C69.0929 131.204 69.0443 130.942 69.0006 130.683C68.974 130.418 68.8522 130.172 68.658 129.992C68.4921 129.874 68.2928 129.812 68.0894 129.816H66.9013L66.7555 131.035C66.7069 131.446 66.6558 131.853 66.6024 132.254H66.063L66.6826 127.209Z" fill="white"/>
<path d="M73.0463 127.128C73.3295 127.118 73.6114 127.173 73.87 127.29C74.0823 127.394 74.2671 127.548 74.4094 127.738C74.552 127.928 74.6538 128.145 74.7083 128.377C74.7651 128.617 74.7944 128.864 74.7957 129.111C74.7932 129.464 74.7566 129.816 74.6864 130.161C74.6174 130.523 74.4893 130.87 74.3074 131.19C74.1286 131.505 73.8789 131.774 73.5784 131.975C73.2339 132.192 72.8326 132.3 72.4267 132.284C72.1371 132.295 71.8486 132.242 71.5812 132.13C71.3717 132.034 71.189 131.888 71.049 131.704C70.9115 131.521 70.8146 131.311 70.7648 131.087C70.711 130.846 70.6841 130.599 70.6846 130.352C70.6869 129.979 70.7284 129.608 70.8085 129.243C70.884 128.876 71.0194 128.523 71.2094 128.2C71.3924 127.892 71.6415 127.629 71.9383 127.429C72.2694 127.219 72.6554 127.115 73.0463 127.128ZM73.0463 127.606C72.7278 127.592 72.4149 127.693 72.1643 127.892C71.9279 128.092 71.7387 128.343 71.6103 128.626C71.4723 128.917 71.3766 129.226 71.326 129.544C71.2747 129.845 71.2479 130.15 71.2458 130.455C71.2461 130.638 71.2657 130.82 71.3042 130.999C71.339 131.164 71.4059 131.322 71.501 131.461C71.5971 131.601 71.7278 131.712 71.88 131.784C72.0725 131.87 72.282 131.91 72.4923 131.902C72.8109 131.916 73.124 131.815 73.3743 131.616C73.6058 131.416 73.7879 131.164 73.9064 130.881C74.0337 130.601 74.122 130.304 74.1689 130C74.2141 129.725 74.2384 129.448 74.2417 129.17C74.2419 128.975 74.2249 128.781 74.1907 128.59C74.1604 128.412 74.0961 128.243 74.0012 128.09C73.9073 127.944 73.7797 127.823 73.6294 127.738C73.4501 127.642 73.2489 127.597 73.0463 127.606Z" fill="white"/>
<path d="M78.6515 132.24L78.9577 129.787H76.3773L76.0784 132.24H75.5244L76.1294 127.231H76.6907L76.421 129.353H78.9795L79.2492 127.231H79.8105L79.1982 132.24H78.6515Z" fill="white"/>
<path d="M82.8358 127.128C83.1191 127.117 83.4009 127.173 83.6595 127.29C83.8718 127.394 84.0566 127.548 84.1989 127.738C84.3416 127.927 84.4434 128.145 84.4978 128.376C84.5546 128.617 84.584 128.864 84.5853 129.111C84.5827 129.464 84.5461 129.815 84.4759 130.161C84.4069 130.523 84.2788 130.87 84.0969 131.189C83.9181 131.505 83.6685 131.774 83.3679 131.975C83.0234 132.192 82.6222 132.299 82.2162 132.284C81.9266 132.294 81.6382 132.242 81.3707 132.129C81.1586 132.035 80.9733 131.888 80.8313 131.703C80.6938 131.521 80.5968 131.31 80.547 131.086C80.4929 130.846 80.466 130.599 80.4668 130.352C80.469 129.979 80.5105 129.607 80.5907 129.243C80.6666 128.876 80.802 128.523 80.9916 128.2C81.1745 127.892 81.4235 127.628 81.7206 127.429C82.0537 127.218 82.4425 127.113 82.8358 127.128ZM82.8358 127.605C82.5173 127.592 82.2044 127.693 81.9538 127.892C81.7176 128.092 81.5284 128.343 81.3998 128.626C81.2614 128.917 81.1656 129.226 81.1156 129.544C81.064 129.845 81.0372 130.15 81.0354 130.455C81.0355 130.638 81.055 130.82 81.0937 130.998C81.128 131.164 81.1949 131.322 81.2905 131.461C81.3864 131.601 81.5171 131.712 81.6695 131.784C81.8598 131.869 82.0666 131.909 82.2746 131.902C82.5931 131.915 82.906 131.814 83.1566 131.615C83.388 131.415 83.5702 131.164 83.6887 130.881C83.816 130.601 83.9043 130.304 83.9511 130C83.9963 129.725 84.0207 129.448 84.024 129.17C84.0242 128.975 84.0071 128.781 83.973 128.589C83.9427 128.412 83.8783 128.242 83.7834 128.09C83.6895 127.944 83.562 127.823 83.4117 127.738C83.2345 127.643 83.036 127.598 82.8358 127.605Z" fill="white"/>
<path d="M86.5389 127.973L86.3566 128.928L85.6715 132.24H85.1248L86.2327 127.209H86.845L87.574 130.147L87.8509 131.248H87.8947L88.3758 130.198L89.8336 127.202H90.4605L90.4168 132.232H89.9065L89.9794 129.008V127.958L89.4983 128.928L88.0405 131.784H87.4792L86.7503 128.92L86.5826 127.973H86.5389Z" fill="white"/>
<path d="M92.4135 127.216L92.0053 130.837C91.9989 130.888 91.9989 130.94 92.0053 130.991V131.145C91.997 131.243 92.0081 131.342 92.0382 131.435C92.0682 131.528 92.1165 131.615 92.1802 131.689C92.3433 131.818 92.5497 131.879 92.7561 131.858C93.4342 131.773 94.0611 131.45 94.5274 130.947L94.9648 127.216H95.526C95.526 127.373 95.4993 127.583 95.4458 127.848C95.3924 128.112 95.3559 128.404 95.3365 128.722C95.2976 129.04 95.2563 129.37 95.2126 129.713L95.096 130.712C95.0571 131.03 95.0206 131.324 94.9866 131.593C94.9526 131.863 94.9283 132.076 94.9137 132.232H94.3743L94.4764 131.498C94.1632 131.765 93.8149 131.988 93.4413 132.159C93.1727 132.281 92.8829 132.348 92.5884 132.357C92.4029 132.363 92.2177 132.336 92.0417 132.276C91.915 132.234 91.8009 132.16 91.7104 132.061C91.6198 131.962 91.5558 131.842 91.5242 131.711C91.4893 131.577 91.4722 131.438 91.4732 131.3C91.4732 131.248 91.4732 131.204 91.4732 131.153C91.4732 131.101 91.4732 131.057 91.4732 131.006L91.8887 127.246L92.4135 127.216Z" fill="white"/>
<path d="M96.962 127.216L96.7652 128.979C96.7199 129.228 96.7531 129.484 96.86 129.713C96.9321 129.806 97.0275 129.878 97.1363 129.922C97.2452 129.966 97.3636 129.98 97.4795 129.963C98.1458 129.945 98.7828 129.684 99.2727 129.229L99.506 127.216H100.06C100.06 127.388 100.033 127.608 99.9798 127.877C99.9263 128.146 99.8899 128.438 99.8704 128.751C99.8316 129.069 99.7951 129.395 99.7611 129.728C99.7271 130.061 99.6906 130.386 99.6518 130.705C99.6129 131.023 99.5764 131.314 99.5424 131.579L99.4622 132.24H98.9083C98.9617 131.809 99.0127 131.383 99.0613 130.962C99.1099 130.541 99.1682 130.129 99.2363 129.728C98.9219 129.977 98.5666 130.168 98.1866 130.293C97.911 130.385 97.6239 130.437 97.3338 130.448C97.106 130.459 96.8788 130.416 96.6704 130.323C96.5263 130.253 96.4068 130.14 96.3278 130C96.2563 129.859 96.2189 129.703 96.2185 129.544C96.2071 129.366 96.2071 129.187 96.2185 129.008L96.4153 127.224L96.962 127.216Z" fill="white"/>
<path d="M103.202 127.113C103.405 127.107 103.608 127.139 103.799 127.209C103.952 127.268 104.091 127.358 104.208 127.473C104.315 127.581 104.397 127.711 104.448 127.855C104.52 128.068 104.542 128.294 104.51 128.516C104.478 128.738 104.395 128.95 104.266 129.133C104.07 129.373 103.82 129.562 103.537 129.684C103.206 129.838 102.855 129.947 102.495 130.007C102.073 130.082 101.647 130.131 101.219 130.154C101.216 130.21 101.216 130.267 101.219 130.323V130.462C101.219 130.625 101.236 130.788 101.27 130.947C101.302 131.107 101.363 131.259 101.452 131.395C101.547 131.535 101.675 131.648 101.824 131.726C102.014 131.82 102.225 131.866 102.436 131.858C102.682 131.856 102.926 131.827 103.165 131.77C103.416 131.706 103.66 131.617 103.894 131.505L104.025 131.865C103.782 132.006 103.519 132.11 103.245 132.174C102.933 132.249 102.612 132.286 102.291 132.284C102.008 132.294 101.727 132.241 101.467 132.13C101.264 132.036 101.089 131.892 100.957 131.711C100.827 131.529 100.738 131.321 100.694 131.101C100.645 130.86 100.621 130.614 100.621 130.367C100.624 130.011 100.663 129.657 100.738 129.309C100.815 128.934 100.953 128.574 101.146 128.244C101.338 127.917 101.603 127.638 101.919 127.429C102.304 127.193 102.752 127.083 103.202 127.113ZM103.114 127.591C102.861 127.584 102.61 127.642 102.385 127.76C102.173 127.874 101.987 128.031 101.839 128.222C101.679 128.431 101.553 128.664 101.467 128.913C101.368 129.19 101.302 129.479 101.27 129.772C101.949 129.769 102.622 129.636 103.253 129.383C103.463 129.314 103.646 129.18 103.776 129.001C103.907 128.822 103.979 128.606 103.982 128.384C103.994 128.172 103.923 127.964 103.785 127.804C103.693 127.725 103.586 127.666 103.471 127.632C103.355 127.598 103.234 127.589 103.114 127.605V127.591Z" fill="white"/>
<path d="M106.941 131.858C107.186 131.86 107.431 131.833 107.67 131.777C107.918 131.71 108.162 131.627 108.399 131.527L108.53 131.887C108.283 132.019 108.021 132.12 107.75 132.188C107.451 132.27 107.142 132.312 106.832 132.313C106.561 132.32 106.291 132.275 106.037 132.181C105.833 132.101 105.652 131.969 105.512 131.799C105.375 131.626 105.276 131.426 105.221 131.211C105.158 130.972 105.126 130.725 105.126 130.477C105.131 130.14 105.163 129.803 105.221 129.471C105.281 129.092 105.402 128.725 105.578 128.384C105.75 128.04 106 127.74 106.307 127.51C106.684 127.258 107.131 127.135 107.582 127.157C108.052 127.144 108.517 127.255 108.931 127.481L108.749 127.863C108.518 127.754 108.272 127.682 108.02 127.65C107.85 127.64 107.68 127.64 107.51 127.65C107.224 127.642 106.943 127.718 106.7 127.87C106.461 128.024 106.26 128.229 106.11 128.472C105.941 128.748 105.82 129.051 105.753 129.368C105.673 129.727 105.634 130.094 105.636 130.462C105.635 130.652 105.654 130.842 105.695 131.028C105.729 131.194 105.796 131.351 105.891 131.491C105.987 131.624 106.115 131.73 106.263 131.799C106.481 131.876 106.714 131.896 106.941 131.858Z" fill="white"/>
<path d="M109.995 127.209H110.549C110.51 127.581 110.469 127.943 110.425 128.296L110.287 129.375H111.365H111.635C111.731 129.364 111.825 129.337 111.912 129.295C112.017 129.242 112.109 129.166 112.182 129.074C112.283 128.942 112.367 128.796 112.43 128.641L112.539 128.391L112.736 127.936L112.933 127.488L113.042 127.231H113.552L113.027 128.45C112.925 128.69 112.808 128.923 112.678 129.148C112.556 129.363 112.366 129.531 112.138 129.625C112.238 129.647 112.332 129.689 112.415 129.75C112.489 129.808 112.551 129.881 112.597 129.963C112.646 130.053 112.682 130.15 112.707 130.249C112.707 130.36 112.765 130.47 112.787 130.595L113.137 132.254H112.597C112.544 131.995 112.49 131.733 112.437 131.468C112.384 131.204 112.335 130.942 112.291 130.683C112.265 130.418 112.143 130.172 111.949 129.992C111.783 129.874 111.583 129.812 111.38 129.816H110.206C110.158 130.213 110.109 130.619 110.061 131.035C110.012 131.451 109.961 131.858 109.908 132.254H109.368L109.995 127.209Z" fill="white"/>
<path d="M116.468 127.15C116.686 127.15 116.904 127.172 117.117 127.216C117.331 127.261 117.541 127.325 117.744 127.407L117.824 127.157H118.232C118.232 127.275 118.206 127.446 118.152 127.672L118.05 128.45L117.934 129.375L117.817 130.315L117.715 131.153C117.686 131.407 117.664 131.61 117.649 131.762H118.276L118.32 132.115C118.182 132.177 118.038 132.224 117.89 132.254C117.786 132.263 117.681 132.263 117.576 132.254C117.457 132.266 117.337 132.232 117.241 132.159C117.205 132.121 117.177 132.076 117.16 132.027C117.142 131.977 117.135 131.925 117.139 131.872V131.74C117.134 131.662 117.134 131.583 117.139 131.505C116.865 131.736 116.561 131.929 116.235 132.078C115.963 132.205 115.667 132.272 115.368 132.276C115.182 132.28 114.997 132.243 114.827 132.166C114.657 132.09 114.506 131.977 114.384 131.836C114.095 131.459 113.955 130.988 113.99 130.514C113.992 130.113 114.041 129.713 114.136 129.324C114.224 128.937 114.375 128.568 114.581 128.23C114.775 127.91 115.039 127.639 115.353 127.437C115.689 127.234 116.077 127.134 116.468 127.15ZM116.468 127.627C116.213 127.626 115.962 127.692 115.74 127.818C115.503 127.957 115.301 128.148 115.149 128.377C114.966 128.648 114.828 128.949 114.741 129.265C114.634 129.65 114.583 130.048 114.588 130.448C114.553 130.828 114.654 131.208 114.872 131.52C114.955 131.62 115.059 131.7 115.176 131.754C115.293 131.809 115.421 131.837 115.55 131.836C115.85 131.832 116.143 131.751 116.403 131.601C116.69 131.442 116.961 131.255 117.212 131.043L117.642 127.877C117.443 127.788 117.236 127.722 117.022 127.679C116.841 127.637 116.655 127.612 116.468 127.605V127.627Z" fill="white"/>
<path d="M120.113 129.809C119.861 129.751 119.638 129.606 119.481 129.399C119.324 129.193 119.243 128.938 119.253 128.678C119.246 128.44 119.293 128.204 119.391 127.987C119.484 127.797 119.618 127.631 119.785 127.503C119.968 127.367 120.176 127.269 120.397 127.216C120.652 127.152 120.914 127.119 121.177 127.121H121.564L121.986 127.165L122.409 127.246C122.542 127.275 122.674 127.312 122.803 127.356C122.803 127.429 122.803 127.598 122.745 127.848L122.635 128.722C122.596 129.055 122.553 129.41 122.504 129.787C122.455 130.164 122.414 130.519 122.38 130.852L122.271 131.726C122.271 131.975 122.22 132.144 122.212 132.225H121.658L122.198 127.708C122.115 127.679 122.03 127.657 121.943 127.642L121.644 127.598H121.345H121.097C120.94 127.599 120.783 127.619 120.631 127.657C120.482 127.692 120.341 127.754 120.215 127.841C120.092 127.929 119.99 128.045 119.916 128.178C119.834 128.334 119.793 128.509 119.8 128.685C119.794 128.834 119.83 128.981 119.902 129.111C119.973 129.23 120.074 129.328 120.193 129.397C120.342 129.481 120.501 129.543 120.667 129.581C120.883 129.633 121.102 129.669 121.323 129.691L121.272 130.117C121.105 130.107 120.937 130.107 120.769 130.117C120.637 130.121 120.506 130.148 120.383 130.198C120.268 130.248 120.166 130.324 120.084 130.418C119.981 130.539 119.898 130.676 119.836 130.822L119.224 132.291H118.655L119.384 130.639C119.461 130.462 119.564 130.299 119.69 130.154C119.796 130.001 119.942 129.881 120.113 129.809Z" fill="white"/>
<path d="M63.0381 143.998C62.7519 143.997 62.4665 143.97 62.1852 143.917C61.9334 143.87 61.6885 143.791 61.4563 143.682L61.6094 143.293C61.8316 143.386 62.0641 143.453 62.3019 143.491C62.5426 143.534 62.7864 143.556 63.0308 143.557C63.2304 143.558 63.4291 143.531 63.6212 143.476C63.8036 143.425 63.9761 143.343 64.1315 143.234C64.2812 143.128 64.4057 142.99 64.4959 142.83C64.5913 142.657 64.6391 142.462 64.6344 142.265C64.6402 142.13 64.6093 141.997 64.545 141.879C64.4808 141.761 64.3856 141.663 64.27 141.596C64.1504 141.526 64.0197 141.476 63.8836 141.449C63.7349 141.419 63.5834 141.404 63.4317 141.405H62.8048C62.8048 141.339 62.8048 141.273 62.8048 141.207C62.8001 141.141 62.8001 141.075 62.8048 141.009H63.3369C63.5092 141.009 63.6807 140.987 63.8472 140.943C64.0009 140.902 64.1464 140.835 64.2773 140.744C64.3967 140.663 64.4984 140.558 64.5761 140.436C64.6507 140.315 64.6887 140.174 64.6855 140.032C64.69 139.918 64.6623 139.805 64.6055 139.706C64.5487 139.607 64.4652 139.527 64.3647 139.474C64.1127 139.343 63.8316 139.28 63.5483 139.29C63.3202 139.294 63.0931 139.321 62.8704 139.371C62.6049 139.427 62.346 139.511 62.0978 139.621C62.0978 139.555 62.0467 139.488 62.0249 139.422L61.9666 139.231C62.243 139.095 62.5341 138.992 62.834 138.923C63.1039 138.858 63.3802 138.823 63.6577 138.82C64.0537 138.805 64.4457 138.904 64.7875 139.107C64.9304 139.194 65.0471 139.318 65.1254 139.467C65.2037 139.616 65.2406 139.783 65.2321 139.951C65.2322 140.217 65.1451 140.475 64.9843 140.686C64.8007 140.926 64.5452 141.101 64.2554 141.185C64.511 141.244 64.7441 141.377 64.926 141.567C65.1052 141.768 65.1994 142.031 65.1884 142.301C65.1969 142.557 65.1391 142.81 65.0208 143.036C64.9081 143.246 64.7514 143.429 64.5615 143.572C64.3581 143.725 64.1283 143.84 63.8836 143.91C63.6073 143.979 63.3226 144.009 63.0381 143.998Z" fill="white"/>
<path d="M68.4103 138.805C68.6935 138.795 68.9753 138.85 69.234 138.967C69.4463 139.072 69.6311 139.225 69.7734 139.415C69.9161 139.605 70.0178 139.822 70.0723 140.054C70.1292 140.295 70.1586 140.541 70.1597 140.788C70.157 141.141 70.1204 141.493 70.0504 141.839C69.9814 142.2 69.8533 142.548 69.6714 142.867C69.4926 143.182 69.243 143.452 68.9424 143.653C68.5979 143.869 68.1966 143.977 67.7907 143.961C67.5011 143.972 67.2126 143.919 66.9452 143.807C66.7358 143.711 66.553 143.565 66.4131 143.381C66.2755 143.198 66.1786 142.988 66.1288 142.764C66.075 142.523 66.0481 142.277 66.0486 142.03C66.0509 141.657 66.0924 141.285 66.1725 140.921C66.248 140.553 66.3834 140.201 66.5734 139.878C66.7565 139.569 67.0055 139.306 67.3023 139.107C67.6334 138.897 68.0194 138.792 68.4103 138.805ZM68.4103 139.283C68.0918 139.269 67.7789 139.371 67.5283 139.569C67.2919 139.77 67.1027 140.021 66.9743 140.304C66.8363 140.594 66.7406 140.903 66.69 141.222C66.6387 141.523 66.6119 141.827 66.6099 142.132C66.6101 142.315 66.6297 142.497 66.6682 142.676C66.7031 142.842 66.7699 142.999 66.865 143.139C66.9611 143.278 67.0918 143.389 67.244 143.462C67.4365 143.547 67.646 143.588 67.8563 143.579C68.1749 143.593 68.4878 143.491 68.7383 143.293C68.9698 143.093 69.1519 142.841 69.2705 142.558C69.3975 142.278 69.4858 141.981 69.5329 141.677C69.5781 141.403 69.6025 141.125 69.6058 140.847C69.606 140.653 69.5889 140.458 69.5547 140.267C69.5245 140.09 69.4601 139.92 69.3652 139.768C69.2713 139.622 69.1438 139.501 68.9935 139.415C68.8141 139.32 68.6129 139.274 68.4103 139.283Z" fill="white"/>
<path d="M74.0153 143.924L74.3214 141.471H71.741L71.4422 143.924H70.8882L71.4932 138.916H72.0545L71.7921 141.038H74.3506L74.6203 138.916H75.1816L74.5693 143.924H74.0153Z" fill="white"/>
<path d="M78.3085 138.827C78.5265 138.827 78.7438 138.849 78.9573 138.894C79.1714 138.939 79.3811 139.002 79.5842 139.084L79.6644 138.835H80.0725C80.0725 138.952 80.0458 139.124 79.9924 139.349L79.8903 140.127L79.7737 141.053L79.6571 141.993L79.555 142.83C79.5259 143.085 79.504 143.288 79.4894 143.44H80.1163L80.16 143.792C80.0222 143.854 79.8779 143.901 79.73 143.932C79.6257 143.941 79.5208 143.941 79.4165 143.932C79.2968 143.943 79.1772 143.909 79.0812 143.836C79.0452 143.798 79.0176 143.753 79 143.704C78.9824 143.655 78.9753 143.602 78.9792 143.55V143.418C78.9739 143.339 78.9739 143.261 78.9792 143.183C78.7048 143.414 78.4007 143.606 78.0753 143.755C77.8031 143.882 77.5076 143.949 77.2079 143.954C77.0218 143.957 76.8372 143.92 76.6671 143.844C76.497 143.768 76.3457 143.655 76.2238 143.513C75.9355 143.136 75.7953 142.666 75.8302 142.191C75.8326 141.79 75.8815 141.391 75.976 141.001C76.0645 140.615 76.2147 140.245 76.4206 139.907C76.6154 139.587 76.8795 139.316 77.1933 139.114C77.5294 138.911 77.917 138.811 78.3085 138.827ZM78.3085 139.305C78.0532 139.303 77.8018 139.369 77.5796 139.496C77.3435 139.634 77.1416 139.825 76.9892 140.054C76.806 140.326 76.6681 140.626 76.581 140.943C76.4743 141.327 76.4228 141.725 76.4279 142.125C76.3934 142.505 76.4942 142.885 76.7122 143.197C76.795 143.297 76.8988 143.377 77.016 143.432C77.1332 143.486 77.261 143.514 77.3901 143.513C77.6896 143.509 77.9832 143.428 78.2429 143.278C78.5303 143.119 78.8013 142.932 79.052 142.72L79.4821 139.554C79.2834 139.466 79.0756 139.399 78.8625 139.356C78.6751 139.32 78.4847 139.303 78.294 139.305H78.3085Z" fill="white"/>
<path d="M14.8049 42.163C14.7683 42.1594 14.733 42.1477 14.7015 42.1286C14.6699 42.1096 14.643 42.0837 14.6227 42.0528L6.16709 28.6497C6.15719 28.6087 6.15719 28.5659 6.16709 28.5248C6.16426 28.5029 6.16426 28.4807 6.16709 28.4587V28.4147L21.0154 7.11648C21.0349 7.08776 21.061 7.06413 21.0914 7.04753C21.1218 7.03094 21.1557 7.02184 21.1903 7.021L45.4053 4.25958H45.5146C45.561 4.27727 45.6014 4.30783 45.6313 4.34771C45.6423 4.37448 45.648 4.40319 45.648 4.43217C45.648 4.46116 45.6423 4.48986 45.6313 4.51663L45.5875 4.59742L14.9725 42.0161C14.9584 42.0524 14.9357 42.0847 14.9066 42.1102C14.8774 42.1358 14.8425 42.1539 14.8049 42.163ZM6.69192 28.5983L14.8268 41.5167L44.3556 5.442L6.69192 28.5983ZM21.3507 7.42493L7.20945 27.7243L44.3848 4.86181L21.3507 7.42493Z" fill="white"/>
<path d="M28.9962 75.8068C28.9495 75.8064 28.904 75.7922 28.8651 75.7661C28.8263 75.7401 28.7959 75.7032 28.7775 75.6599L20.9779 58.4965L4.51144 48.6773C4.45644 48.6451 4.41636 48.5922 4.39997 48.5303C4.38357 48.4684 4.3922 48.4024 4.42397 48.3469C4.46055 48.2963 4.51511 48.262 4.57625 48.251C4.63738 48.2401 4.70036 48.2533 4.75199 48.2881L20.6572 57.7695L14.5852 42.0088C14.5667 41.9641 14.5623 41.9146 14.5728 41.8673C14.5832 41.82 14.6079 41.777 14.6435 41.7444C14.6837 41.7182 14.7305 41.7042 14.7784 41.7042C14.8263 41.7042 14.8731 41.7182 14.9133 41.7444L42.0731 55.5221C42.1182 55.5462 42.1544 55.5841 42.1767 55.6303C42.199 55.6765 42.2061 55.7286 42.1971 55.7792C42.1883 55.8298 42.1638 55.8762 42.1271 55.9119C42.0904 55.9475 42.0434 55.9705 41.993 55.9775L21.9766 58.4598L55.9665 74.3527C56.0143 74.376 56.053 74.4146 56.0768 74.4624C56.1005 74.5102 56.1079 74.5646 56.0977 74.6171C56.0879 74.669 56.061 74.7162 56.0213 74.7508C55.9816 74.7855 55.9315 74.8056 55.879 74.808L28.9962 75.8068ZM21.6121 58.8123L29.1638 75.3148L54.9096 74.36L21.6121 58.8123ZM15.2486 42.4127L21.2841 58.0632L41.162 55.5956L15.2486 42.4127Z" fill="white"/>
<path d="M4.62871 48.7067C4.58803 48.717 4.54547 48.717 4.50479 48.7067C4.46752 48.6826 4.4376 48.6486 4.4183 48.6084C4.39901 48.5682 4.3911 48.5235 4.39545 48.4791L6.1303 28.4955C6.14401 28.4391 6.17738 28.3895 6.22432 28.3558C6.27126 28.3221 6.32865 28.3065 6.38604 28.3118C6.44344 28.3172 6.49703 28.3431 6.53705 28.3849C6.57707 28.4267 6.60086 28.4816 6.6041 28.5395L4.94214 48.0017L14.7098 41.715C14.7358 41.6919 14.7666 41.6746 14.7999 41.6646C14.8332 41.6545 14.8682 41.6518 14.9027 41.6567C14.9371 41.6616 14.97 41.674 14.9993 41.693C15.0285 41.7119 15.0533 41.737 15.0719 41.7666C15.0906 41.7961 15.1027 41.8294 15.1074 41.8641C15.112 41.8988 15.1092 41.9341 15.099 41.9676C15.0888 42.0011 15.0716 42.032 15.0484 42.0581C15.0253 42.0842 14.9968 42.105 14.9649 42.119L4.75991 48.6627C4.7216 48.6904 4.67586 48.7057 4.62871 48.7067Z" fill="white"/>
<path d="M55.9013 74.808C55.8647 74.8072 55.8287 74.7982 55.7959 74.7817C55.7631 74.7652 55.7344 74.7415 55.7118 74.7125L41.7747 55.882C41.737 55.8313 41.7208 55.7677 41.7297 55.705C41.7386 55.6423 41.7718 55.5858 41.8221 55.5478C41.8723 55.5098 41.9355 55.4935 41.9977 55.5025C42.0599 55.5114 42.116 55.5449 42.1537 55.5955L56.0908 74.4334C56.1096 74.458 56.1233 74.486 56.1313 74.516C56.1393 74.5459 56.1413 74.5771 56.1372 74.6078C56.1331 74.6385 56.1231 74.6681 56.1076 74.6949C56.0922 74.7217 56.0716 74.7452 56.0471 74.7639C56.0043 74.7936 55.9533 74.809 55.9013 74.808Z" fill="white"/>
<path d="M55.9013 74.808C55.8647 74.8072 55.8287 74.7982 55.7959 74.7817C55.7631 74.7652 55.7344 74.7416 55.7118 74.7125L41.7747 55.882C41.7549 55.846 41.7445 55.8056 41.7445 55.7645C41.7445 55.7234 41.7549 55.6829 41.7747 55.647L55.4494 22.3704L14.9064 42.1336C14.8786 42.1471 14.8485 42.155 14.8177 42.1568C14.7869 42.1585 14.7561 42.1542 14.727 42.144C14.6979 42.1337 14.6711 42.1178 14.6481 42.0971C14.6251 42.0765 14.6063 42.0514 14.5929 42.0235C14.5795 41.9955 14.5717 41.9651 14.57 41.9341C14.5682 41.9031 14.5725 41.8721 14.5827 41.8428C14.5928 41.8134 14.6086 41.7864 14.6291 41.7632C14.6497 41.7401 14.6745 41.7212 14.7023 41.7077L55.792 21.6653C55.8439 21.6474 55.9004 21.6474 55.9523 21.6653H55.9888C56.0305 21.685 56.064 21.7188 56.0835 21.7608L71.6097 55.6323C71.6315 55.6702 71.6429 55.7133 71.6429 55.7571C71.6429 55.801 71.6315 55.844 71.6097 55.882L56.0835 74.7272C56.0617 74.7542 56.0337 74.7757 56.0021 74.7897C55.9704 74.8037 55.9359 74.81 55.9013 74.808ZM42.2339 55.7131L55.9159 74.1911L71.114 55.6984L55.9159 22.4732L42.2339 55.7131Z" fill="white"/>
<path d="M72.7323 34.4957C72.6806 34.4957 72.6303 34.4784 72.5894 34.4465C72.5485 34.4146 72.5193 34.3699 72.5064 34.3194L67.9724 17.5893C67.9705 17.5674 67.9705 17.5452 67.9724 17.5232C67.974 17.4705 67.9927 17.4197 68.0256 17.3786C68.0585 17.3375 68.1038 17.3083 68.1547 17.2956C68.1843 17.2878 68.2152 17.2861 68.2456 17.2904C68.2759 17.2947 68.3051 17.305 68.3315 17.3207C68.3579 17.3364 68.381 17.3571 68.3994 17.3818C68.4179 17.4065 68.4313 17.4346 68.4389 17.4645L72.9802 34.1946C72.9815 34.2166 72.9815 34.2387 72.9802 34.2607C72.9806 34.3137 72.9637 34.3655 72.9321 34.4079C72.9005 34.4504 72.8559 34.4812 72.8052 34.4957H72.7323Z" fill="white"/>
<path d="M71.3841 55.9776H71.3258C71.2674 55.9776 71.2164 55.9776 71.1945 55.6471C71.1289 54.6336 71.3622 50.6457 72.492 34.4077L55.7631 22.0767C55.7366 22.0569 55.7143 22.0319 55.6975 22.0033L45.2301 4.61958C45.1987 4.57468 45.1839 4.52012 45.1882 4.46537C45.1926 4.41062 45.2159 4.35913 45.254 4.31986C45.2921 4.28058 45.3427 4.256 45.3969 4.25038C45.4511 4.24476 45.5056 4.25845 45.5508 4.28909L68.3153 17.3177C68.3615 17.3531 68.3934 17.4041 68.4052 17.4614C68.417 17.5187 68.4079 17.5783 68.3794 17.6293C68.351 17.6803 68.3053 17.7192 68.2506 17.7389C68.196 17.7585 68.1361 17.7576 68.082 17.7363L46.1121 5.16305L56.0839 21.7169L72.8492 34.0625C72.881 34.0875 72.9063 34.12 72.9228 34.1571C72.9393 34.1942 72.9466 34.2349 72.944 34.2755C72.4046 42.4128 71.5809 54.685 71.6173 55.6324C71.6424 55.6935 71.6424 55.7622 71.6173 55.8233C71.5983 55.8697 71.5659 55.9092 71.5243 55.9367C71.4827 55.9642 71.4338 55.9784 71.3841 55.9776Z" fill="white"/>
<path d="M55.9017 74.8079C55.8392 74.806 55.7799 74.7797 55.7363 74.7344C55.6928 74.6892 55.6684 74.6286 55.6685 74.5656V21.8489C55.6701 21.8002 55.6863 21.7531 55.7149 21.7138C55.7435 21.6745 55.7832 21.6448 55.8288 21.6286L68.1186 17.2955C68.149 17.2774 68.1831 17.2663 68.2183 17.2629C68.2535 17.2596 68.2891 17.2641 68.3224 17.2762C68.3557 17.2883 68.3859 17.3076 68.4109 17.3328C68.4359 17.358 68.4551 17.3884 68.4672 17.422C68.4792 17.4555 68.4837 17.4913 68.4804 17.5268C68.4771 17.5623 68.466 17.5966 68.4481 17.6273C68.4301 17.658 68.4056 17.6844 68.3764 17.7044C68.3471 17.7245 68.3139 17.7379 68.2789 17.7435L56.135 22.0546V74.5729C56.135 74.6353 56.1104 74.695 56.0667 74.7391C56.0229 74.7832 55.9636 74.8079 55.9017 74.8079Z" fill="white"/>
<path d="M55.7707 75.6746C56.5356 75.6746 57.1557 75.0498 57.1557 74.2792C57.1557 73.5085 56.5356 72.8838 55.7707 72.8838C55.0058 72.8838 54.3857 73.5085 54.3857 74.2792C54.3857 75.0498 55.0058 75.6746 55.7707 75.6746Z" fill="white"/>
<path d="M29.0117 76.9527C29.7766 76.9527 30.3966 76.3279 30.3966 75.5573C30.3966 74.7866 29.7766 74.1619 29.0117 74.1619C28.2468 74.1619 27.6267 74.7866 27.6267 75.5573C27.6267 76.3279 28.2468 76.9527 29.0117 76.9527Z" fill="white"/>
<path d="M71.1799 57.0351C71.9408 57.0351 72.5576 56.4137 72.5576 55.6471C72.5576 54.8805 71.9408 54.259 71.1799 54.259C70.4191 54.259 69.8022 54.8805 69.8022 55.6471C69.8022 56.4137 70.4191 57.0351 71.1799 57.0351Z" fill="white"/>
<path d="M73.8769 34.2681C73.874 34.5423 73.7905 34.8095 73.6371 35.0359C73.4837 35.2624 73.2671 35.438 73.0147 35.5406C72.7623 35.6432 72.4854 35.6682 72.2189 35.6124C71.9524 35.5566 71.7083 35.4225 71.5174 35.2271C71.3265 35.0316 71.1973 34.7836 71.1461 34.5143C71.095 34.2449 71.1241 33.9664 71.2299 33.7137C71.3357 33.4611 71.5135 33.2457 71.7406 33.0947C71.9678 32.9437 72.2343 32.8639 72.5065 32.8653C72.688 32.8663 72.8676 32.9034 73.0348 32.9745C73.2021 33.0456 73.3538 33.1493 73.4811 33.2796C73.6085 33.41 73.709 33.5644 73.7769 33.7341C73.8448 33.9037 73.8788 34.0852 73.8769 34.2681Z" fill="white"/>
<path d="M67.9941 19.0949C68.759 19.0949 69.3791 18.4701 69.3791 17.6995C69.3791 16.9288 68.759 16.3041 67.9941 16.3041C67.2292 16.3041 66.6091 16.9288 66.6091 17.6995C66.6091 18.4701 67.2292 19.0949 67.9941 19.0949Z" fill="white"/>
<path d="M57.3593 22.1575C57.3607 22.4335 57.2809 22.7037 57.1299 22.9339C56.9789 23.1642 56.7636 23.3442 56.511 23.4512C56.2585 23.5581 55.9802 23.5872 55.7113 23.5348C55.4423 23.4824 55.1949 23.3508 55.0002 23.1567C54.8055 22.9626 54.6723 22.7146 54.6174 22.4442C54.5626 22.1738 54.5885 21.8931 54.692 21.6376C54.7955 21.3821 54.9719 21.1632 55.1988 21.0087C55.4258 20.8541 55.6931 20.7709 55.967 20.7694C56.1492 20.7675 56.3299 20.802 56.4987 20.8708C56.6675 20.9397 56.8211 21.0417 56.9506 21.1707C57.0801 21.2998 57.1829 21.4535 57.253 21.6229C57.3232 21.7923 57.3593 21.974 57.3593 22.1575Z" fill="white"/>
<path d="M45.3908 5.87539C46.1557 5.87539 46.7758 5.25065 46.7758 4.47999C46.7758 3.70934 46.1557 3.08459 45.3908 3.08459C44.6259 3.08459 44.0059 3.70934 44.0059 4.47999C44.0059 5.25065 44.6259 5.87539 45.3908 5.87539Z" fill="white"/>
<path d="M22.7502 7.42484C22.7501 7.70113 22.6687 7.97121 22.5162 8.20084C22.3637 8.43046 22.147 8.60931 21.8935 8.7147C21.64 8.8201 21.3612 8.8473 21.0923 8.79286C20.8235 8.73842 20.5767 8.60479 20.3833 8.40891C20.1899 8.21302 20.0586 7.9637 20.006 7.69254C19.9533 7.42137 19.9818 7.14058 20.0878 6.88573C20.1937 6.63089 20.3723 6.41347 20.6011 6.26103C20.8298 6.10859 21.0983 6.02798 21.3725 6.02944C21.7385 6.03138 22.0889 6.17925 22.3471 6.44073C22.6052 6.70221 22.7502 7.05602 22.7502 7.42484Z" fill="white"/>
<path d="M6.4294 30.1626C7.19429 30.1626 7.81436 29.5378 7.81436 28.7672C7.81436 27.9965 7.19429 27.3718 6.4294 27.3718C5.6645 27.3718 5.04443 27.9965 5.04443 28.7672C5.04443 29.5378 5.6645 30.1626 6.4294 30.1626Z" fill="white"/>
<path d="M14.7241 43.228C15.489 43.228 16.109 42.6032 16.109 41.8326C16.109 41.0619 15.489 40.4372 14.7241 40.4372C13.9592 40.4372 13.3391 41.0619 13.3391 41.8326C13.3391 42.6032 13.9592 43.228 14.7241 43.228Z" fill="white"/>
<path d="M4.84765 49.904C5.60851 49.904 6.22532 49.2825 6.22532 48.5159C6.22532 47.7493 5.60851 47.1279 4.84765 47.1279C4.08678 47.1279 3.46997 47.7493 3.46997 48.5159C3.46997 49.2825 4.08678 49.904 4.84765 49.904Z" fill="white"/>
<path d="M22.7498 58.4673C22.7556 58.7444 22.6794 59.0171 22.5307 59.2504C22.3821 59.4837 22.1679 59.6671 21.9154 59.7772C21.6629 59.8873 21.3836 59.9192 21.113 59.8687C20.8425 59.8182 20.593 59.6877 20.3963 59.4938C20.1997 59.2999 20.0649 59.0513 20.0091 58.7799C19.9532 58.5084 19.9789 58.2264 20.0828 57.9697C20.1867 57.713 20.3641 57.4933 20.5925 57.3386C20.8208 57.184 21.0897 57.1013 21.3649 57.1013C21.7272 57.1012 22.0751 57.2442 22.334 57.4995C22.5929 57.7549 22.7422 58.1023 22.7498 58.4673Z" fill="white"/>
<path d="M41.5998 57.1599C42.3647 57.1599 42.9848 56.5352 42.9848 55.7645C42.9848 54.9939 42.3647 54.3691 41.5998 54.3691C40.8349 54.3691 40.2148 54.9939 40.2148 55.7645C40.2148 56.5352 40.8349 57.1599 41.5998 57.1599Z" fill="white"/>
<path d="M44.3043 81.0505C44.262 81.0519 44.2201 81.0408 44.1839 81.0187C44.1476 80.9965 44.1186 80.9642 44.1002 80.9257C44.0685 80.8702 44.0598 80.8042 44.0762 80.7422C44.0926 80.6803 44.1327 80.6274 44.1877 80.5952L67.8342 67.618L76.2751 38.1237L67.9216 14.3064C67.9025 14.246 67.9069 14.1805 67.934 14.1232C67.961 14.0659 68.0088 14.0211 68.0674 13.998C68.0966 13.9876 68.1275 13.9832 68.1584 13.9849C68.1893 13.9867 68.2196 13.9947 68.2474 14.0084C68.2752 14.022 68.3 14.0411 68.3204 14.0646C68.3409 14.088 68.3564 14.1153 68.3663 14.1449L76.7489 38.0062C76.7662 38.0536 76.7662 38.1057 76.7489 38.1531L68.2642 67.8457C68.2559 67.8769 68.2412 67.9061 68.2211 67.9314C68.2011 67.9567 68.176 67.9775 68.1476 67.9926L44.421 81.0212C44.3854 81.0414 44.3451 81.0515 44.3043 81.0505Z" fill="white"/>
<path d="M67.8268 45.3504C67.7655 45.3486 67.7072 45.3232 67.6639 45.2795C67.6205 45.2359 67.5953 45.1771 67.5935 45.1154L67.9142 14.2183C67.9081 14.1835 67.9097 14.1477 67.9188 14.1136C67.9279 14.0794 67.9443 14.0476 67.9669 14.0205C67.9895 13.9934 68.0177 13.9716 68.0495 13.9567C68.0813 13.9417 68.116 13.934 68.1511 13.934C68.1863 13.934 68.221 13.9417 68.2528 13.9567C68.2846 13.9716 68.3128 13.9934 68.3354 14.0205C68.358 14.0476 68.3744 14.0794 68.3835 14.1136C68.3926 14.1477 68.3941 14.1835 68.388 14.2183L68.0673 45.1227C68.0664 45.1536 68.0594 45.184 68.0468 45.2121C68.0342 45.2403 68.0162 45.2657 67.9939 45.2868C67.9715 45.308 67.9453 45.3245 67.9166 45.3354C67.8879 45.3463 67.8574 45.3514 67.8268 45.3504Z" fill="white"/>
<path d="M11.2405 69.5864C11.1905 69.5835 11.1428 69.565 11.1038 69.5335C11.0648 69.502 11.0365 69.459 11.0229 69.4105C11.0092 69.362 11.0109 69.3105 11.0277 69.2631C11.0445 69.2156 11.0756 69.1746 11.1165 69.1458L17.7935 65.1358L8.26644 33.3134C8.25951 33.2819 8.25951 33.2494 8.26644 33.2179L10.6938 12.7349L1.44367 35.8031C1.41319 35.8511 1.36689 35.8867 1.31292 35.9038C1.25894 35.9208 1.20073 35.9181 1.14852 35.8962C1.09631 35.8743 1.05343 35.8345 1.02742 35.7839C1.00142 35.7333 0.993941 35.6751 1.00631 35.6195L10.9124 10.8915C10.9349 10.8391 10.975 10.7964 11.0257 10.7709C11.0764 10.7454 11.1344 10.7387 11.1894 10.752C11.2447 10.7659 11.2931 10.7997 11.3253 10.8471C11.3575 10.8945 11.3714 10.9521 11.3644 11.009L8.74024 33.2253L18.3038 65.1799C18.3195 65.2301 18.3179 65.2843 18.2994 65.3335C18.2809 65.3828 18.2465 65.4244 18.2017 65.4516L11.3644 69.5497C11.3273 69.5734 11.2844 69.5862 11.2405 69.5864Z" fill="white"/>
<path d="M44.3042 81.0506H44.224L11.1598 69.5863C11.1073 69.5605 11.0659 69.5162 11.0434 69.4618C11.0209 69.4074 11.0189 69.3466 11.0376 69.2908C11.0564 69.235 11.0947 69.188 11.1453 69.1586C11.196 69.1292 11.2556 69.1194 11.3129 69.131L44.2094 80.5292L52.4536 68.6169C52.4728 68.5872 52.4987 68.5625 52.529 68.5446C52.5594 68.5268 52.5935 68.5163 52.6286 68.5141L67.7976 67.1407L67.6299 45.3505L39.6609 41.3699C39.6089 41.3637 39.5605 41.34 39.5235 41.3027C39.4865 41.2654 39.463 41.2166 39.4568 41.1643C39.4568 41.0835 38.378 32.5715 37.3648 24.1698C35.2874 6.96231 35.3967 6.92559 35.6664 6.83746C35.6956 6.82707 35.7265 6.82264 35.7574 6.82442C35.7883 6.8262 35.8186 6.83416 35.8464 6.84783C35.8742 6.8615 35.899 6.88061 35.9194 6.90405C35.9398 6.92748 35.9554 6.95478 35.9653 6.98434C35.982 7.03688 35.982 7.09338 35.9653 7.14591C35.8778 8.36505 38.7498 31.7196 39.9015 40.9292L67.8632 44.8951C67.9192 44.9038 67.9705 44.9321 68.0078 44.9751C68.0452 45.0181 68.0662 45.073 68.0673 45.1301L68.2714 67.3831C68.2718 67.4426 68.2505 67.5001 68.2115 67.5448C68.1725 67.5895 68.1186 67.6182 68.06 67.6254L52.7525 69.0061L44.4719 80.9772C44.4273 81.0223 44.3673 81.0486 44.3042 81.0506Z" fill="white"/>
<path d="M67.8268 45.3504C67.7655 45.3486 67.7072 45.3232 67.6639 45.2795C67.6205 45.2359 67.5953 45.1771 67.5935 45.1154L67.9142 14.2183C67.9081 14.1835 67.9097 14.1477 67.9188 14.1136C67.9279 14.0794 67.9443 14.0476 67.9669 14.0205C67.9895 13.9934 68.0177 13.9716 68.0495 13.9567C68.0813 13.9417 68.116 13.934 68.1511 13.934C68.1863 13.934 68.221 13.9417 68.2528 13.9567C68.2846 13.9716 68.3128 13.9934 68.3354 14.0205C68.358 14.0476 68.3744 14.0794 68.3835 14.1136C68.3926 14.1477 68.3941 14.1835 68.388 14.2183L68.0673 45.1227C68.0664 45.1536 68.0594 45.184 68.0468 45.2121C68.0342 45.2403 68.0162 45.2657 67.9939 45.2868C67.9715 45.308 67.9453 45.3245 67.9166 45.3354C67.8879 45.3463 67.8574 45.3514 67.8268 45.3504Z" fill="white"/>
<path d="M11.1304 11.2219C11.0808 11.2218 11.0325 11.2061 10.992 11.1772C10.9516 11.1483 10.921 11.1075 10.9044 11.0604C10.8941 11.031 10.8897 10.9998 10.8915 10.9687C10.8933 10.9375 10.9012 10.9071 10.9147 10.879C10.9283 10.851 10.9473 10.826 10.9705 10.8054C10.9938 10.7849 11.0209 10.7692 11.0502 10.7593L38.9901 0.785823C39.0192 0.775436 39.0502 0.771003 39.0811 0.772783C39.112 0.774563 39.1422 0.78252 39.17 0.796191C39.1978 0.809861 39.2227 0.828972 39.2431 0.85241C39.2635 0.875847 39.2791 0.903143 39.2889 0.932707C39.2992 0.962107 39.3036 0.993281 39.3019 1.02441C39.3001 1.05554 39.2922 1.08601 39.2786 1.11403C39.2651 1.14206 39.2461 1.16708 39.2228 1.18765C39.1996 1.20821 39.1725 1.22391 39.1431 1.23382L11.2106 11.1999L11.1304 11.2219Z" fill="white"/>
<path d="M11.2403 69.5863C11.1801 69.5865 11.122 69.564 11.0775 69.5232C11.033 69.4825 11.0052 69.4263 10.9998 69.3659L8.23712 33.4528C8.23423 33.4186 8.23931 33.3842 8.25197 33.3523C8.26462 33.3204 8.2845 33.292 8.31001 33.2692L35.5574 6.88883C35.6044 6.85672 35.6612 6.84242 35.7177 6.84846C35.7742 6.85451 35.8267 6.88051 35.866 6.92186C35.9053 6.96321 35.9288 7.01723 35.9324 7.07437C35.9359 7.1315 35.9193 7.18805 35.8854 7.23401L8.71821 33.5116L11.5027 69.3145C11.5068 69.3777 11.4862 69.4399 11.4453 69.4879C11.4044 69.5359 11.3466 69.566 11.284 69.5716L11.2403 69.5863Z" fill="white"/>
<path d="M1.2239 35.9572C1.16549 35.9617 1.10753 35.9439 1.06156 35.9073C1.01559 35.8707 0.984969 35.818 0.975785 35.7597C0.966601 35.7015 0.979526 35.6418 1.01199 35.5927C1.04446 35.5435 1.09408 35.5085 1.15101 35.4946L8.44029 33.0196C8.4993 33.0006 8.5633 33.0052 8.61897 33.0326C8.67464 33.06 8.71769 33.1079 8.73915 33.1664C8.74946 33.1958 8.75386 33.227 8.7521 33.2581C8.75033 33.2893 8.74243 33.3197 8.72886 33.3478C8.71529 33.3758 8.69633 33.4008 8.67306 33.4214C8.6498 33.4419 8.62271 33.4576 8.59337 33.4676L1.29679 35.9425L1.2239 35.9572Z" fill="white"/>
<path d="M68.1478 14.4606H68.0967L35.6959 7.29269C35.665 7.28134 35.6369 7.26376 35.613 7.24102C35.5892 7.21829 35.5703 7.19089 35.5574 7.1605C35.5418 7.12719 35.5337 7.09083 35.5337 7.05401C35.5337 7.01719 35.5418 6.98082 35.5574 6.94752L38.8886 0.895894C38.9192 0.84305 38.9685 0.803837 39.0267 0.786127C39.0848 0.768418 39.1474 0.773524 39.202 0.800419C39.2563 0.831379 39.2966 0.882391 39.3142 0.942685C39.3319 1.00298 39.3257 1.06784 39.2968 1.12356L36.1041 6.89611L68.1769 13.9906C68.2388 13.9974 68.2954 14.0287 68.3344 14.0776C68.3733 14.1265 68.3914 14.189 68.3847 14.2513C68.3779 14.3137 68.3468 14.3707 68.2983 14.41C68.2498 14.4492 68.1877 14.4675 68.1259 14.4606H68.1478Z" fill="white"/>
<path d="M67.8271 45.3505C67.791 45.3535 67.7546 45.3485 67.7206 45.3358C67.6866 45.3231 67.6558 45.3031 67.6303 45.2771L35.5575 7.21207C35.5169 7.16337 35.4971 7.10042 35.5026 7.03707C35.5081 6.97371 35.5383 6.91514 35.5866 6.87424C35.635 6.83333 35.6974 6.81345 35.7603 6.81896C35.8232 6.82447 35.8813 6.85492 35.9219 6.90361L67.9948 44.9686C68.038 45.0126 68.0622 45.072 68.0622 45.1339C68.0622 45.1957 68.038 45.2551 67.9948 45.2991C67.9721 45.3193 67.9454 45.3343 67.9165 45.3431C67.8876 45.352 67.8571 45.3545 67.8271 45.3505Z" fill="white"/>
<path d="M52.6582 68.9915C52.6166 68.9925 52.5754 68.9829 52.5385 68.9636C52.5015 68.9444 52.47 68.9161 52.4468 68.8813C52.2281 68.5582 40.7839 44.0285 39.4718 41.2304C39.4582 41.2025 39.4503 41.1721 39.4484 41.141C39.4466 41.11 39.4508 41.0788 39.461 41.0495C39.4712 41.0201 39.487 40.993 39.5077 40.9699C39.5283 40.9467 39.5533 40.9279 39.5812 40.9146C39.6375 40.8889 39.7014 40.886 39.7598 40.9065C39.8181 40.927 39.8664 40.9693 39.8946 41.0248C43.9985 49.757 51.5939 65.973 52.7092 68.3378C54.1087 66.4724 62.1853 53.6494 67.6231 44.998C67.661 44.9547 67.713 44.9265 67.7697 44.9184C67.8265 44.9103 67.8842 44.9229 67.9325 44.9539C67.9809 44.9849 68.0166 45.0323 68.0334 45.0875C68.0502 45.1427 68.0468 45.2021 68.024 45.255C53.1903 68.9841 52.8185 68.9915 52.6582 68.9915Z" fill="white"/>
<path d="M18.0625 65.4662C18.0039 65.4657 17.9473 65.445 17.9021 65.4074C17.8585 65.3622 17.8341 65.3016 17.8341 65.2385C17.8341 65.1754 17.8585 65.1148 17.9021 65.0696L39.2525 41.2671L8.44064 33.4749C8.3788 33.4592 8.32563 33.4195 8.29282 33.3645C8.26002 33.3094 8.25027 33.2434 8.2657 33.1811C8.27263 33.1469 8.28704 33.1146 8.30788 33.0867C8.32872 33.0588 8.35548 33.036 8.38619 33.0198C8.41691 33.0036 8.45082 32.9945 8.48546 32.9932C8.5201 32.9919 8.55459 32.9984 8.58643 33.0122L39.7846 40.8998C39.8238 40.9103 39.8597 40.9307 39.889 40.9589C39.9183 40.9872 39.9401 41.0224 39.9522 41.0614C39.9641 41.1006 39.9657 41.1421 39.9567 41.1821C39.9478 41.222 39.9286 41.2589 39.9012 41.2891L18.252 65.3928C18.228 65.4186 18.1984 65.4386 18.1656 65.4513C18.1328 65.4641 18.0975 65.4691 18.0625 65.4662Z" fill="white"/>
<path d="M44.3045 81.0505C44.2664 81.0616 44.226 81.0616 44.1879 81.0505L17.9465 65.4661C17.9201 65.4503 17.8971 65.4293 17.8788 65.4045C17.8604 65.3796 17.8472 65.3514 17.8397 65.3213C17.8323 65.2913 17.8308 65.2601 17.8353 65.2295C17.8399 65.1989 17.8504 65.1695 17.8663 65.143C17.882 65.1164 17.9028 65.0932 17.9275 65.0748C17.9521 65.0563 17.9802 65.043 18.01 65.0355C18.0398 65.028 18.0708 65.0265 18.1011 65.031C18.1315 65.0356 18.1607 65.0462 18.187 65.0622L44.4284 80.6393C44.4558 80.6551 44.4797 80.6764 44.4987 80.7018C44.5176 80.7273 44.5313 80.7563 44.5388 80.7872C44.5463 80.8181 44.5475 80.8502 44.5423 80.8816C44.5371 80.913 44.5256 80.943 44.5086 80.9697C44.4838 80.999 44.4522 81.0217 44.4166 81.0358C44.381 81.0499 44.3425 81.055 44.3045 81.0505Z" fill="white"/>
<path d="M52.6502 68.9841L18.0625 65.4663C18.0283 65.465 17.9948 65.4561 17.9644 65.4402C17.934 65.4244 17.9074 65.4021 17.8865 65.3747C17.8656 65.3474 17.851 65.3158 17.8436 65.2821C17.8362 65.2484 17.8363 65.2135 17.8438 65.1798C17.8512 65.1182 17.8817 65.0617 17.9292 65.022C17.9767 64.9824 18.0374 64.9627 18.0989 64.9669L52.672 68.4847C52.7034 68.4874 52.7339 68.4965 52.7617 68.5114C52.7895 68.5263 52.814 68.5468 52.8337 68.5715C52.8535 68.5962 52.8681 68.6246 52.8766 68.6552C52.8852 68.6857 52.8875 68.7177 52.8834 68.7491C52.8816 68.8109 52.8564 68.8696 52.8131 68.9133C52.7697 68.957 52.7114 68.9823 52.6502 68.9841Z" fill="white"/>
<path d="M68.1475 14.4607C68.1138 14.4678 68.0791 14.4678 68.0454 14.4607L38.9758 1.24113C38.9168 1.21094 38.8721 1.15839 38.8516 1.09503C38.8311 1.03167 38.8365 0.962706 38.8664 0.903298C38.8964 0.84389 38.9485 0.798909 39.0114 0.778249C39.0743 0.75759 39.1428 0.762944 39.2017 0.793135L68.2787 14.0127C68.3314 14.0321 68.3754 14.0699 68.4027 14.1193C68.4299 14.1687 68.4386 14.2264 68.4271 14.2817C68.4156 14.3371 68.3847 14.3864 68.34 14.4206C68.2953 14.4548 68.2399 14.4716 68.1839 14.468L68.1475 14.4607Z" fill="white"/>
<path d="M11.1312 11.222C11.0755 11.2121 11.025 11.1828 10.9887 11.1391C10.9523 11.0955 10.9324 11.0403 10.9324 10.9833C10.9324 10.9263 10.9523 10.8712 10.9887 10.8275C11.025 10.7839 11.0755 10.7545 11.1312 10.7446L35.7034 6.82284C35.7647 6.8154 35.8266 6.83205 35.8761 6.86932C35.9256 6.90659 35.959 6.96163 35.9693 7.02303C35.9796 7.08442 35.9661 7.14746 35.9315 7.19907C35.8969 7.25068 35.8439 7.28689 35.7836 7.30021L11.1677 11.2147L11.1312 11.222Z" fill="white"/>
<path d="M11.24 69.5864C11.1895 69.5857 11.1405 69.569 11.0999 69.5387C11.0594 69.5084 11.0293 69.4659 11.014 69.4175L0.998527 35.803C0.992372 35.7469 1.00585 35.6904 1.03663 35.6433C1.06741 35.5961 1.11357 35.5612 1.16714 35.5447C1.2207 35.5282 1.27832 35.531 1.33005 35.5527C1.38177 35.5744 1.42436 35.6136 1.45046 35.6635L11.5024 69.2632C11.5113 69.2931 11.5142 69.3245 11.5109 69.3555C11.5076 69.3866 11.4983 69.4166 11.4833 69.444C11.4684 69.4713 11.4482 69.4954 11.424 69.5148C11.3997 69.5342 11.3718 69.5486 11.342 69.557L11.24 69.5864Z" fill="white"/>
<path d="M67.8265 45.3505C67.7916 45.3496 67.7574 45.3412 67.726 45.326C67.6946 45.3108 67.6667 45.2892 67.6442 45.2624C67.6006 45.2172 67.5762 45.1566 67.5762 45.0935C67.5762 45.0304 67.6006 44.9698 67.6442 44.9246L76.3768 37.9329C76.4217 37.8889 76.4818 37.8643 76.5444 37.8643C76.6071 37.8643 76.6672 37.8889 76.7121 37.9329C76.7557 37.9781 76.7801 38.0387 76.7801 38.1018C76.7801 38.1649 76.7557 38.2255 76.7121 38.2707L67.9722 45.3138C67.9295 45.343 67.8778 45.356 67.8265 45.3505Z" fill="white"/>
<path d="M39.7553 42.5964C40.5202 42.5964 41.1403 41.9717 41.1403 41.201C41.1403 40.4303 40.5202 39.8056 39.7553 39.8056C38.9904 39.8056 38.3704 40.4303 38.3704 41.201C38.3704 41.9717 38.9904 42.5964 39.7553 42.5964Z" fill="white"/>
<path d="M35.8046 8.67355C36.5695 8.67355 37.1896 8.04881 37.1896 7.27815C37.1896 6.50749 36.5695 5.88275 35.8046 5.88275C35.0397 5.88275 34.4197 6.50749 34.4197 7.27815C34.4197 8.04881 35.0397 8.67355 35.8046 8.67355Z" fill="white"/>
<path d="M40.2294 1.3954C40.2294 1.67138 40.1482 1.94117 39.996 2.17064C39.8438 2.40011 39.6275 2.57896 39.3744 2.68458C39.1214 2.79019 38.8429 2.81783 38.5742 2.76398C38.3056 2.71014 38.0588 2.57724 37.8651 2.38209C37.6714 2.18694 37.5395 1.93831 37.4861 1.66763C37.4326 1.39695 37.4601 1.11638 37.5649 0.861402C37.6697 0.606427 37.8472 0.388495 38.075 0.235167C38.3028 0.0818387 38.5705 0 38.8444 0C39.2118 0 39.564 0.147015 39.8238 0.408703C40.0835 0.670391 40.2294 1.02532 40.2294 1.3954Z" fill="white"/>
<path d="M11.4365 12.397C12.2014 12.397 12.8214 11.7755 12.8214 11.0089C12.8214 10.2423 12.2014 9.62085 11.4365 9.62085C10.6716 9.62085 10.0515 10.2423 10.0515 11.0089C10.0515 11.7755 10.6716 12.397 11.4365 12.397Z" fill="white"/>
<path d="M1.38496 37.1396C2.14986 37.1396 2.76993 36.5148 2.76993 35.7442C2.76993 34.9735 2.14986 34.3488 1.38496 34.3488C0.62007 34.3488 0 34.9735 0 35.7442C0 36.5148 0.62007 37.1396 1.38496 37.1396Z" fill="white"/>
<path d="M9.85518 33.4235C9.85374 33.6977 9.77172 33.9653 9.61947 34.1926C9.46722 34.4199 9.25155 34.5967 8.99969 34.7006C8.74783 34.8046 8.47106 34.831 8.2043 34.7766C7.93754 34.7222 7.69274 34.5895 7.5008 34.395C7.30886 34.2006 7.17837 33.9533 7.1258 33.6842C7.07323 33.4152 7.10093 33.1365 7.20542 32.8833C7.3099 32.6301 7.48648 32.4137 7.71288 32.2615C7.93927 32.1093 8.20534 32.0281 8.47751 32.0281C8.84356 32.03 9.19396 32.1779 9.45212 32.4394C9.71028 32.7008 9.85519 33.0547 9.85518 33.4235Z" fill="white"/>
<path d="M18.4567 66.4871C19.2216 66.4871 19.8417 65.8623 19.8417 65.0917C19.8417 64.321 19.2216 63.6963 18.4567 63.6963C17.6918 63.6963 17.0718 64.321 17.0718 65.0917C17.0718 65.8623 17.6918 66.4871 18.4567 66.4871Z" fill="white"/>
<path d="M11.2404 70.7173C12.0053 70.7173 12.6254 70.0958 12.6254 69.3292C12.6254 68.5626 12.0053 67.9412 11.2404 67.9412C10.4755 67.9412 9.85547 68.5626 9.85547 69.3292C9.85547 70.0958 10.4755 70.7173 11.2404 70.7173Z" fill="white"/>
<path d="M52.6574 70.049C53.4223 70.049 54.0424 69.4243 54.0424 68.6536C54.0424 67.883 53.4223 67.2582 52.6574 67.2582C51.8925 67.2582 51.2725 67.883 51.2725 68.6536C51.2725 69.4243 51.8925 70.049 52.6574 70.049Z" fill="white"/>
<path d="M67.885 68.771C68.6459 68.771 69.2627 68.1496 69.2627 67.383C69.2627 66.6164 68.6459 65.9949 67.885 65.9949C67.1241 65.9949 66.5073 66.6164 66.5073 67.383C66.5073 68.1496 67.1241 68.771 67.885 68.771Z" fill="white"/>
<path d="M69.161 45.0861C69.1625 45.3627 69.0823 45.6335 68.9306 45.8641C68.779 46.0947 68.5628 46.2746 68.3094 46.3812C68.0561 46.4877 67.777 46.5159 67.5077 46.4623C67.2383 46.4087 66.9909 46.2757 66.7968 46.0801C66.6026 45.8845 66.4706 45.6352 66.4174 45.3638C66.3642 45.0925 66.3922 44.8113 66.4979 44.556C66.6037 44.3007 66.7823 44.0829 67.0112 43.9301C67.24 43.7774 67.5088 43.6966 67.7833 43.698C68.1481 43.6999 68.4974 43.8468 68.7554 44.1067C69.0133 44.3666 69.1591 44.7185 69.161 45.0861Z" fill="white"/>
<path d="M77.6383 38.2928C77.6383 38.5691 77.5569 38.8392 77.4044 39.0688C77.2519 39.2984 77.0352 39.4773 76.7817 39.5827C76.5282 39.6881 76.2493 39.7153 75.9805 39.6608C75.7116 39.6064 75.4649 39.4728 75.2715 39.2769C75.0781 39.081 74.9468 38.8317 74.8941 38.5605C74.8415 38.2894 74.87 38.0086 74.9759 37.7537C75.0819 37.4989 75.2605 37.2814 75.4892 37.129C75.718 36.9766 75.9864 36.896 76.2607 36.8974C76.6267 36.8994 76.9771 37.0472 77.2353 37.3087C77.4934 37.5702 77.6383 37.924 77.6383 38.2928Z" fill="white"/>
<path d="M67.8847 15.7975C68.6496 15.7975 69.2697 15.1727 69.2697 14.4021C69.2697 13.6314 68.6496 13.0067 67.8847 13.0067C67.1198 13.0067 66.4998 13.6314 66.4998 14.4021C66.4998 15.1727 67.1198 15.7975 67.8847 15.7975Z" fill="white"/>
<path d="M44.3046 82.211C45.0695 82.211 45.6896 81.5862 45.6896 80.8156C45.6896 80.0449 45.0695 79.4202 44.3046 79.4202C43.5397 79.4202 42.9197 80.0449 42.9197 80.8156C42.9197 81.5862 43.5397 82.211 44.3046 82.211Z" fill="white"/>
</svg>
