<svg width="104" height="104" viewBox="0 0 104 104" fill="none" xmlns="http://www.w3.org/2000/svg">
<path d="M104 0H0V104H104V0Z" fill="white"/>
<path d="M52.0002 46.5C69.2867 46.5 83.3002 38.665 83.3002 29C83.3002 19.335 69.2867 11.5 52.0002 11.5C34.7137 11.5 20.7002 19.335 20.7002 29C20.7002 38.665 34.7137 46.5 52.0002 46.5Z" fill="#0061E5"/>
<path d="M29.2002 50.5V93.3H29.4002C31.0002 99.3 40.5002 104 52.0002 104C63.5002 104 73.0002 99.3 74.5002 93.3H74.7002V50.5H29.2002Z" fill="#0061E5"/>
<path d="M42.9002 102.9V50.7H29.2002V93.3H29.4002C30.6002 97.6 35.8002 101.2 42.9002 102.9Z" fill="#004BB7"/>
<path d="M61.1001 102.9C68.2001 101.2 73.4001 97.5999 74.5001 93.1999H74.7001V50.7H61.1001V102.9Z" fill="#007EE5"/>
<path d="M52 13.7C59.6 13.7 66.9 15.3 72.1 18.2C75.9 20.3 78.2 22.9 78.2 25C78.2 29.6 68 36.2001 52 36.2001C36 36.2001 25.8 29.5 25.8 25C25.8 22.9 28.1 20.3 31.9 18.2C37.1 15.3 44.4 13.7 52 13.7ZM52 6.80005C33.8 6.80005 19 14.9 19 24.9C19 34.9 33.8 43 52 43C70.2 43 85 34.9 85 24.9C85 14.9 70.2 6.80005 52 6.80005Z" fill="#00F025"/>
<path d="M25.8 29.1001C21.5 26.1001 19 22.2001 19 18.1001V41.7001C19 45.8001 21.5 49.7001 25.8 52.7001V29.1001Z" fill="#004BB7"/>
<path d="M25.7999 52.6999C27.9999 54.2999 30.6999 55.6999 33.7999 56.7999V39.9999C30.6999 38.8999 28.0999 37.4999 25.7999 35.8999L22.3999 42.2999L25.7999 52.6999Z" fill="#004BB7"/>
<path d="M85.0002 18.1001H78.2002V24.9001H85.0002V18.1001Z" fill="#004BB7"/>
<path d="M33.7998 56.8001C36.5998 57.8001 39.5998 58.6001 42.8998 59.1001V35.4001C39.5998 34.9001 36.5998 34.1001 33.7998 33.1001V56.8001Z" fill="#0061E5"/>
<path d="M42.8998 59.1C45.7998 59.6 48.7998 59.8 51.9998 59.8V43C48.7998 43 45.7998 42.8 42.8998 42.3L38.2998 49.6L42.8998 59.1Z" fill="#0061E5"/>
<path d="M78.2002 35.8999V52.6999C82.5002 49.6999 85.0002 45.7999 85.0002 41.6999V24.8999C85.0002 28.9999 82.5002 32.8999 78.2002 35.8999Z" fill="#007EE5"/>
<path d="M70.2002 56.8001C73.3002 55.7001 75.9002 54.3001 78.2002 52.7001V29.1001C76.0002 30.7001 73.3002 32.1001 70.2002 33.2001V56.8001Z" fill="#409BFF"/>
<path d="M61.1001 59.1C64.4001 58.6 67.4001 57.8 70.2001 56.8V40C67.4001 41 64.4001 41.8 61.1001 42.3V59.1Z" fill="#409BFF"/>
<path d="M52 59.7999C55.2 59.7999 58.2 59.5999 61.1 59.0999V35.3999C58.2 35.8999 55.2 36.0999 52 36.0999V59.7999Z" fill="#409BFF"/>
<path d="M25.8 29.1001L33.7 25.8001C28.7 23.5001 25.8 20.5001 25.8 18.1001H19C19 22.2001 21.5 26.0001 25.8 29.1001Z" fill="#55AEFF"/>
<path d="M40.0998 27.8999L33.7998 33.0999C36.5998 34.0999 39.5998 34.8999 42.8998 35.3999L46.2998 28.9999C43.9998 28.7999 41.9998 28.3999 40.0998 27.8999Z" fill="#55AEFF"/>
<path d="M57.7 29C55.9 29.2 54 29.3 52 29.3V36.1C55.2 36.1 58.2 35.9 61.1 35.4L57.7 29Z" fill="#55AEFF"/>
<path d="M63.8999 27.9L70.1999 33.0999C73.2999 31.9999 75.8999 30.6 78.1999 29L70.2999 25.7C68.4999 26.6 66.2999 27.4 63.8999 27.9Z" fill="#55AEFF"/>
<path d="M70.1999 39.9999L63.8999 34.7999V27.8999L70.1999 33.0999V39.9999Z" fill="#004BB7"/>
<path d="M42.8999 42.3L46.2999 36.1V29L42.8999 35.4V42.3Z" fill="#007EE5"/>
<path d="M33.6998 25.8V32.6L25.7998 35.9001V29.1L33.6998 25.8Z" fill="#007EE5"/>
<path d="M40.1002 8.19995H33.7002V20.7H40.1002V8.19995Z" fill="#0061E5"/>
<path d="M51.9998 6.30005H46.2998V18.8H51.9998V6.30005Z" fill="#0061E5"/>
<path d="M63.9002 7.1001H57.7002V19.6001H63.9002V7.1001Z" fill="#0061E5"/>
<path d="M78.1998 10.3999H70.2998V24.8999H78.1998V10.3999Z" fill="#0061E5"/>
<path d="M33.6998 10.4001V17.2001L25.7998 13.9001V7.1001L33.6998 10.4001Z" fill="#004BB7"/>
<path d="M46.2999 7.09995V14L42.8999 7.49995V0.699951L46.2999 7.09995Z" fill="#004BB7"/>
<path d="M64 8.2V15.2L70.3 9.9V3L64 8.2Z" fill="#007EE5"/>
<path d="M78.1998 7.1001L70.2998 10.4001C75.2998 12.7001 78.1998 15.7001 78.1998 18.1001H84.9998C84.9998 13.9001 82.3998 10.1001 78.1998 7.1001Z" fill="#409BFF"/>
<path d="M51.9999 0C48.7999 0 45.7999 0.2 42.8999 0.7L46.2999 7.1C48.0999 6.9 49.9999 6.8 51.9999 6.8V0Z" fill="#409BFF"/>
<path d="M57.7002 7.09995C60.0002 7.39995 62.1002 7.69995 64.0002 8.19995L70.3002 2.99995C67.5002 1.99995 64.4002 1.19995 61.1002 0.699951L57.7002 7.09995Z" fill="#409BFF"/>
<path d="M33.6998 10.4C35.4998 9.6 37.6998 8.8 40.0998 8.2L33.7998 3C30.6998 4.1 28.0998 5.5 25.7998 7.1L33.6998 10.4Z" fill="#409BFF"/>
</svg>
