<svg width="104" height="104" viewBox="0 0 104 104" fill="none" xmlns="http://www.w3.org/2000/svg">
<path d="M104 0H0V104H104V0Z" fill="white"/>
<path d="M79.0998 64.9001L71.7998 67L91.9998 40.9001L99.2998 38.8L79.0998 64.9001Z" fill="#0061E5"/>
<path d="M91.9999 40.9L88.2999 36.2L67.8999 61.5L71.7999 67L91.9999 40.9Z" fill="#004BB7"/>
<path d="M99.2998 38.8L95.8998 34.3L88.2998 36.2001L91.9998 40.9001L99.2998 38.8Z" fill="#409BFF"/>
<path d="M28 91.8V84L53.6 96.3L53.5 104L28 91.8Z" fill="#004BB7"/>
<path d="M28 84L34.4 80.8L59.9 92.6L53.6 96.3L28 84Z" fill="#409BFF"/>
<path d="M53.5 104L53.6 96.3001L59.9 92.6001V100.1L53.5 104Z" fill="#007EE5"/>
<path d="M28.5001 69.0999L25.7001 66.5999L25.6001 53.8999L28.4001 54.8999L28.5001 69.0999Z" fill="#004BB7"/>
<path d="M57.4999 13.2L39.8999 23.4C39.8999 23.4 39.8999 24.8 39.8999 29.7L57.4999 19.3V13.2Z" fill="#0061E5"/>
<path d="M17.6 36.5L0 46.7C0 46.7 0 48.1 0 53L17.6 42.6V36.5Z" fill="#0061E5"/>
<path d="M60.8002 15.8L43.2002 26C43.2002 26 43.2002 27.4 43.2002 32.3L60.8002 21.9V15.8Z" fill="#00F025"/>
<path d="M20.8998 39.1001L3.2998 49.3001C3.2998 49.3001 3.2998 50.7001 3.2998 55.6001L20.8998 45.2001V39.1001Z" fill="#00F025"/>
<path d="M44.6835 40.7046L42.1836 45.0347L54.1343 51.9348L56.6342 47.6048L44.6835 40.7046Z" fill="#00F025"/>
<path d="M50.8178 6.38429L46.4878 3.88428L37.1879 19.9919L41.5178 22.4919L50.8178 6.38429Z" fill="#00F025"/>
<path d="M33.9 48.3999L28.5 51.4999C28.5 51.4999 28.5 63.7999 28.5 69.0999L33.9 65.9999V48.3999Z" fill="#00F025"/>
<path d="M14.7 42.5L11.6 40L0 46.7L3.3 49.3L14.7 42.5Z" fill="#409BFF"/>
<path d="M56.6 47.6L53.3 45L43.7 39.5L43.5 40.3L56.6 47.6Z" fill="#409BFF"/>
<path d="M44.3999 2.19995L46.4999 3.89995L50.7999 6.39995L48.6999 4.69995L44.3999 2.19995Z" fill="#409BFF"/>
<path d="M60.8002 15.8L57.5002 13.2L45.7002 20L47.6002 23.6L60.8002 15.8Z" fill="#004BB7"/>
<path d="M3.3 55.5999L0 53V46.7L3.3 49.2999V55.5999Z" fill="#004BB7"/>
<path d="M38.8 17.2L36.5 15.3L44.4 2.19995L46.5 3.89995L38.8 17.2Z" fill="#004BB7"/>
<path d="M30.4998 55.7999C42.2082 55.7999 51.6998 46.3083 51.6998 34.5999C51.6998 22.8915 42.2082 13.3999 30.4998 13.3999C18.7914 13.3999 9.2998 22.8915 9.2998 34.5999C9.2998 46.3083 18.7914 55.7999 30.4998 55.7999Z" fill="#00F025"/>
<path d="M32.3999 45.5999L43.4999 59.2999L47.3999 55.9999L36.4999 42.3999L32.3999 45.5999Z" fill="#5AFF6A"/>
<path d="M39.2002 30.6L57.7002 28.8L58.2002 33.9001L39.8002 35.8L39.2002 30.6Z" fill="#004BB7"/>
<path d="M19.4999 33.7999L5.2999 31.3999L4.3999 35.6999L18.5999 38.0999L19.4999 33.7999Z" fill="#5AFF6A"/>
<path d="M18.5999 38.0999L4.3999 35.7L1.3999 36.2999L15.2999 38.5999L18.5999 38.0999Z" fill="#004BB7"/>
<path d="M1.3999 36.2999L4.3999 35.6999L5.2999 31.3999L2.2999 31.9999L1.3999 36.2999Z" fill="#0061E5"/>
<path d="M22.5 23.3001L24.7 25.2001L3.5 17.9001L6 13.6001L22.5 23.3001Z" fill="#0061E5"/>
<path d="M24.6998 25.2L22.2998 29.5L6.7998 20.5L9.2998 16.2L24.6998 25.2Z" fill="#5AFF6A"/>
<path d="M6.8 20.5001L3.5 17.9001C3.5 17.9001 5.8 13.6001 6 13.6001C6.2 13.6001 9.3 16.2001 9.3 16.2001L6.8 20.5001Z" fill="#409BFF"/>
<path d="M32.3999 45.6001L33.3999 48.4001L44.3999 62.1001L43.4999 59.3001L32.3999 45.6001Z" fill="#004BB7"/>
<path d="M44.4 62.1L48.4 58.7L47.4 56L43.5 59.3L44.4 62.1Z" fill="#007EE5"/>
<path d="M32.4 2.6001L27 5.7001C27 5.7001 27 18.0001 27 23.3001L32.4 20.2001V2.6001Z" fill="#00F025"/>
<path d="M32.4002 2.6L29.1002 0L23.7002 3.1L27.0002 5.7L32.4002 2.6Z" fill="#409BFF"/>
<path d="M27 20.7001L23.5 18.1001L23.7 3.1001L27 5.7001V20.7001Z" fill="#004BB7"/>
<path d="M58.2002 33.9001L60.7002 34.7001L60.2002 29.7001L57.7002 28.8L58.2002 33.9001Z" fill="#5AFF6A"/>
<path d="M60.6998 34.6999L58.1998 33.8999L39.7998 35.7999L42.2998 36.6999L60.6998 34.6999Z" fill="#0BD007"/>
<path d="M26.2999 47.2999L20.8999 45.6999L23.2999 41.3999L28.6999 42.9999L26.2999 47.2999Z" fill="#004BB7"/>
<path d="M18.6998 60.0999L13.2998 58.5L15.6998 54.2L21.0998 55.9L18.6998 60.0999Z" fill="#0BD007"/>
<path d="M21.1002 55.8999L28.7002 42.9999L23.3002 41.3999L15.7002 54.1999L21.1002 55.8999Z" fill="#0061E5"/>
<path d="M18.7002 60.1L21.1002 55.9L28.7002 43L26.5002 47.3L21.1002 56.5L18.7002 60.1Z" fill="#5AFF6A"/>
</svg>
