<svg width="104" height="104" viewBox="0 0 104 104" fill="none" xmlns="http://www.w3.org/2000/svg">
<path d="M104 0H0V104H104V0Z" fill="white"/>
<path d="M62.8002 35.3C62.5002 28 59.6002 21.1 56.2002 15.4L57.4002 8.1L43.4002 0C43.4002 0 24.8002 36.9 24.0002 57.2C23.5002 69 26.4002 75.1 31.0002 77.1L44.5002 85L46.5002 73.1C55.9002 66.3 63.6002 53 62.8002 35.3Z" fill="#0BD007"/>
<path d="M56.7 104L49 99.4999V78.8999L56.7 83.6999V104Z" fill="#004BB7"/>
<path d="M76.7999 43.4C75.9999 24.1 57.3999 8.19995 57.3999 8.19995C57.3999 8.19995 38.7999 45.1 37.8999 65.4C36.9999 85.8999 46.5999 89.4 57.2999 83.4C68.0999 77.3 77.6999 63 76.7999 43.4Z" fill="#00F025"/>
<path d="M58.1002 8.19995H56.7002V104H58.1002V8.19995Z" fill="#0061E5"/>
<path d="M57.3998 73.3001L40.2998 51.6001" stroke="#0061E5" stroke-miterlimit="10"/>
<path d="M57.3999 51.5999L70.5999 24.3999" stroke="#0061E5" stroke-miterlimit="10"/>
</svg>
