<svg width="120" height="80" viewBox="0 0 120 80" fill="none" xmlns="http://www.w3.org/2000/svg">
<path fill-rule="evenodd" clip-rule="evenodd" d="M26.7422 13.375H25.2344V8.11719H19.5V13.375H18V2H19.5V6.89062H25.2344V2H26.7422V13.375ZM102.742 77.375H101.234V72.1172H95.5V77.375H94V66H95.5V70.8906H101.234V66H102.742V77.375ZM45.1875 42.9766C45.5625 42.1432 45.75 41.1693 45.75 40.0547V39.3359C45.75 38.2266 45.5625 37.2552 45.1875 36.4219C44.8125 35.5833 44.276 34.9453 43.5781 34.5078C42.8854 34.0651 42.0833 33.8438 41.1719 33.8438C40.276 33.8438 39.4792 34.0677 38.7812 34.5156C38.0885 34.9583 37.5521 35.599 37.1719 36.4375C36.7917 37.276 36.6016 38.2422 36.6016 39.3359V40.1562C36.612 41.2292 36.8073 42.1745 37.1875 42.9922C37.5729 43.8047 38.112 44.4323 38.8047 44.875C39.4974 45.3125 40.2917 45.5312 41.1875 45.5312C42.1042 45.5312 42.9062 45.3125 43.5938 44.875C44.2812 44.4375 44.8125 43.8047 45.1875 42.9766ZM43.4453 36.2188C43.987 36.9375 44.2578 37.9714 44.2578 39.3203V40.1641C44.2422 41.4818 43.9688 42.4948 43.4375 43.2031C42.9062 43.9062 42.1562 44.2578 41.1875 44.2578C40.224 44.2578 39.4661 43.8854 38.9141 43.1406C38.3672 42.3906 38.0938 41.362 38.0938 40.0547V39.2188C38.1094 37.9375 38.388 36.9375 38.9297 36.2188C39.4766 35.4948 40.224 35.1328 41.1719 35.1328C42.1458 35.1328 42.9036 35.4948 43.4453 36.2188ZM81.75 40.0547C81.75 41.1693 81.5625 42.1432 81.1875 42.9766C80.8125 43.8047 80.2812 44.4375 79.5938 44.875C78.9062 45.3125 78.1042 45.5312 77.1875 45.5312C76.2917 45.5312 75.4974 45.3125 74.8047 44.875C74.112 44.4323 73.5729 43.8047 73.1875 42.9922C72.8073 42.1745 72.612 41.2292 72.6016 40.1562V39.3359C72.6016 38.2422 72.7917 37.276 73.1719 36.4375C73.5521 35.599 74.0885 34.9583 74.7812 34.5156C75.4792 34.0677 76.276 33.8438 77.1719 33.8438C78.0833 33.8438 78.8854 34.0651 79.5781 34.5078C80.276 34.9453 80.8125 35.5833 81.1875 36.4219C81.5625 37.2552 81.75 38.2266 81.75 39.3359V40.0547ZM80.2578 39.3203C80.2578 37.9714 79.987 36.9375 79.4453 36.2188C78.9036 35.4948 78.1458 35.1328 77.1719 35.1328C76.224 35.1328 75.4766 35.4948 74.9297 36.2188C74.388 36.9375 74.1094 37.9375 74.0938 39.2188V40.0547C74.0938 41.362 74.3672 42.3906 74.9141 43.1406C75.4661 43.8854 76.224 44.2578 77.1875 44.2578C78.1562 44.2578 78.9062 43.9062 79.4375 43.2031C79.9688 42.4948 80.2422 41.4818 80.2578 40.1641V39.3203ZM27.6797 16.375L36.6797 31.375L37.5372 30.8605L28.5372 15.8605L27.6797 16.375ZM69.6797 39.375H48.6797V38.375H69.6797V39.375ZM81.6797 46.375L92.6797 63.375L93.5193 62.8317L82.5193 45.8317L81.6797 46.375Z" fill="#0061E0"/>
</svg>
