<svg width="120" height="80" viewBox="0 0 120 80" fill="none" xmlns="http://www.w3.org/2000/svg">
<path fill-rule="evenodd" clip-rule="evenodd" d="M6.76317 11.7016H9.34399V12.814H6.76317V15.7381H5.58082V12.814H3V11.7016H5.58082V9H6.76317V11.7016ZM103.949 21.6581C104.356 20.754 104.559 19.6974 104.559 18.4882V17.7084C104.559 16.5049 104.356 15.4511 103.949 14.547C103.542 13.6373 102.96 12.9451 102.203 12.4705C101.451 11.9902 100.581 11.7501 99.5923 11.7501C98.6204 11.7501 97.7559 11.9931 96.9987 12.479C96.2472 12.9593 95.6652 13.6543 95.2528 14.564C94.8403 15.4737 94.634 16.5219 94.634 17.7084V18.5984C94.6453 19.7624 94.8572 20.7879 95.2697 21.675C95.6878 22.5565 96.2727 23.2374 97.0242 23.7176C97.7757 24.1923 98.6373 24.4296 99.6092 24.4296C100.604 24.4296 101.474 24.1923 102.22 23.7176C102.966 23.243 103.542 22.5565 103.949 21.6581ZM102.059 14.3267C102.646 15.1064 102.94 16.228 102.94 17.6915V18.6069C102.923 20.0364 102.627 21.1354 102.05 21.9039C101.474 22.6667 100.66 23.0481 99.6092 23.0481C98.5639 23.0481 97.7418 22.6441 97.1428 21.8361C96.5495 21.0224 96.2529 19.9064 96.2529 18.4882V17.5813C96.2698 16.1913 96.5721 15.1064 97.1598 14.3267C97.7531 13.5413 98.5639 13.1486 99.5923 13.1486C100.649 13.1486 101.471 13.5413 102.059 14.3267ZM114.848 24.2601H116.484V11.9196H114.848V17.2253H108.627V11.9196H107V24.2601H108.627V18.556H114.848V24.2601ZM21.5489 24.2604H23.1847V11.9199H21.5658V21.4719L15.3362 11.9199H13.7005V24.2604H15.3362V14.7508L21.5489 24.2604ZM31.2704 23.2942C31.3269 23.7575 31.4003 24.0796 31.4907 24.2604H33.135V24.1248C32.9203 23.6276 32.8129 22.958 32.8129 22.1161V17.8952C32.7903 16.9685 32.4796 16.2425 31.8806 15.717C31.2817 15.1858 30.4539 14.9203 29.3973 14.9203C28.7305 14.9203 28.1175 15.0446 27.5581 15.2932C27.0043 15.5418 26.5636 15.8808 26.2359 16.3103C25.9138 16.7341 25.7528 17.1748 25.7528 17.6325H27.3292C27.3292 17.2313 27.5185 16.8894 27.8971 16.6069C28.2757 16.3244 28.7447 16.1831 29.304 16.1831C29.9425 16.1831 30.4256 16.347 30.7534 16.6747C31.0811 16.9968 31.245 17.4319 31.245 17.98V18.7004H29.7193C28.4028 18.7004 27.3801 18.966 26.6512 19.4971C25.9279 20.0226 25.5663 20.7628 25.5663 21.7177C25.5663 22.5031 25.8545 23.1529 26.4308 23.6671C27.0128 24.1756 27.7558 24.4299 28.6599 24.4299C29.6713 24.4299 30.5415 24.0513 31.2704 23.2942ZM30.2872 22.6839C29.8465 22.9382 29.3803 23.0653 28.8887 23.0653C28.3746 23.0653 27.9536 22.9269 27.6259 22.65C27.2981 22.3732 27.1343 21.9889 27.1343 21.4973C27.1343 20.3729 28.0949 19.8107 30.016 19.8107H31.245V21.6923C31.0472 22.0991 30.7279 22.4297 30.2872 22.6839ZM79.6068 65.1381C79.6068 66.3472 79.4033 67.4039 78.9965 68.3079C78.5897 69.2063 78.0133 69.8929 77.2675 70.3675C76.5216 70.8421 75.6515 71.0795 74.657 71.0795C73.6851 71.0795 72.8234 70.8421 72.0719 70.3675C71.3204 69.8872 70.7356 69.2063 70.3175 68.3249C69.905 67.4378 69.6931 66.4122 69.6818 65.2482V64.3583C69.6818 63.1717 69.8881 62.1236 70.3005 61.2139C70.713 60.3041 71.295 59.6091 72.0465 59.1289C72.8037 58.6429 73.6682 58.4 74.64 58.4C75.6289 58.4 76.499 58.6401 77.2505 59.1204C78.0077 59.595 78.5897 60.2872 78.9965 61.1969C79.4033 62.101 79.6068 63.1548 79.6068 64.3583V65.1381ZM77.9879 64.3414C77.9879 62.8779 77.6941 61.7563 77.1064 60.9765C76.5188 60.1911 75.6967 59.7984 74.64 59.7984C73.6117 59.7984 72.8008 60.1911 72.2076 60.9765C71.6199 61.7563 71.3176 62.8412 71.3007 64.2312V65.1381C71.3007 66.5563 71.5973 67.6723 72.1906 68.4859C72.7895 69.2939 73.6117 69.6979 74.657 69.6979C75.708 69.6979 76.5216 69.3165 77.098 68.5537C77.6743 67.7853 77.971 66.6863 77.9879 65.2567V64.3414ZM52.9595 21.6581C53.3663 20.754 53.5697 19.6974 53.5697 18.4882V17.7084C53.5697 16.5049 53.3663 15.4511 52.9595 14.547C52.5526 13.6373 51.9706 12.9451 51.2135 12.4705C50.462 11.9902 49.5918 11.7501 48.603 11.7501C47.6311 11.7501 46.7666 11.9931 46.0095 12.479C45.258 12.9593 44.676 13.6543 44.2635 14.564C43.851 15.4737 43.6448 16.5219 43.6448 17.7084V18.5984C43.6561 19.7624 43.868 20.7879 44.2804 21.675C44.6986 22.5565 45.2834 23.2374 46.0349 23.7176C46.7864 24.1923 47.6481 24.4296 48.6199 24.4296C49.6144 24.4296 50.4846 24.1923 51.2304 23.7176C51.9763 23.243 52.5526 22.5565 52.9595 21.6581ZM51.0694 14.3267C51.657 15.1064 51.9509 16.228 51.9509 17.6915V18.6069C51.9339 20.0364 51.6373 21.1354 51.0609 21.9039C50.4846 22.6667 49.6709 23.0481 48.6199 23.0481C47.5746 23.0481 46.7525 22.6441 46.1535 21.8361C45.5603 21.0224 45.2636 19.9064 45.2636 18.4882V17.5813C45.2806 16.1913 45.5829 15.1064 46.1705 14.3267C46.7638 13.5413 47.5746 13.1486 48.603 13.1486C49.6596 13.1486 50.4818 13.5413 51.0694 14.3267ZM36.0803 12.5278H42.4497V11.5679H36.0803V12.5278ZM74.6485 37.0348L74.6765 37.0515L74.7079 36.9992L77.4456 35.3565V53.0019H78.4456V34.7565L90.8938 27.2876L90.3793 26.4301L77.7224 34.0243H77.4456V34.1903L74.6485 35.8686L71.9363 34.2413V34.0243H71.5747L58.9178 26.4301L58.4033 27.2876L70.9363 34.8074V53.0019H71.9363V35.4074L74.5892 36.9992L74.6206 37.0515L74.6485 37.0348Z" fill="#0061E0"/>
</svg>
