<svg width="120" height="80" viewBox="0 0 120 80" fill="none" xmlns="http://www.w3.org/2000/svg">
<path fill-rule="evenodd" clip-rule="evenodd" d="M64.1581 13.3131C64.5815 12.372 64.7933 11.2722 64.7933 10.0136V9.20196C64.7933 7.94921 64.5815 6.85233 64.1581 5.9113C63.7346 4.96439 63.1288 4.24392 62.3407 3.74988C61.5585 3.24996 60.6528 3 59.6235 3C58.6119 3 57.712 3.2529 56.9239 3.7587C56.1417 4.25862 55.5359 4.98204 55.1066 5.92895C54.6772 6.87585 54.4626 7.96686 54.4626 9.20196V10.1283C54.4743 11.3399 54.6949 12.4073 55.1242 13.3307C55.5595 14.2482 56.1682 14.9569 56.9504 15.4568C57.7326 15.9509 58.6295 16.1979 59.6412 16.1979C60.6763 16.1979 61.582 15.9509 62.3584 15.4568C63.1347 14.9628 63.7346 14.2482 64.1581 13.3131ZM62.1907 5.68193C62.8024 6.49356 63.1082 7.66102 63.1082 9.18431V10.1371C63.0906 11.6251 62.7818 12.769 62.1819 13.5689C61.582 14.3629 60.7351 14.7599 59.6412 14.7599C58.5531 14.7599 57.6973 14.3394 57.0739 13.4983C56.4564 12.6514 56.1476 11.4898 56.1476 10.0136V9.06962C56.1652 7.62279 56.4799 6.49356 57.0916 5.68193C57.7091 4.86441 58.5531 4.45565 59.6235 4.45565C60.7233 4.45565 61.5791 4.86441 62.1907 5.68193ZM75.5033 16.0215H77.206V3.17644H75.5033V8.69909H69.0279V3.17644H67.334V16.0215H69.0279V10.0842H75.5033V16.0215ZM42 66.2348V45.4036L60.1969 35.2347L78.3939 45.4036V66.2348L60.1969 75.8685L42 66.2348ZM79.3939 44.8169L60.1969 34.0892L60.6323 34.0892V19.4092H59.6323V34.0892L60.1969 34.0892L41 44.8169V66.8369L60.1969 77L79.3939 66.8369V44.8169ZM44.3877 47.64V63.4492H45.3877V47.64H44.3877ZM74.877 47.64L60.1969 39.7353L60.671 38.8549L75.3511 46.7595L74.877 47.64ZM60.1969 73.6123L74.877 65.7077L74.4029 64.8272L59.7228 72.7318L60.1969 73.6123Z" fill="#0061E0"/>
</svg>
