<svg width="104" height="104" viewBox="0 0 104 104" fill="none" xmlns="http://www.w3.org/2000/svg">
<path d="M104 0H0V104H104V0Z" fill="white"/>
<path d="M104 35.1001L10 89.6001V104L104 48.3001V35.1001Z" fill="url(#paint0_linear)"/>
<path d="M93.9 29.2L0 83.8L10.1 89.6999L104 35.0999L93.9 29.2Z" fill="url(#paint1_linear)"/>
<path d="M0 83.8999V98.1999L10 104V89.5999L0 83.8999Z" fill="#0BD007"/>
<path d="M70.2002 26.1V0L79.1002 8.1L70.2002 26.1Z" fill="#D1D3D4"/>
<path d="M70.1998 7.69995L25.2998 33.9L30.0998 36.5999L74.9998 10.5L70.1998 7.69995Z" fill="#409BFF"/>
<path d="M75 28.7999V2.69995L84 10.8L75 28.7999Z" fill="#007EE5"/>
<path d="M75.0002 28.7999L70.2002 26.0999V21.6999L75.0002 18.8999V28.7999Z" fill="#004BB7"/>
<path d="M75.0002 10.5L70.2002 7.7V0L75.0002 2.7V10.5Z" fill="#004BB7"/>
<path d="M75.0001 10.5L30.1001 36.6L28.1001 43.6L30.1001 47.5L75.0001 20.9L75.9001 15.4L75.0001 10.5Z" fill="#007EE5"/>
<path d="M30.1002 55.1V29L21.2002 47.2L30.1002 55.1Z" fill="#007EE5"/>
<path d="M30.0999 55.1L25.2999 52.4L16.3999 44.5L21.1999 47.2L30.0999 55.1Z" fill="#004BB7"/>
<path d="M21.1999 47.1999L16.3999 44.4999L25.2999 26.3999L30.0999 28.9999L21.1999 47.1999Z" fill="#0061E5"/>
<defs>
<linearGradient id="paint0_linear" x1="10.0269" y1="69.5252" x2="104" y2="69.5252" gradientUnits="userSpaceOnUse">
<stop stop-color="#00F025"/>
<stop offset="0.8755" stop-color="#305890"/>
</linearGradient>
<linearGradient id="paint1_linear" x1="0" y1="59.4472" x2="104" y2="59.4472" gradientUnits="userSpaceOnUse">
<stop stop-color="#5AFF6A"/>
<stop offset="0.8755" stop-color="#409BFF"/>
</linearGradient>
</defs>
</svg>
